solid OpenSCAD_Model
  facet normal 2.18908e-016 -1 0
    outer loop
      vertex -0.000344897 116.234 5
      vertex -0.000344897 116.234 0
      vertex 0 116.234 0
    endloop
  endfacet
  facet normal 2.18908e-016 -1 0
    outer loop
      vertex 0 116.234 5
      vertex -0.000344897 116.234 5
      vertex 0 116.234 0
    endloop
  endfacet
  facet normal 0 0 -1
    outer loop
      vertex -0.000344897 116.234 0
      vertex 0 116.463 0
      vertex 0 116.234 0
    endloop
  endfacet
  facet normal 0 0 -1
    outer loop
      vertex 0.00676149 120.95 0
      vertex 0 116.463 0
      vertex 0 120.95 0
    endloop
  endfacet
  facet normal 0 0 -1
    outer loop
      vertex 0 116.234 0
      vertex 0 116.463 0
      vertex 0.00676149 120.95 0
    endloop
  endfacet
  facet normal 0 0 -1
    outer loop
      vertex 0 116.234 0
      vertex 0.00676149 120.95 0
      vertex 0.0173328 127.965 0
    endloop
  endfacet
  facet normal 0 0 -1
    outer loop
      vertex 0 116.234 0
      vertex 0.0173328 127.965 0
      vertex 0.432404 130.587 0
    endloop
  endfacet
  facet normal 0 0 -1
    outer loop
      vertex 0 116.234 0
      vertex 0.432404 130.587 0
      vertex 1.38417 133.065 0
    endloop
  endfacet
  facet normal 0 0 -1
    outer loop
      vertex 0 116.234 0
      vertex 1.38417 133.065 0
      vertex 2.8302 135.292 0
    endloop
  endfacet
  facet normal 0 0 -1
    outer loop
      vertex 0 116.234 0
      vertex 2.8302 135.292 0
      vertex 4.70828 137.17 0
    endloop
  endfacet
  facet normal 0 0 -1
    outer loop
      vertex 0 116.234 0
      vertex 4.70828 137.17 0
      vertex 6.93496 138.616 0
    endloop
  endfacet
  facet normal 0 0 -1
    outer loop
      vertex 0 116.234 0
      vertex 6.93496 138.616 0
      vertex 9.41266 139.568 0
    endloop
  endfacet
  facet normal 0 0 -1
    outer loop
      vertex 7.04244 130.183 0
      vertex 9.41266 139.568 0
      vertex 12.0353 139.983 0
    endloop
  endfacet
  facet normal 0 0 -1
    outer loop
      vertex 9.81713 132.958 0
      vertex 12.0353 139.983 0
      vertex 14.687 139.844 0
    endloop
  endfacet
  facet normal 0 0 -1
    outer loop
      vertex 12.3677 133.641 0
      vertex 14.687 139.844 0
      vertex 17.2509 139.157 0
    endloop
  endfacet
  facet normal 0 0 -1
    outer loop
      vertex 13.6935 133.571 0
      vertex 17.2509 139.157 0
      vertex 19.6169 137.95 0
    endloop
  endfacet
  facet normal 0 0 -1
    outer loop
      vertex 16.1585 132.625 0
      vertex 19.6169 137.95 0
      vertex 21.6803 136.28 0
    endloop
  endfacet
  facet normal 0 0 -1
    outer loop
      vertex 18.0252 130.758 0
      vertex 21.6803 136.28 0
      vertex 23.3504 134.217 0
    endloop
  endfacet
  facet normal 0 0 -1
    outer loop
      vertex 18.6284 129.575 0
      vertex 23.3504 134.217 0
      vertex 24.5568 131.851 0
    endloop
  endfacet
  facet normal 0 0 -1
    outer loop
      vertex 19.0413 126.968 0
      vertex 24.5568 131.851 0
      vertex 25.2441 129.287 0
    endloop
  endfacet
  facet normal 0 0 -1
    outer loop
      vertex 18.3576 124.417 0
      vertex 25.2441 129.287 0
      vertex 25.3827 126.635 0
    endloop
  endfacet
  facet normal 0 0 -1
    outer loop
      vertex 15.5829 121.642 0
      vertex 25.3827 126.635 0
      vertex 25.373 120.95 0
    endloop
  endfacet
  facet normal 0 0 -1
    outer loop
      vertex 0 116.234 0
      vertex 25.373 120.95 0
      vertex 114.607 120.95 0
    endloop
  endfacet
  facet normal 0 0 -1
    outer loop
      vertex 114.607 120.95 0
      vertex 114.617 127.965 0
      vertex 115.032 130.587 0
    endloop
  endfacet
  facet normal 0 0 -1
    outer loop
      vertex 114.607 120.95 0
      vertex 115.032 130.587 0
      vertex 115.984 133.065 0
    endloop
  endfacet
  facet normal 0 0 -1
    outer loop
      vertex 114.607 120.95 0
      vertex 115.984 133.065 0
      vertex 117.43 135.292 0
    endloop
  endfacet
  facet normal 0 0 -1
    outer loop
      vertex 117.43 135.292 0
      vertex 119.308 137.17 0
      vertex 114.607 120.95 0
    endloop
  endfacet
  facet normal 0 0 -1
    outer loop
      vertex 114.607 120.95 0
      vertex 119.308 137.17 0
      vertex 121.535 138.616 0
    endloop
  endfacet
  facet normal 0 0 -1
    outer loop
      vertex 114.607 120.95 0
      vertex 121.535 138.616 0
      vertex 124.013 139.568 0
    endloop
  endfacet
  facet normal 0 0 -1
    outer loop
      vertex 114.607 120.95 0
      vertex 124.013 139.568 0
      vertex 126.635 139.983 0
    endloop
  endfacet
  facet normal 0 0 -1
    outer loop
      vertex 123.304 132.235 0
      vertex 126.635 139.983 0
      vertex 129.287 139.844 0
    endloop
  endfacet
  facet normal 0 0 -1
    outer loop
      vertex 125.657 133.433 0
      vertex 129.287 139.844 0
      vertex 131.851 139.157 0
    endloop
  endfacet
  facet normal 0 0 -1
    outer loop
      vertex 128.293 133.571 0
      vertex 131.851 139.157 0
      vertex 134.217 137.95 0
    endloop
  endfacet
  facet normal 0 0 -1
    outer loop
      vertex 129.575 133.228 0
      vertex 134.217 137.95 0
      vertex 136.28 136.28 0
    endloop
  endfacet
  facet normal 0 0 -1
    outer loop
      vertex 131.79 131.79 0
      vertex 136.28 136.28 0
      vertex 137.95 134.217 0
    endloop
  endfacet
  facet normal 0 0 -1
    outer loop
      vertex 133.228 129.575 0
      vertex 137.95 134.217 0
      vertex 139.157 131.851 0
    endloop
  endfacet
  facet normal 0 0 -1
    outer loop
      vertex 133.571 128.293 0
      vertex 139.157 131.851 0
      vertex 139.844 129.287 0
    endloop
  endfacet
  facet normal 0 0 -1
    outer loop
      vertex 133.433 125.657 0
      vertex 139.844 129.287 0
      vertex 139.983 126.635 0
    endloop
  endfacet
  facet normal 0 0 -1
    outer loop
      vertex 130.183 121.642 0
      vertex 139.983 126.635 0
      vertex 139.973 120.95 0
    endloop
  endfacet
  facet normal 0 0 -1
    outer loop
      vertex 114.607 120.95 0
      vertex 139.973 120.95 0
      vertex 0 116.234 0
    endloop
  endfacet
  facet normal 0 0 -1
    outer loop
      vertex 139.973 120.95 0
      vertex 140 120.95 0
      vertex 0 116.234 0
    endloop
  endfacet
  facet normal 0 0 -1
    outer loop
      vertex 0 116.234 0
      vertex 140 120.95 0
      vertex 140 0 0
    endloop
  endfacet
  facet normal 0 0 -1
    outer loop
      vertex 6.42867 126.307 0
      vertex 0 116.234 0
      vertex 6.35867 127.632 0
    endloop
  endfacet
  facet normal 0 0 -1
    outer loop
      vertex 7.04244 130.183 0
      vertex 12.0353 139.983 0
      vertex 7.7651 131.296 0
    endloop
  endfacet
  facet normal 0 0 -1
    outer loop
      vertex 6.77162 125.025 0
      vertex 0 116.234 0
      vertex 6.42867 126.307 0
    endloop
  endfacet
  facet normal 0 0 -1
    outer loop
      vertex 13.6935 133.571 0
      vertex 19.6169 137.95 0
      vertex 14.9755 133.228 0
    endloop
  endfacet
  facet normal 0 0 -1
    outer loop
      vertex 7.37478 123.842 0
      vertex 0 116.234 0
      vertex 6.77162 125.025 0
    endloop
  endfacet
  facet normal 0 0 -1
    outer loop
      vertex 8.20987 122.81 0
      vertex 0 116.234 0
      vertex 7.37478 123.842 0
    endloop
  endfacet
  facet normal 0 0 -1
    outer loop
      vertex 18.0252 130.758 0
      vertex 23.3504 134.217 0
      vertex 18.6284 129.575 0
    endloop
  endfacet
  facet normal 0 0 -1
    outer loop
      vertex 18.6284 129.575 0
      vertex 24.5568 131.851 0
      vertex 18.9713 128.293 0
    endloop
  endfacet
  facet normal 0 0 -1
    outer loop
      vertex 11.7065 121.029 0
      vertex 0 116.234 0
      vertex 10.4245 121.372 0
    endloop
  endfacet
  facet normal 0 0 -1
    outer loop
      vertex 14.3433 121.167 0
      vertex 25.373 120.95 0
      vertex 13.0323 120.959 0
    endloop
  endfacet
  facet normal 0 0 -1
    outer loop
      vertex 0 116.234 0
      vertex 11.7065 121.029 0
      vertex 13.0323 120.959 0
    endloop
  endfacet
  facet normal 0 0 -1
    outer loop
      vertex 0 116.234 0
      vertex 13.0323 120.959 0
      vertex 25.373 120.95 0
    endloop
  endfacet
  facet normal 0 0 -1
    outer loop
      vertex 18.3576 124.417 0
      vertex 25.3827 126.635 0
      vertex 17.6349 123.304 0
    endloop
  endfacet
  facet normal 0 0 -1
    outer loop
      vertex 16.6959 122.365 0
      vertex 25.3827 126.635 0
      vertex 15.5829 121.642 0
    endloop
  endfacet
  facet normal 0 0 -1
    outer loop
      vertex 14.3433 121.167 0
      vertex 15.5829 121.642 0
      vertex 25.373 120.95 0
    endloop
  endfacet
  facet normal 0 0 -1
    outer loop
      vertex 17.6349 123.304 0
      vertex 25.3827 126.635 0
      vertex 16.6959 122.365 0
    endloop
  endfacet
  facet normal 0 0 -1
    outer loop
      vertex 18.8334 125.657 0
      vertex 25.2441 129.287 0
      vertex 18.3576 124.417 0
    endloop
  endfacet
  facet normal 0 0 -1
    outer loop
      vertex 19.0413 126.968 0
      vertex 25.2441 129.287 0
      vertex 18.8334 125.657 0
    endloop
  endfacet
  facet normal 0 0 -1
    outer loop
      vertex 18.9713 128.293 0
      vertex 24.5568 131.851 0
      vertex 19.0413 126.968 0
    endloop
  endfacet
  facet normal 0 0 -1
    outer loop
      vertex 10.4245 121.372 0
      vertex 0 116.234 0
      vertex 9.24154 121.975 0
    endloop
  endfacet
  facet normal 0 0 -1
    outer loop
      vertex 131.79 131.79 0
      vertex 137.95 134.217 0
      vertex 132.625 130.758 0
    endloop
  endfacet
  facet normal 0 0 -1
    outer loop
      vertex 17.1901 131.79 0
      vertex 21.6803 136.28 0
      vertex 18.0252 130.758 0
    endloop
  endfacet
  facet normal 0 0 -1
    outer loop
      vertex 16.1585 132.625 0
      vertex 21.6803 136.28 0
      vertex 17.1901 131.79 0
    endloop
  endfacet
  facet normal 0 0 -1
    outer loop
      vertex 9.24154 121.975 0
      vertex 0 116.234 0
      vertex 8.20987 122.81 0
    endloop
  endfacet
  facet normal 0 0 -1
    outer loop
      vertex 14.9755 133.228 0
      vertex 19.6169 137.95 0
      vertex 16.1585 132.625 0
    endloop
  endfacet
  facet normal 0 0 -1
    outer loop
      vertex 12.3677 133.641 0
      vertex 17.2509 139.157 0
      vertex 13.6935 133.571 0
    endloop
  endfacet
  facet normal 0 0 -1
    outer loop
      vertex 11.0567 133.433 0
      vertex 14.687 139.844 0
      vertex 12.3677 133.641 0
    endloop
  endfacet
  facet normal 0 0 -1
    outer loop
      vertex 9.81713 132.958 0
      vertex 14.687 139.844 0
      vertex 11.0567 133.433 0
    endloop
  endfacet
  facet normal 0 0 -1
    outer loop
      vertex 8.70414 132.235 0
      vertex 12.0353 139.983 0
      vertex 9.81713 132.958 0
    endloop
  endfacet
  facet normal 0 0 -1
    outer loop
      vertex 7.7651 131.296 0
      vertex 12.0353 139.983 0
      vertex 8.70414 132.235 0
    endloop
  endfacet
  facet normal 0 0 -1
    outer loop
      vertex 123.304 132.235 0
      vertex 129.287 139.844 0
      vertex 124.417 132.958 0
    endloop
  endfacet
  facet normal 0 0 -1
    outer loop
      vertex 0 116.234 0
      vertex 9.41266 139.568 0
      vertex 7.04244 130.183 0
    endloop
  endfacet
  facet normal 0 0 -1
    outer loop
      vertex 6.56656 128.943 0
      vertex 0 116.234 0
      vertex 7.04244 130.183 0
    endloop
  endfacet
  facet normal 0 0 -1
    outer loop
      vertex 120.959 127.632 0
      vertex 114.607 120.95 0
      vertex 121.167 128.943 0
    endloop
  endfacet
  facet normal 0 0 -1
    outer loop
      vertex 0 116.234 0
      vertex 6.56656 128.943 0
      vertex 6.35867 127.632 0
    endloop
  endfacet
  facet normal 0 0 -1
    outer loop
      vertex 121.029 126.307 0
      vertex 114.607 120.95 0
      vertex 120.959 127.632 0
    endloop
  endfacet
  facet normal 0 0 -1
    outer loop
      vertex 129.575 133.228 0
      vertex 136.28 136.28 0
      vertex 130.758 132.625 0
    endloop
  endfacet
  facet normal 0 0 -1
    outer loop
      vertex 121.372 125.025 0
      vertex 114.607 120.95 0
      vertex 121.029 126.307 0
    endloop
  endfacet
  facet normal 0 0 -1
    outer loop
      vertex 121.975 123.842 0
      vertex 114.607 120.95 0
      vertex 121.372 125.025 0
    endloop
  endfacet
  facet normal 0 0 -1
    outer loop
      vertex 122.81 122.81 0
      vertex 114.607 120.95 0
      vertex 121.975 123.842 0
    endloop
  endfacet
  facet normal 0 0 -1
    outer loop
      vertex 133.571 128.293 0
      vertex 139.844 129.287 0
      vertex 133.641 126.968 0
    endloop
  endfacet
  facet normal 0 0 -1
    outer loop
      vertex 128.943 121.167 0
      vertex 139.973 120.95 0
      vertex 127.632 120.959 0
    endloop
  endfacet
  facet normal 0 0 -1
    outer loop
      vertex 114.607 120.95 0
      vertex 123.842 121.975 0
      vertex 125.025 121.372 0
    endloop
  endfacet
  facet normal 0 0 -1
    outer loop
      vertex 114.607 120.95 0
      vertex 125.025 121.372 0
      vertex 126.307 121.029 0
    endloop
  endfacet
  facet normal 0 0 -1
    outer loop
      vertex 114.607 120.95 0
      vertex 126.307 121.029 0
      vertex 127.632 120.959 0
    endloop
  endfacet
  facet normal 0 0 -1
    outer loop
      vertex 114.607 120.95 0
      vertex 127.632 120.959 0
      vertex 139.973 120.95 0
    endloop
  endfacet
  facet normal 0 0 -1
    outer loop
      vertex 130.183 121.642 0
      vertex 139.973 120.95 0
      vertex 128.943 121.167 0
    endloop
  endfacet
  facet normal 0 0 -1
    outer loop
      vertex 131.296 122.365 0
      vertex 139.983 126.635 0
      vertex 130.183 121.642 0
    endloop
  endfacet
  facet normal 0 0 -1
    outer loop
      vertex 133.433 125.657 0
      vertex 139.983 126.635 0
      vertex 132.958 124.417 0
    endloop
  endfacet
  facet normal 0 0 -1
    outer loop
      vertex 132.235 123.304 0
      vertex 139.983 126.635 0
      vertex 131.296 122.365 0
    endloop
  endfacet
  facet normal 0 0 -1
    outer loop
      vertex 132.958 124.417 0
      vertex 139.983 126.635 0
      vertex 132.235 123.304 0
    endloop
  endfacet
  facet normal 0 0 -1
    outer loop
      vertex 133.641 126.968 0
      vertex 139.844 129.287 0
      vertex 133.433 125.657 0
    endloop
  endfacet
  facet normal 0 0 -1
    outer loop
      vertex 123.842 121.975 0
      vertex 114.607 120.95 0
      vertex 122.81 122.81 0
    endloop
  endfacet
  facet normal 0 0 -1
    outer loop
      vertex 133.228 129.575 0
      vertex 139.157 131.851 0
      vertex 133.571 128.293 0
    endloop
  endfacet
  facet normal 0 0 -1
    outer loop
      vertex 132.625 130.758 0
      vertex 137.95 134.217 0
      vertex 133.228 129.575 0
    endloop
  endfacet
  facet normal 0 0 -1
    outer loop
      vertex 130.758 132.625 0
      vertex 136.28 136.28 0
      vertex 131.79 131.79 0
    endloop
  endfacet
  facet normal 0 0 -1
    outer loop
      vertex 128.293 133.571 0
      vertex 134.217 137.95 0
      vertex 129.575 133.228 0
    endloop
  endfacet
  facet normal 0 0 -1
    outer loop
      vertex 126.968 133.641 0
      vertex 131.851 139.157 0
      vertex 128.293 133.571 0
    endloop
  endfacet
  facet normal 0 0 -1
    outer loop
      vertex 125.657 133.433 0
      vertex 131.851 139.157 0
      vertex 126.968 133.641 0
    endloop
  endfacet
  facet normal 0 0 -1
    outer loop
      vertex 124.417 132.958 0
      vertex 129.287 139.844 0
      vertex 125.657 133.433 0
    endloop
  endfacet
  facet normal 0 0 -1
    outer loop
      vertex 122.365 131.296 0
      vertex 126.635 139.983 0
      vertex 123.304 132.235 0
    endloop
  endfacet
  facet normal 0 0 -1
    outer loop
      vertex 121.167 128.943 0
      vertex 114.607 120.95 0
      vertex 121.642 130.183 0
    endloop
  endfacet
  facet normal 0 0 -1
    outer loop
      vertex 114.607 120.95 0
      vertex 126.635 139.983 0
      vertex 122.365 131.296 0
    endloop
  endfacet
  facet normal 0 0 -1
    outer loop
      vertex 114.607 120.95 0
      vertex 122.365 131.296 0
      vertex 121.642 130.183 0
    endloop
  endfacet
  facet normal 0 0 -1
    outer loop
      vertex 0 116.234 0
      vertex 140 0 0
      vertex 0 0 0
    endloop
  endfacet
  facet normal -0.999999 0.00150702 0
    outer loop
      vertex -0.000344897 116.234 0
      vertex -0.000344897 116.234 5
      vertex 0 116.463 0
    endloop
  endfacet
  facet normal -0.999999 0.00150702 0
    outer loop
      vertex 0 116.463 0
      vertex -0.000344897 116.234 5
      vertex 0 116.463 5
    endloop
  endfacet
  facet normal 0 0 1
    outer loop
      vertex 0 116.463 5
      vertex -0.000344897 116.234 5
      vertex 0 116.234 5
    endloop
  endfacet
  facet normal 0 0 1
    outer loop
      vertex 140 0 5
      vertex 0 116.463 5
      vertex 0 116.234 5
    endloop
  endfacet
  facet normal 0 0 1
    outer loop
      vertex 0 0 5
      vertex 140 0 5
      vertex 0 116.234 5
    endloop
  endfacet
  facet normal 0 0 1
    outer loop
      vertex 140 0 5
      vertex 140 120.95 5
      vertex 0 116.463 5
    endloop
  endfacet
  facet normal 0 0 1
    outer loop
      vertex 140 120.95 5
      vertex 139.973 120.95 5
      vertex 0 116.463 5
    endloop
  endfacet
  facet normal 0 0 1
    outer loop
      vertex 14.3433 121.167 5
      vertex 13.0323 120.959 5
      vertex 0 116.463 5
    endloop
  endfacet
  facet normal 0 0 1
    outer loop
      vertex 25.373 120.95 5
      vertex 25.3827 126.635 5
      vertex 17.6349 123.304 5
    endloop
  endfacet
  facet normal 0 0 1
    outer loop
      vertex 25.373 120.95 5
      vertex 17.6349 123.304 5
      vertex 16.6959 122.365 5
    endloop
  endfacet
  facet normal 0 0 1
    outer loop
      vertex 133.228 129.575 5
      vertex 133.571 128.293 5
      vertex 139.844 129.287 5
    endloop
  endfacet
  facet normal 0 0 1
    outer loop
      vertex 25.373 120.95 5
      vertex 15.5829 121.642 5
      vertex 14.3433 121.167 5
    endloop
  endfacet
  facet normal 0 0 1
    outer loop
      vertex 25.373 120.95 5
      vertex 14.3433 121.167 5
      vertex 0 116.463 5
    endloop
  endfacet
  facet normal 0 0 1
    outer loop
      vertex 119.308 137.17 5
      vertex 117.43 135.292 5
      vertex 131.851 139.157 5
    endloop
  endfacet
  facet normal 0 0 1
    outer loop
      vertex 117.43 135.292 5
      vertex 115.984 133.065 5
      vertex 136.28 136.28 5
    endloop
  endfacet
  facet normal 0 0 1
    outer loop
      vertex 129.287 139.844 5
      vertex 126.635 139.983 5
      vertex 121.535 138.616 5
    endloop
  endfacet
  facet normal 0 0 1
    outer loop
      vertex 117.43 135.292 5
      vertex 136.28 136.28 5
      vertex 134.217 137.95 5
    endloop
  endfacet
  facet normal 0 0 1
    outer loop
      vertex 131.851 139.157 5
      vertex 129.287 139.844 5
      vertex 119.308 137.17 5
    endloop
  endfacet
  facet normal 0 0 1
    outer loop
      vertex 134.217 137.95 5
      vertex 131.851 139.157 5
      vertex 117.43 135.292 5
    endloop
  endfacet
  facet normal 0 0 1
    outer loop
      vertex 126.968 133.641 5
      vertex 136.28 136.28 5
      vertex 115.984 133.065 5
    endloop
  endfacet
  facet normal 0 0 1
    outer loop
      vertex 125.657 133.433 5
      vertex 126.968 133.641 5
      vertex 115.984 133.065 5
    endloop
  endfacet
  facet normal 0 0 1
    outer loop
      vertex 121.642 130.183 5
      vertex 122.365 131.296 5
      vertex 115.032 130.587 5
    endloop
  endfacet
  facet normal 0 0 1
    outer loop
      vertex 139.973 120.95 5
      vertex 114.607 120.95 5
      vertex 0 116.463 5
    endloop
  endfacet
  facet normal 0 0 1
    outer loop
      vertex 0.00676149 120.95 5
      vertex 0 120.95 5
      vertex 0 116.463 5
    endloop
  endfacet
  facet normal 0 0 1
    outer loop
      vertex 16.1585 132.625 5
      vertex 17.1901 131.79 5
      vertex 21.6803 136.28 5
    endloop
  endfacet
  facet normal 0 0 1
    outer loop
      vertex 6.42867 126.307 5
      vertex 6.35867 127.632 5
      vertex 0 116.463 5
    endloop
  endfacet
  facet normal 0 0 1
    outer loop
      vertex 7.04244 130.183 5
      vertex 7.7651 131.296 5
      vertex 12.0353 139.983 5
    endloop
  endfacet
  facet normal 0 0 1
    outer loop
      vertex 7.04244 130.183 5
      vertex 12.0353 139.983 5
      vertex 0 116.463 5
    endloop
  endfacet
  facet normal 0 0 1
    outer loop
      vertex 12.0353 139.983 5
      vertex 9.41266 139.568 5
      vertex 0 116.463 5
    endloop
  endfacet
  facet normal 0 0 1
    outer loop
      vertex 9.41266 139.568 5
      vertex 6.93496 138.616 5
      vertex 0 116.463 5
    endloop
  endfacet
  facet normal 0 0 1
    outer loop
      vertex 6.93496 138.616 5
      vertex 4.70828 137.17 5
      vertex 0 116.463 5
    endloop
  endfacet
  facet normal 0 0 1
    outer loop
      vertex 4.70828 137.17 5
      vertex 2.8302 135.292 5
      vertex 0 116.463 5
    endloop
  endfacet
  facet normal 0 0 1
    outer loop
      vertex 2.8302 135.292 5
      vertex 1.38417 133.065 5
      vertex 0 116.463 5
    endloop
  endfacet
  facet normal 0 0 1
    outer loop
      vertex 1.38417 133.065 5
      vertex 0.432404 130.587 5
      vertex 0 116.463 5
    endloop
  endfacet
  facet normal 0 0 1
    outer loop
      vertex 0.432404 130.587 5
      vertex 0.00676149 120.95 5
      vertex 0 116.463 5
    endloop
  endfacet
  facet normal 0 0 1
    outer loop
      vertex 0.432404 130.587 5
      vertex 0.0173328 127.965 5
      vertex 0.00676149 120.95 5
    endloop
  endfacet
  facet normal 0 0 1
    outer loop
      vertex 6.35867 127.632 5
      vertex 6.56656 128.943 5
      vertex 0 116.463 5
    endloop
  endfacet
  facet normal 0 0 1
    outer loop
      vertex 6.56656 128.943 5
      vertex 7.04244 130.183 5
      vertex 0 116.463 5
    endloop
  endfacet
  facet normal 0 0 1
    outer loop
      vertex 7.7651 131.296 5
      vertex 8.70414 132.235 5
      vertex 12.0353 139.983 5
    endloop
  endfacet
  facet normal 0 0 1
    outer loop
      vertex 14.687 139.844 5
      vertex 12.0353 139.983 5
      vertex 8.70414 132.235 5
    endloop
  endfacet
  facet normal 0 0 1
    outer loop
      vertex 12.3677 133.641 5
      vertex 13.6935 133.571 5
      vertex 17.2509 139.157 5
    endloop
  endfacet
  facet normal 0 0 1
    outer loop
      vertex 14.687 139.844 5
      vertex 8.70414 132.235 5
      vertex 9.81713 132.958 5
    endloop
  endfacet
  facet normal 0 0 1
    outer loop
      vertex 17.2509 139.157 5
      vertex 14.687 139.844 5
      vertex 11.0567 133.433 5
    endloop
  endfacet
  facet normal 0 0 1
    outer loop
      vertex 14.9755 133.228 5
      vertex 16.1585 132.625 5
      vertex 19.6169 137.95 5
    endloop
  endfacet
  facet normal 0 0 1
    outer loop
      vertex 17.2509 139.157 5
      vertex 11.0567 133.433 5
      vertex 12.3677 133.641 5
    endloop
  endfacet
  facet normal 0 0 1
    outer loop
      vertex 120.959 127.632 5
      vertex 121.167 128.943 5
      vertex 114.617 127.965 5
    endloop
  endfacet
  facet normal 0 0 1
    outer loop
      vertex 19.6169 137.95 5
      vertex 17.2509 139.157 5
      vertex 13.6935 133.571 5
    endloop
  endfacet
  facet normal 0 0 1
    outer loop
      vertex 18.0252 130.758 5
      vertex 18.6284 129.575 5
      vertex 23.3504 134.217 5
    endloop
  endfacet
  facet normal 0 0 1
    outer loop
      vertex 19.6169 137.95 5
      vertex 13.6935 133.571 5
      vertex 14.9755 133.228 5
    endloop
  endfacet
  facet normal 0 0 1
    outer loop
      vertex 21.6803 136.28 5
      vertex 19.6169 137.95 5
      vertex 16.1585 132.625 5
    endloop
  endfacet
  facet normal 0 0 1
    outer loop
      vertex 7.37478 123.842 5
      vertex 6.77162 125.025 5
      vertex 0 116.463 5
    endloop
  endfacet
  facet normal 0 0 1
    outer loop
      vertex 23.3504 134.217 5
      vertex 21.6803 136.28 5
      vertex 17.1901 131.79 5
    endloop
  endfacet
  facet normal 0 0 1
    outer loop
      vertex 131.79 131.79 5
      vertex 132.625 130.758 5
      vertex 139.157 131.851 5
    endloop
  endfacet
  facet normal 0 0 1
    outer loop
      vertex 23.3504 134.217 5
      vertex 17.1901 131.79 5
      vertex 18.0252 130.758 5
    endloop
  endfacet
  facet normal 0 0 1
    outer loop
      vertex 19.0413 126.968 5
      vertex 18.8334 125.657 5
      vertex 25.2441 129.287 5
    endloop
  endfacet
  facet normal 0 0 1
    outer loop
      vertex 24.5568 131.851 5
      vertex 23.3504 134.217 5
      vertex 18.6284 129.575 5
    endloop
  endfacet
  facet normal 0 0 1
    outer loop
      vertex 25.2441 129.287 5
      vertex 24.5568 131.851 5
      vertex 18.9713 128.293 5
    endloop
  endfacet
  facet normal 0 0 1
    outer loop
      vertex 25.2441 129.287 5
      vertex 18.9713 128.293 5
      vertex 19.0413 126.968 5
    endloop
  endfacet
  facet normal 0 0 1
    outer loop
      vertex 9.24154 121.975 5
      vertex 8.20987 122.81 5
      vertex 0 116.463 5
    endloop
  endfacet
  facet normal 0 0 1
    outer loop
      vertex 25.3827 126.635 5
      vertex 25.2441 129.287 5
      vertex 18.8334 125.657 5
    endloop
  endfacet
  facet normal 0 0 1
    outer loop
      vertex 13.0323 120.959 5
      vertex 11.7065 121.029 5
      vertex 0 116.463 5
    endloop
  endfacet
  facet normal 0 0 1
    outer loop
      vertex 25.3827 126.635 5
      vertex 18.8334 125.657 5
      vertex 18.3576 124.417 5
    endloop
  endfacet
  facet normal 0 0 1
    outer loop
      vertex 11.7065 121.029 5
      vertex 10.4245 121.372 5
      vertex 0 116.463 5
    endloop
  endfacet
  facet normal 0 0 1
    outer loop
      vertex 10.4245 121.372 5
      vertex 9.24154 121.975 5
      vertex 0 116.463 5
    endloop
  endfacet
  facet normal 0 0 1
    outer loop
      vertex 6.77162 125.025 5
      vertex 6.42867 126.307 5
      vertex 0 116.463 5
    endloop
  endfacet
  facet normal 0 0 1
    outer loop
      vertex 9.81713 132.958 5
      vertex 11.0567 133.433 5
      vertex 14.687 139.844 5
    endloop
  endfacet
  facet normal 0 0 1
    outer loop
      vertex 8.20987 122.81 5
      vertex 7.37478 123.842 5
      vertex 0 116.463 5
    endloop
  endfacet
  facet normal 0 0 1
    outer loop
      vertex 18.6284 129.575 5
      vertex 18.9713 128.293 5
      vertex 24.5568 131.851 5
    endloop
  endfacet
  facet normal 0 0 1
    outer loop
      vertex 18.3576 124.417 5
      vertex 17.6349 123.304 5
      vertex 25.3827 126.635 5
    endloop
  endfacet
  facet normal 0 0 1
    outer loop
      vertex 133.571 128.293 5
      vertex 133.641 126.968 5
      vertex 139.844 129.287 5
    endloop
  endfacet
  facet normal 0 0 1
    outer loop
      vertex 129.575 133.228 5
      vertex 130.758 132.625 5
      vertex 137.95 134.217 5
    endloop
  endfacet
  facet normal 0 0 1
    outer loop
      vertex 121.167 128.943 5
      vertex 121.642 130.183 5
      vertex 114.617 127.965 5
    endloop
  endfacet
  facet normal 0 0 1
    outer loop
      vertex 122.365 131.296 5
      vertex 123.304 132.235 5
      vertex 115.032 130.587 5
    endloop
  endfacet
  facet normal 0 0 1
    outer loop
      vertex 25.373 120.95 5
      vertex 16.6959 122.365 5
      vertex 15.5829 121.642 5
    endloop
  endfacet
  facet normal 0 0 1
    outer loop
      vertex 128.293 133.571 5
      vertex 129.575 133.228 5
      vertex 137.95 134.217 5
    endloop
  endfacet
  facet normal 0 0 1
    outer loop
      vertex 114.617 127.965 5
      vertex 121.029 126.307 5
      vertex 120.959 127.632 5
    endloop
  endfacet
  facet normal 0 0 1
    outer loop
      vertex 125.657 133.433 5
      vertex 115.984 133.065 5
      vertex 124.417 132.958 5
    endloop
  endfacet
  facet normal 0 0 1
    outer loop
      vertex 126.968 133.641 5
      vertex 128.293 133.571 5
      vertex 137.95 134.217 5
    endloop
  endfacet
  facet normal 0 0 1
    outer loop
      vertex 137.95 134.217 5
      vertex 136.28 136.28 5
      vertex 126.968 133.641 5
    endloop
  endfacet
  facet normal 0 0 1
    outer loop
      vertex 115.032 130.587 5
      vertex 114.617 127.965 5
      vertex 121.642 130.183 5
    endloop
  endfacet
  facet normal 0 0 1
    outer loop
      vertex 139.157 131.851 5
      vertex 137.95 134.217 5
      vertex 130.758 132.625 5
    endloop
  endfacet
  facet normal 0 0 1
    outer loop
      vertex 139.157 131.851 5
      vertex 130.758 132.625 5
      vertex 131.79 131.79 5
    endloop
  endfacet
  facet normal 0 0 1
    outer loop
      vertex 139.844 129.287 5
      vertex 139.157 131.851 5
      vertex 132.625 130.758 5
    endloop
  endfacet
  facet normal 0 0 1
    outer loop
      vertex 133.641 126.968 5
      vertex 133.433 125.657 5
      vertex 139.983 126.635 5
    endloop
  endfacet
  facet normal 0 0 1
    outer loop
      vertex 139.844 129.287 5
      vertex 132.625 130.758 5
      vertex 133.228 129.575 5
    endloop
  endfacet
  facet normal 0 0 1
    outer loop
      vertex 114.607 120.95 5
      vertex 25.373 120.95 5
      vertex 0 116.463 5
    endloop
  endfacet
  facet normal 0 0 1
    outer loop
      vertex 133.433 125.657 5
      vertex 132.958 124.417 5
      vertex 139.983 126.635 5
    endloop
  endfacet
  facet normal 0 0 1
    outer loop
      vertex 139.983 126.635 5
      vertex 139.844 129.287 5
      vertex 133.641 126.968 5
    endloop
  endfacet
  facet normal 0 0 1
    outer loop
      vertex 125.025 121.372 5
      vertex 123.842 121.975 5
      vertex 114.607 120.95 5
    endloop
  endfacet
  facet normal 0 0 1
    outer loop
      vertex 122.81 122.81 5
      vertex 121.975 123.842 5
      vertex 114.607 120.95 5
    endloop
  endfacet
  facet normal 0 0 1
    outer loop
      vertex 139.973 120.95 5
      vertex 139.983 126.635 5
      vertex 132.958 124.417 5
    endloop
  endfacet
  facet normal 0 0 1
    outer loop
      vertex 139.973 120.95 5
      vertex 132.958 124.417 5
      vertex 132.235 123.304 5
    endloop
  endfacet
  facet normal 0 0 1
    outer loop
      vertex 139.973 120.95 5
      vertex 132.235 123.304 5
      vertex 131.296 122.365 5
    endloop
  endfacet
  facet normal 0 0 1
    outer loop
      vertex 123.842 121.975 5
      vertex 122.81 122.81 5
      vertex 114.607 120.95 5
    endloop
  endfacet
  facet normal 0 0 1
    outer loop
      vertex 139.973 120.95 5
      vertex 131.296 122.365 5
      vertex 130.183 121.642 5
    endloop
  endfacet
  facet normal 0 0 1
    outer loop
      vertex 139.973 120.95 5
      vertex 130.183 121.642 5
      vertex 128.943 121.167 5
    endloop
  endfacet
  facet normal 0 0 1
    outer loop
      vertex 139.973 120.95 5
      vertex 127.632 120.959 5
      vertex 114.607 120.95 5
    endloop
  endfacet
  facet normal 0 0 1
    outer loop
      vertex 139.973 120.95 5
      vertex 128.943 121.167 5
      vertex 127.632 120.959 5
    endloop
  endfacet
  facet normal 0 0 1
    outer loop
      vertex 127.632 120.959 5
      vertex 126.307 121.029 5
      vertex 114.607 120.95 5
    endloop
  endfacet
  facet normal 0 0 1
    outer loop
      vertex 126.307 121.029 5
      vertex 125.025 121.372 5
      vertex 114.607 120.95 5
    endloop
  endfacet
  facet normal 0 0 1
    outer loop
      vertex 124.013 139.568 5
      vertex 121.535 138.616 5
      vertex 126.635 139.983 5
    endloop
  endfacet
  facet normal 0 0 1
    outer loop
      vertex 121.535 138.616 5
      vertex 119.308 137.17 5
      vertex 129.287 139.844 5
    endloop
  endfacet
  facet normal 0 0 1
    outer loop
      vertex 115.984 133.065 5
      vertex 123.304 132.235 5
      vertex 124.417 132.958 5
    endloop
  endfacet
  facet normal 0 0 1
    outer loop
      vertex 115.984 133.065 5
      vertex 115.032 130.587 5
      vertex 123.304 132.235 5
    endloop
  endfacet
  facet normal 0 0 1
    outer loop
      vertex 114.617 127.965 5
      vertex 121.372 125.025 5
      vertex 121.029 126.307 5
    endloop
  endfacet
  facet normal 0 0 1
    outer loop
      vertex 114.617 127.965 5
      vertex 121.975 123.842 5
      vertex 121.372 125.025 5
    endloop
  endfacet
  facet normal 0 0 1
    outer loop
      vertex 114.617 127.965 5
      vertex 114.607 120.95 5
      vertex 121.975 123.842 5
    endloop
  endfacet
  facet normal -1 0 0
    outer loop
      vertex 0 0 0
      vertex 0 0 5
      vertex 0 116.234 0
    endloop
  endfacet
  facet normal -1 0 0
    outer loop
      vertex 0 116.234 0
      vertex 0 0 5
      vertex 0 116.234 5
    endloop
  endfacet
  facet normal 0 -1 0
    outer loop
      vertex 0 0 5
      vertex 0 0 0
      vertex 140 0 0
    endloop
  endfacet
  facet normal 0 -1 0
    outer loop
      vertex 140 0 5
      vertex 0 0 5
      vertex 140 0 0
    endloop
  endfacet
  facet normal 1 0 0
    outer loop
      vertex 140 0 5
      vertex 140 0 0
      vertex 140 120.95 0
    endloop
  endfacet
  facet normal 1 0 0
    outer loop
      vertex 140 120.95 5
      vertex 140 0 5
      vertex 140 120.95 0
    endloop
  endfacet
  facet normal 0 1 0
    outer loop
      vertex 139.973 120.95 0
      vertex 139.973 120.95 5
      vertex 140 120.95 0
    endloop
  endfacet
  facet normal 0 1 0
    outer loop
      vertex 140 120.95 0
      vertex 139.973 120.95 5
      vertex 140 120.95 5
    endloop
  endfacet
  facet normal 0.999999 -0.00169964 0
    outer loop
      vertex 139.973 120.95 5
      vertex 139.973 120.95 0
      vertex 139.983 126.635 0
    endloop
  endfacet
  facet normal 0.999999 -0.00169964 0
    outer loop
      vertex 139.983 126.635 5
      vertex 139.973 120.95 5
      vertex 139.983 126.635 0
    endloop
  endfacet
  facet normal 0.998637 0.0521954 0
    outer loop
      vertex 139.983 126.635 0
      vertex 139.844 129.287 0
      vertex 139.844 129.287 5
    endloop
  endfacet
  facet normal 0.998637 0.0521954 0
    outer loop
      vertex 139.983 126.635 5
      vertex 139.983 126.635 0
      vertex 139.844 129.287 5
    endloop
  endfacet
  facet normal 0.965898 0.258922 0
    outer loop
      vertex 139.844 129.287 0
      vertex 139.157 131.851 0
      vertex 139.157 131.851 5
    endloop
  endfacet
  facet normal 0.965898 0.258922 0
    outer loop
      vertex 139.844 129.287 5
      vertex 139.844 129.287 0
      vertex 139.157 131.851 5
    endloop
  endfacet
  facet normal 0.890885 0.454229 0
    outer loop
      vertex 139.157 131.851 0
      vertex 137.95 134.217 0
      vertex 137.95 134.217 5
    endloop
  endfacet
  facet normal 0.890885 0.454229 0
    outer loop
      vertex 139.157 131.851 5
      vertex 139.157 131.851 0
      vertex 137.95 134.217 5
    endloop
  endfacet
  facet normal 0.77727 0.629168 0
    outer loop
      vertex 137.95 134.217 0
      vertex 136.28 136.28 0
      vertex 136.28 136.28 5
    endloop
  endfacet
  facet normal 0.77727 0.629168 0
    outer loop
      vertex 137.95 134.217 5
      vertex 137.95 134.217 0
      vertex 136.28 136.28 5
    endloop
  endfacet
  facet normal 0.629168 0.77727 0
    outer loop
      vertex 134.217 137.95 0
      vertex 134.217 137.95 5
      vertex 136.28 136.28 0
    endloop
  endfacet
  facet normal 0.629168 0.77727 0
    outer loop
      vertex 136.28 136.28 0
      vertex 134.217 137.95 5
      vertex 136.28 136.28 5
    endloop
  endfacet
  facet normal 0.454229 0.890885 0
    outer loop
      vertex 131.851 139.157 0
      vertex 131.851 139.157 5
      vertex 134.217 137.95 0
    endloop
  endfacet
  facet normal 0.454229 0.890885 0
    outer loop
      vertex 134.217 137.95 0
      vertex 131.851 139.157 5
      vertex 134.217 137.95 5
    endloop
  endfacet
  facet normal 0.258922 0.965898 0
    outer loop
      vertex 129.287 139.844 0
      vertex 129.287 139.844 5
      vertex 131.851 139.157 0
    endloop
  endfacet
  facet normal 0.258922 0.965898 0
    outer loop
      vertex 131.851 139.157 0
      vertex 129.287 139.844 5
      vertex 131.851 139.157 5
    endloop
  endfacet
  facet normal 0.0521954 0.998637 0
    outer loop
      vertex 126.635 139.983 0
      vertex 126.635 139.983 5
      vertex 129.287 139.844 0
    endloop
  endfacet
  facet normal 0.0521954 0.998637 0
    outer loop
      vertex 129.287 139.844 0
      vertex 126.635 139.983 5
      vertex 129.287 139.844 5
    endloop
  endfacet
  facet normal -0.156318 0.987707 0
    outer loop
      vertex 124.013 139.568 0
      vertex 124.013 139.568 5
      vertex 126.635 139.983 0
    endloop
  endfacet
  facet normal -0.156318 0.987707 0
    outer loop
      vertex 126.635 139.983 0
      vertex 124.013 139.568 5
      vertex 126.635 139.983 5
    endloop
  endfacet
  facet normal -0.358586 0.933497 0
    outer loop
      vertex 121.535 138.616 0
      vertex 121.535 138.616 5
      vertex 124.013 139.568 0
    endloop
  endfacet
  facet normal -0.358586 0.933497 0
    outer loop
      vertex 124.013 139.568 0
      vertex 121.535 138.616 5
      vertex 124.013 139.568 5
    endloop
  endfacet
  facet normal -0.544642 0.838669 0
    outer loop
      vertex 119.308 137.17 0
      vertex 119.308 137.17 5
      vertex 121.535 138.616 0
    endloop
  endfacet
  facet normal -0.544642 0.838669 0
    outer loop
      vertex 121.535 138.616 0
      vertex 119.308 137.17 5
      vertex 121.535 138.616 5
    endloop
  endfacet
  facet normal -0.707107 0.707107 0
    outer loop
      vertex 117.43 135.292 0
      vertex 117.43 135.292 5
      vertex 119.308 137.17 0
    endloop
  endfacet
  facet normal -0.707107 0.707107 0
    outer loop
      vertex 119.308 137.17 0
      vertex 117.43 135.292 5
      vertex 119.308 137.17 5
    endloop
  endfacet
  facet normal -0.838669 0.544642 0
    outer loop
      vertex 115.984 133.065 0
      vertex 115.984 133.065 5
      vertex 117.43 135.292 0
    endloop
  endfacet
  facet normal -0.838669 0.544642 0
    outer loop
      vertex 117.43 135.292 0
      vertex 115.984 133.065 5
      vertex 117.43 135.292 5
    endloop
  endfacet
  facet normal -0.933497 0.358586 0
    outer loop
      vertex 115.032 130.587 0
      vertex 115.032 130.587 5
      vertex 115.984 133.065 0
    endloop
  endfacet
  facet normal -0.933497 0.358586 0
    outer loop
      vertex 115.984 133.065 0
      vertex 115.032 130.587 5
      vertex 115.984 133.065 5
    endloop
  endfacet
  facet normal -0.987707 0.156318 0
    outer loop
      vertex 114.617 127.965 0
      vertex 114.617 127.965 5
      vertex 115.032 130.587 0
    endloop
  endfacet
  facet normal -0.987707 0.156318 0
    outer loop
      vertex 115.032 130.587 0
      vertex 114.617 127.965 5
      vertex 115.032 130.587 5
    endloop
  endfacet
  facet normal -0.999999 0.00150702 0
    outer loop
      vertex 114.607 120.95 0
      vertex 114.607 120.95 5
      vertex 114.617 127.965 0
    endloop
  endfacet
  facet normal -0.999999 0.00150702 0
    outer loop
      vertex 114.617 127.965 0
      vertex 114.607 120.95 5
      vertex 114.617 127.965 5
    endloop
  endfacet
  facet normal 0 1 0
    outer loop
      vertex 25.373 120.95 0
      vertex 25.373 120.95 5
      vertex 114.607 120.95 0
    endloop
  endfacet
  facet normal 0 1 0
    outer loop
      vertex 114.607 120.95 0
      vertex 25.373 120.95 5
      vertex 114.607 120.95 5
    endloop
  endfacet
  facet normal 0.999999 -0.00169964 0
    outer loop
      vertex 25.373 120.95 5
      vertex 25.373 120.95 0
      vertex 25.3827 126.635 0
    endloop
  endfacet
  facet normal 0.999999 -0.00169964 0
    outer loop
      vertex 25.3827 126.635 5
      vertex 25.373 120.95 5
      vertex 25.3827 126.635 0
    endloop
  endfacet
  facet normal 0.998637 0.0521954 0
    outer loop
      vertex 25.3827 126.635 0
      vertex 25.2441 129.287 0
      vertex 25.2441 129.287 5
    endloop
  endfacet
  facet normal 0.998637 0.0521954 0
    outer loop
      vertex 25.3827 126.635 5
      vertex 25.3827 126.635 0
      vertex 25.2441 129.287 5
    endloop
  endfacet
  facet normal 0.965898 0.258922 0
    outer loop
      vertex 25.2441 129.287 0
      vertex 24.5568 131.851 0
      vertex 24.5568 131.851 5
    endloop
  endfacet
  facet normal 0.965898 0.258922 0
    outer loop
      vertex 25.2441 129.287 5
      vertex 25.2441 129.287 0
      vertex 24.5568 131.851 5
    endloop
  endfacet
  facet normal 0.890885 0.454229 0
    outer loop
      vertex 24.5568 131.851 0
      vertex 23.3504 134.217 0
      vertex 23.3504 134.217 5
    endloop
  endfacet
  facet normal 0.890885 0.454229 0
    outer loop
      vertex 24.5568 131.851 5
      vertex 24.5568 131.851 0
      vertex 23.3504 134.217 5
    endloop
  endfacet
  facet normal 0.77727 0.629168 0
    outer loop
      vertex 23.3504 134.217 0
      vertex 21.6803 136.28 0
      vertex 21.6803 136.28 5
    endloop
  endfacet
  facet normal 0.77727 0.629168 0
    outer loop
      vertex 23.3504 134.217 5
      vertex 23.3504 134.217 0
      vertex 21.6803 136.28 5
    endloop
  endfacet
  facet normal 0.629168 0.77727 0
    outer loop
      vertex 19.6169 137.95 0
      vertex 19.6169 137.95 5
      vertex 21.6803 136.28 0
    endloop
  endfacet
  facet normal 0.629168 0.77727 0
    outer loop
      vertex 21.6803 136.28 0
      vertex 19.6169 137.95 5
      vertex 21.6803 136.28 5
    endloop
  endfacet
  facet normal 0.454229 0.890885 0
    outer loop
      vertex 17.2509 139.157 0
      vertex 17.2509 139.157 5
      vertex 19.6169 137.95 0
    endloop
  endfacet
  facet normal 0.454229 0.890885 0
    outer loop
      vertex 19.6169 137.95 0
      vertex 17.2509 139.157 5
      vertex 19.6169 137.95 5
    endloop
  endfacet
  facet normal 0.258922 0.965898 0
    outer loop
      vertex 14.687 139.844 0
      vertex 14.687 139.844 5
      vertex 17.2509 139.157 0
    endloop
  endfacet
  facet normal 0.258922 0.965898 0
    outer loop
      vertex 17.2509 139.157 0
      vertex 14.687 139.844 5
      vertex 17.2509 139.157 5
    endloop
  endfacet
  facet normal 0.0521954 0.998637 0
    outer loop
      vertex 12.0353 139.983 0
      vertex 12.0353 139.983 5
      vertex 14.687 139.844 0
    endloop
  endfacet
  facet normal 0.0521954 0.998637 0
    outer loop
      vertex 14.687 139.844 0
      vertex 12.0353 139.983 5
      vertex 14.687 139.844 5
    endloop
  endfacet
  facet normal -0.156318 0.987707 0
    outer loop
      vertex 9.41266 139.568 0
      vertex 9.41266 139.568 5
      vertex 12.0353 139.983 0
    endloop
  endfacet
  facet normal -0.156318 0.987707 0
    outer loop
      vertex 12.0353 139.983 0
      vertex 9.41266 139.568 5
      vertex 12.0353 139.983 5
    endloop
  endfacet
  facet normal -0.358586 0.933497 0
    outer loop
      vertex 6.93496 138.616 0
      vertex 6.93496 138.616 5
      vertex 9.41266 139.568 0
    endloop
  endfacet
  facet normal -0.358586 0.933497 0
    outer loop
      vertex 9.41266 139.568 0
      vertex 6.93496 138.616 5
      vertex 9.41266 139.568 5
    endloop
  endfacet
  facet normal -0.544642 0.838669 0
    outer loop
      vertex 4.70828 137.17 0
      vertex 4.70828 137.17 5
      vertex 6.93496 138.616 0
    endloop
  endfacet
  facet normal -0.544642 0.838669 0
    outer loop
      vertex 6.93496 138.616 0
      vertex 4.70828 137.17 5
      vertex 6.93496 138.616 5
    endloop
  endfacet
  facet normal -0.707107 0.707107 0
    outer loop
      vertex 2.8302 135.292 0
      vertex 2.8302 135.292 5
      vertex 4.70828 137.17 0
    endloop
  endfacet
  facet normal -0.707107 0.707107 0
    outer loop
      vertex 4.70828 137.17 0
      vertex 2.8302 135.292 5
      vertex 4.70828 137.17 5
    endloop
  endfacet
  facet normal -0.838669 0.544642 0
    outer loop
      vertex 1.38417 133.065 0
      vertex 1.38417 133.065 5
      vertex 2.8302 135.292 0
    endloop
  endfacet
  facet normal -0.838669 0.544642 0
    outer loop
      vertex 2.8302 135.292 0
      vertex 1.38417 133.065 5
      vertex 2.8302 135.292 5
    endloop
  endfacet
  facet normal -0.933497 0.358586 0
    outer loop
      vertex 0.432404 130.587 0
      vertex 0.432404 130.587 5
      vertex 1.38417 133.065 0
    endloop
  endfacet
  facet normal -0.933497 0.358586 0
    outer loop
      vertex 1.38417 133.065 0
      vertex 0.432404 130.587 5
      vertex 1.38417 133.065 5
    endloop
  endfacet
  facet normal -0.987707 0.156318 0
    outer loop
      vertex 0.0173328 127.965 0
      vertex 0.0173328 127.965 5
      vertex 0.432404 130.587 0
    endloop
  endfacet
  facet normal -0.987707 0.156318 0
    outer loop
      vertex 0.432404 130.587 0
      vertex 0.0173328 127.965 5
      vertex 0.432404 130.587 5
    endloop
  endfacet
  facet normal -0.999999 0.00150702 0
    outer loop
      vertex 0.00676149 120.95 0
      vertex 0.00676149 120.95 5
      vertex 0.0173328 127.965 0
    endloop
  endfacet
  facet normal -0.999999 0.00150702 0
    outer loop
      vertex 0.0173328 127.965 0
      vertex 0.00676149 120.95 5
      vertex 0.0173328 127.965 5
    endloop
  endfacet
  facet normal 0 1 0
    outer loop
      vertex 0 120.95 0
      vertex 0 120.95 5
      vertex 0.00676149 120.95 0
    endloop
  endfacet
  facet normal 0 1 0
    outer loop
      vertex 0.00676149 120.95 0
      vertex 0 120.95 5
      vertex 0.00676149 120.95 5
    endloop
  endfacet
  facet normal -1 0 0
    outer loop
      vertex 0 116.463 0
      vertex 0 116.463 5
      vertex 0 120.95 0
    endloop
  endfacet
  facet normal -1 0 0
    outer loop
      vertex 0 120.95 0
      vertex 0 116.463 5
      vertex 0 120.95 5
    endloop
  endfacet
  facet normal 0.987659 -0.156619 0
    outer loop
      vertex 6.35867 127.632 5
      vertex 6.35867 127.632 0
      vertex 6.56656 128.943 0
    endloop
  endfacet
  facet normal 0.987659 -0.156619 0
    outer loop
      vertex 6.56656 128.943 5
      vertex 6.35867 127.632 5
      vertex 6.56656 128.943 0
    endloop
  endfacet
  facet normal 0.998609 0.0527266 0
    outer loop
      vertex 6.42867 126.307 0
      vertex 6.35867 127.632 0
      vertex 6.35867 127.632 5
    endloop
  endfacet
  facet normal 0.998609 0.0527266 0
    outer loop
      vertex 6.42867 126.307 5
      vertex 6.42867 126.307 0
      vertex 6.35867 127.632 5
    endloop
  endfacet
  facet normal 0.933565 -0.358408 0
    outer loop
      vertex 6.56656 128.943 5
      vertex 6.56656 128.943 0
      vertex 7.04244 130.183 0
    endloop
  endfacet
  facet normal 0.933565 -0.358408 0
    outer loop
      vertex 7.04244 130.183 5
      vertex 6.56656 128.943 5
      vertex 7.04244 130.183 0
    endloop
  endfacet
  facet normal 0.838711 -0.544576 0
    outer loop
      vertex 7.04244 130.183 5
      vertex 7.04244 130.183 0
      vertex 7.7651 131.296 0
    endloop
  endfacet
  facet normal 0.838711 -0.544576 0
    outer loop
      vertex 7.7651 131.296 5
      vertex 7.04244 130.183 5
      vertex 7.7651 131.296 0
    endloop
  endfacet
  facet normal 0.707107 -0.707107 0
    outer loop
      vertex 7.7651 131.296 5
      vertex 7.7651 131.296 0
      vertex 8.70414 132.235 0
    endloop
  endfacet
  facet normal 0.707107 -0.707107 0
    outer loop
      vertex 8.70414 132.235 5
      vertex 7.7651 131.296 5
      vertex 8.70414 132.235 0
    endloop
  endfacet
  facet normal 0.544576 -0.838711 0
    outer loop
      vertex 8.70414 132.235 5
      vertex 8.70414 132.235 0
      vertex 9.81713 132.958 0
    endloop
  endfacet
  facet normal 0.544576 -0.838711 0
    outer loop
      vertex 9.81713 132.958 5
      vertex 8.70414 132.235 5
      vertex 9.81713 132.958 0
    endloop
  endfacet
  facet normal 0.358408 -0.933565 0
    outer loop
      vertex 9.81713 132.958 5
      vertex 9.81713 132.958 0
      vertex 11.0567 133.433 0
    endloop
  endfacet
  facet normal 0.358408 -0.933565 0
    outer loop
      vertex 11.0567 133.433 5
      vertex 9.81713 132.958 5
      vertex 11.0567 133.433 0
    endloop
  endfacet
  facet normal 0.156619 -0.987659 0
    outer loop
      vertex 11.0567 133.433 5
      vertex 11.0567 133.433 0
      vertex 12.3677 133.641 0
    endloop
  endfacet
  facet normal 0.156619 -0.987659 0
    outer loop
      vertex 12.3677 133.641 5
      vertex 11.0567 133.433 5
      vertex 12.3677 133.641 0
    endloop
  endfacet
  facet normal -0.0527266 -0.998609 0
    outer loop
      vertex 12.3677 133.641 5
      vertex 12.3677 133.641 0
      vertex 13.6935 133.571 0
    endloop
  endfacet
  facet normal -0.0527266 -0.998609 0
    outer loop
      vertex 13.6935 133.571 5
      vertex 12.3677 133.641 5
      vertex 13.6935 133.571 0
    endloop
  endfacet
  facet normal -0.258425 -0.966031 0
    outer loop
      vertex 13.6935 133.571 5
      vertex 13.6935 133.571 0
      vertex 14.9755 133.228 0
    endloop
  endfacet
  facet normal -0.258425 -0.966031 0
    outer loop
      vertex 14.9755 133.228 5
      vertex 13.6935 133.571 5
      vertex 14.9755 133.228 0
    endloop
  endfacet
  facet normal -0.454229 -0.890885 0
    outer loop
      vertex 14.9755 133.228 5
      vertex 14.9755 133.228 0
      vertex 16.1585 132.625 0
    endloop
  endfacet
  facet normal -0.454229 -0.890885 0
    outer loop
      vertex 16.1585 132.625 5
      vertex 14.9755 133.228 5
      vertex 16.1585 132.625 0
    endloop
  endfacet
  facet normal -0.629168 -0.77727 0
    outer loop
      vertex 16.1585 132.625 5
      vertex 16.1585 132.625 0
      vertex 17.1901 131.79 0
    endloop
  endfacet
  facet normal -0.629168 -0.77727 0
    outer loop
      vertex 17.1901 131.79 5
      vertex 16.1585 132.625 5
      vertex 17.1901 131.79 0
    endloop
  endfacet
  facet normal -0.77727 -0.629168 0
    outer loop
      vertex 17.1901 131.79 0
      vertex 18.0252 130.758 0
      vertex 17.1901 131.79 5
    endloop
  endfacet
  facet normal -0.77727 -0.629168 0
    outer loop
      vertex 17.1901 131.79 5
      vertex 18.0252 130.758 0
      vertex 18.0252 130.758 5
    endloop
  endfacet
  facet normal -0.890885 -0.454229 0
    outer loop
      vertex 18.0252 130.758 0
      vertex 18.6284 129.575 0
      vertex 18.0252 130.758 5
    endloop
  endfacet
  facet normal -0.890885 -0.454229 0
    outer loop
      vertex 18.0252 130.758 5
      vertex 18.6284 129.575 0
      vertex 18.6284 129.575 5
    endloop
  endfacet
  facet normal -0.966031 -0.258425 0
    outer loop
      vertex 18.6284 129.575 0
      vertex 18.9713 128.293 0
      vertex 18.6284 129.575 5
    endloop
  endfacet
  facet normal -0.966031 -0.258425 0
    outer loop
      vertex 18.6284 129.575 5
      vertex 18.9713 128.293 0
      vertex 18.9713 128.293 5
    endloop
  endfacet
  facet normal -0.998609 -0.0527266 0
    outer loop
      vertex 18.9713 128.293 0
      vertex 19.0413 126.968 0
      vertex 18.9713 128.293 5
    endloop
  endfacet
  facet normal -0.998609 -0.0527266 0
    outer loop
      vertex 18.9713 128.293 5
      vertex 19.0413 126.968 0
      vertex 19.0413 126.968 5
    endloop
  endfacet
  facet normal -0.987659 0.156619 0
    outer loop
      vertex 18.8334 125.657 0
      vertex 18.8334 125.657 5
      vertex 19.0413 126.968 0
    endloop
  endfacet
  facet normal -0.987659 0.156619 0
    outer loop
      vertex 19.0413 126.968 0
      vertex 18.8334 125.657 5
      vertex 19.0413 126.968 5
    endloop
  endfacet
  facet normal -0.933565 0.358408 0
    outer loop
      vertex 18.3576 124.417 0
      vertex 18.3576 124.417 5
      vertex 18.8334 125.657 0
    endloop
  endfacet
  facet normal -0.933565 0.358408 0
    outer loop
      vertex 18.8334 125.657 0
      vertex 18.3576 124.417 5
      vertex 18.8334 125.657 5
    endloop
  endfacet
  facet normal -0.838711 0.544576 0
    outer loop
      vertex 17.6349 123.304 0
      vertex 17.6349 123.304 5
      vertex 18.3576 124.417 0
    endloop
  endfacet
  facet normal -0.838711 0.544576 0
    outer loop
      vertex 18.3576 124.417 0
      vertex 17.6349 123.304 5
      vertex 18.3576 124.417 5
    endloop
  endfacet
  facet normal -0.707107 0.707107 0
    outer loop
      vertex 16.6959 122.365 0
      vertex 16.6959 122.365 5
      vertex 17.6349 123.304 0
    endloop
  endfacet
  facet normal -0.707107 0.707107 0
    outer loop
      vertex 17.6349 123.304 0
      vertex 16.6959 122.365 5
      vertex 17.6349 123.304 5
    endloop
  endfacet
  facet normal -0.544576 0.838711 0
    outer loop
      vertex 15.5829 121.642 0
      vertex 15.5829 121.642 5
      vertex 16.6959 122.365 0
    endloop
  endfacet
  facet normal -0.544576 0.838711 0
    outer loop
      vertex 16.6959 122.365 0
      vertex 15.5829 121.642 5
      vertex 16.6959 122.365 5
    endloop
  endfacet
  facet normal -0.358408 0.933565 0
    outer loop
      vertex 14.3433 121.167 0
      vertex 14.3433 121.167 5
      vertex 15.5829 121.642 0
    endloop
  endfacet
  facet normal -0.358408 0.933565 0
    outer loop
      vertex 15.5829 121.642 0
      vertex 14.3433 121.167 5
      vertex 15.5829 121.642 5
    endloop
  endfacet
  facet normal -0.156619 0.987659 0
    outer loop
      vertex 13.0323 120.959 0
      vertex 13.0323 120.959 5
      vertex 14.3433 121.167 0
    endloop
  endfacet
  facet normal -0.156619 0.987659 0
    outer loop
      vertex 14.3433 121.167 0
      vertex 13.0323 120.959 5
      vertex 14.3433 121.167 5
    endloop
  endfacet
  facet normal 0.0527266 0.998609 0
    outer loop
      vertex 11.7065 121.029 0
      vertex 11.7065 121.029 5
      vertex 13.0323 120.959 0
    endloop
  endfacet
  facet normal 0.0527266 0.998609 0
    outer loop
      vertex 13.0323 120.959 0
      vertex 11.7065 121.029 5
      vertex 13.0323 120.959 5
    endloop
  endfacet
  facet normal 0.258425 0.966031 0
    outer loop
      vertex 10.4245 121.372 0
      vertex 10.4245 121.372 5
      vertex 11.7065 121.029 0
    endloop
  endfacet
  facet normal 0.258425 0.966031 0
    outer loop
      vertex 11.7065 121.029 0
      vertex 10.4245 121.372 5
      vertex 11.7065 121.029 5
    endloop
  endfacet
  facet normal 0.454229 0.890885 0
    outer loop
      vertex 9.24154 121.975 0
      vertex 9.24154 121.975 5
      vertex 10.4245 121.372 0
    endloop
  endfacet
  facet normal 0.454229 0.890885 0
    outer loop
      vertex 10.4245 121.372 0
      vertex 9.24154 121.975 5
      vertex 10.4245 121.372 5
    endloop
  endfacet
  facet normal 0.629168 0.77727 0
    outer loop
      vertex 8.20987 122.81 0
      vertex 8.20987 122.81 5
      vertex 9.24154 121.975 0
    endloop
  endfacet
  facet normal 0.629168 0.77727 0
    outer loop
      vertex 9.24154 121.975 0
      vertex 8.20987 122.81 5
      vertex 9.24154 121.975 5
    endloop
  endfacet
  facet normal 0.77727 0.629168 0
    outer loop
      vertex 8.20987 122.81 0
      vertex 7.37478 123.842 0
      vertex 7.37478 123.842 5
    endloop
  endfacet
  facet normal 0.77727 0.629168 0
    outer loop
      vertex 8.20987 122.81 5
      vertex 8.20987 122.81 0
      vertex 7.37478 123.842 5
    endloop
  endfacet
  facet normal 0.890885 0.454229 0
    outer loop
      vertex 7.37478 123.842 0
      vertex 6.77162 125.025 0
      vertex 6.77162 125.025 5
    endloop
  endfacet
  facet normal 0.890885 0.454229 0
    outer loop
      vertex 7.37478 123.842 5
      vertex 7.37478 123.842 0
      vertex 6.77162 125.025 5
    endloop
  endfacet
  facet normal 0.966031 0.258425 0
    outer loop
      vertex 6.77162 125.025 0
      vertex 6.42867 126.307 0
      vertex 6.42867 126.307 5
    endloop
  endfacet
  facet normal 0.966031 0.258425 0
    outer loop
      vertex 6.77162 125.025 5
      vertex 6.77162 125.025 0
      vertex 6.42867 126.307 5
    endloop
  endfacet
  facet normal 0.987659 -0.156619 0
    outer loop
      vertex 120.959 127.632 5
      vertex 120.959 127.632 0
      vertex 121.167 128.943 0
    endloop
  endfacet
  facet normal 0.987659 -0.156619 0
    outer loop
      vertex 121.167 128.943 5
      vertex 120.959 127.632 5
      vertex 121.167 128.943 0
    endloop
  endfacet
  facet normal 0.998609 0.0527266 0
    outer loop
      vertex 121.029 126.307 0
      vertex 120.959 127.632 0
      vertex 120.959 127.632 5
    endloop
  endfacet
  facet normal 0.998609 0.0527266 0
    outer loop
      vertex 121.029 126.307 5
      vertex 121.029 126.307 0
      vertex 120.959 127.632 5
    endloop
  endfacet
  facet normal 0.933565 -0.358408 0
    outer loop
      vertex 121.167 128.943 5
      vertex 121.167 128.943 0
      vertex 121.642 130.183 0
    endloop
  endfacet
  facet normal 0.933565 -0.358408 0
    outer loop
      vertex 121.642 130.183 5
      vertex 121.167 128.943 5
      vertex 121.642 130.183 0
    endloop
  endfacet
  facet normal 0.838711 -0.544576 0
    outer loop
      vertex 121.642 130.183 5
      vertex 121.642 130.183 0
      vertex 122.365 131.296 0
    endloop
  endfacet
  facet normal 0.838711 -0.544576 0
    outer loop
      vertex 122.365 131.296 5
      vertex 121.642 130.183 5
      vertex 122.365 131.296 0
    endloop
  endfacet
  facet normal 0.707107 -0.707107 0
    outer loop
      vertex 122.365 131.296 5
      vertex 122.365 131.296 0
      vertex 123.304 132.235 0
    endloop
  endfacet
  facet normal 0.707107 -0.707107 0
    outer loop
      vertex 123.304 132.235 5
      vertex 122.365 131.296 5
      vertex 123.304 132.235 0
    endloop
  endfacet
  facet normal 0.544576 -0.838711 0
    outer loop
      vertex 123.304 132.235 5
      vertex 123.304 132.235 0
      vertex 124.417 132.958 0
    endloop
  endfacet
  facet normal 0.544576 -0.838711 0
    outer loop
      vertex 124.417 132.958 5
      vertex 123.304 132.235 5
      vertex 124.417 132.958 0
    endloop
  endfacet
  facet normal 0.358408 -0.933565 0
    outer loop
      vertex 124.417 132.958 5
      vertex 124.417 132.958 0
      vertex 125.657 133.433 0
    endloop
  endfacet
  facet normal 0.358408 -0.933565 0
    outer loop
      vertex 125.657 133.433 5
      vertex 124.417 132.958 5
      vertex 125.657 133.433 0
    endloop
  endfacet
  facet normal 0.156619 -0.987659 0
    outer loop
      vertex 125.657 133.433 5
      vertex 125.657 133.433 0
      vertex 126.968 133.641 0
    endloop
  endfacet
  facet normal 0.156619 -0.987659 0
    outer loop
      vertex 126.968 133.641 5
      vertex 125.657 133.433 5
      vertex 126.968 133.641 0
    endloop
  endfacet
  facet normal -0.0527266 -0.998609 0
    outer loop
      vertex 126.968 133.641 5
      vertex 126.968 133.641 0
      vertex 128.293 133.571 0
    endloop
  endfacet
  facet normal -0.0527266 -0.998609 0
    outer loop
      vertex 128.293 133.571 5
      vertex 126.968 133.641 5
      vertex 128.293 133.571 0
    endloop
  endfacet
  facet normal -0.258425 -0.966031 0
    outer loop
      vertex 128.293 133.571 5
      vertex 128.293 133.571 0
      vertex 129.575 133.228 0
    endloop
  endfacet
  facet normal -0.258425 -0.966031 0
    outer loop
      vertex 129.575 133.228 5
      vertex 128.293 133.571 5
      vertex 129.575 133.228 0
    endloop
  endfacet
  facet normal -0.454229 -0.890885 0
    outer loop
      vertex 129.575 133.228 5
      vertex 129.575 133.228 0
      vertex 130.758 132.625 0
    endloop
  endfacet
  facet normal -0.454229 -0.890885 0
    outer loop
      vertex 130.758 132.625 5
      vertex 129.575 133.228 5
      vertex 130.758 132.625 0
    endloop
  endfacet
  facet normal -0.629168 -0.77727 0
    outer loop
      vertex 130.758 132.625 5
      vertex 130.758 132.625 0
      vertex 131.79 131.79 0
    endloop
  endfacet
  facet normal -0.629168 -0.77727 0
    outer loop
      vertex 131.79 131.79 5
      vertex 130.758 132.625 5
      vertex 131.79 131.79 0
    endloop
  endfacet
  facet normal -0.77727 -0.629168 0
    outer loop
      vertex 131.79 131.79 0
      vertex 132.625 130.758 0
      vertex 131.79 131.79 5
    endloop
  endfacet
  facet normal -0.77727 -0.629168 0
    outer loop
      vertex 131.79 131.79 5
      vertex 132.625 130.758 0
      vertex 132.625 130.758 5
    endloop
  endfacet
  facet normal -0.890885 -0.454229 0
    outer loop
      vertex 132.625 130.758 0
      vertex 133.228 129.575 0
      vertex 132.625 130.758 5
    endloop
  endfacet
  facet normal -0.890885 -0.454229 0
    outer loop
      vertex 132.625 130.758 5
      vertex 133.228 129.575 0
      vertex 133.228 129.575 5
    endloop
  endfacet
  facet normal -0.966031 -0.258425 0
    outer loop
      vertex 133.228 129.575 0
      vertex 133.571 128.293 0
      vertex 133.228 129.575 5
    endloop
  endfacet
  facet normal -0.966031 -0.258425 0
    outer loop
      vertex 133.228 129.575 5
      vertex 133.571 128.293 0
      vertex 133.571 128.293 5
    endloop
  endfacet
  facet normal -0.998609 -0.0527266 0
    outer loop
      vertex 133.571 128.293 0
      vertex 133.641 126.968 0
      vertex 133.571 128.293 5
    endloop
  endfacet
  facet normal -0.998609 -0.0527266 0
    outer loop
      vertex 133.571 128.293 5
      vertex 133.641 126.968 0
      vertex 133.641 126.968 5
    endloop
  endfacet
  facet normal -0.987659 0.156619 0
    outer loop
      vertex 133.433 125.657 0
      vertex 133.433 125.657 5
      vertex 133.641 126.968 0
    endloop
  endfacet
  facet normal -0.987659 0.156619 0
    outer loop
      vertex 133.641 126.968 0
      vertex 133.433 125.657 5
      vertex 133.641 126.968 5
    endloop
  endfacet
  facet normal -0.933565 0.358408 0
    outer loop
      vertex 132.958 124.417 0
      vertex 132.958 124.417 5
      vertex 133.433 125.657 0
    endloop
  endfacet
  facet normal -0.933565 0.358408 0
    outer loop
      vertex 133.433 125.657 0
      vertex 132.958 124.417 5
      vertex 133.433 125.657 5
    endloop
  endfacet
  facet normal -0.838711 0.544576 0
    outer loop
      vertex 132.235 123.304 0
      vertex 132.235 123.304 5
      vertex 132.958 124.417 0
    endloop
  endfacet
  facet normal -0.838711 0.544576 0
    outer loop
      vertex 132.958 124.417 0
      vertex 132.235 123.304 5
      vertex 132.958 124.417 5
    endloop
  endfacet
  facet normal -0.707107 0.707107 0
    outer loop
      vertex 131.296 122.365 0
      vertex 131.296 122.365 5
      vertex 132.235 123.304 0
    endloop
  endfacet
  facet normal -0.707107 0.707107 0
    outer loop
      vertex 132.235 123.304 0
      vertex 131.296 122.365 5
      vertex 132.235 123.304 5
    endloop
  endfacet
  facet normal -0.544576 0.838711 0
    outer loop
      vertex 130.183 121.642 0
      vertex 130.183 121.642 5
      vertex 131.296 122.365 0
    endloop
  endfacet
  facet normal -0.544576 0.838711 0
    outer loop
      vertex 131.296 122.365 0
      vertex 130.183 121.642 5
      vertex 131.296 122.365 5
    endloop
  endfacet
  facet normal -0.358408 0.933565 0
    outer loop
      vertex 128.943 121.167 0
      vertex 128.943 121.167 5
      vertex 130.183 121.642 0
    endloop
  endfacet
  facet normal -0.358408 0.933565 0
    outer loop
      vertex 130.183 121.642 0
      vertex 128.943 121.167 5
      vertex 130.183 121.642 5
    endloop
  endfacet
  facet normal -0.156619 0.987659 0
    outer loop
      vertex 127.632 120.959 0
      vertex 127.632 120.959 5
      vertex 128.943 121.167 0
    endloop
  endfacet
  facet normal -0.156619 0.987659 0
    outer loop
      vertex 128.943 121.167 0
      vertex 127.632 120.959 5
      vertex 128.943 121.167 5
    endloop
  endfacet
  facet normal 0.0527266 0.998609 0
    outer loop
      vertex 126.307 121.029 0
      vertex 126.307 121.029 5
      vertex 127.632 120.959 0
    endloop
  endfacet
  facet normal 0.0527266 0.998609 0
    outer loop
      vertex 127.632 120.959 0
      vertex 126.307 121.029 5
      vertex 127.632 120.959 5
    endloop
  endfacet
  facet normal 0.258425 0.966031 0
    outer loop
      vertex 125.025 121.372 0
      vertex 125.025 121.372 5
      vertex 126.307 121.029 0
    endloop
  endfacet
  facet normal 0.258425 0.966031 0
    outer loop
      vertex 126.307 121.029 0
      vertex 125.025 121.372 5
      vertex 126.307 121.029 5
    endloop
  endfacet
  facet normal 0.454229 0.890885 0
    outer loop
      vertex 123.842 121.975 0
      vertex 123.842 121.975 5
      vertex 125.025 121.372 0
    endloop
  endfacet
  facet normal 0.454229 0.890885 0
    outer loop
      vertex 125.025 121.372 0
      vertex 123.842 121.975 5
      vertex 125.025 121.372 5
    endloop
  endfacet
  facet normal 0.629168 0.77727 0
    outer loop
      vertex 122.81 122.81 0
      vertex 122.81 122.81 5
      vertex 123.842 121.975 0
    endloop
  endfacet
  facet normal 0.629168 0.77727 0
    outer loop
      vertex 123.842 121.975 0
      vertex 122.81 122.81 5
      vertex 123.842 121.975 5
    endloop
  endfacet
  facet normal 0.77727 0.629168 0
    outer loop
      vertex 122.81 122.81 0
      vertex 121.975 123.842 0
      vertex 121.975 123.842 5
    endloop
  endfacet
  facet normal 0.77727 0.629168 0
    outer loop
      vertex 122.81 122.81 5
      vertex 122.81 122.81 0
      vertex 121.975 123.842 5
    endloop
  endfacet
  facet normal 0.890885 0.454229 0
    outer loop
      vertex 121.975 123.842 0
      vertex 121.372 125.025 0
      vertex 121.372 125.025 5
    endloop
  endfacet
  facet normal 0.890885 0.454229 0
    outer loop
      vertex 121.975 123.842 5
      vertex 121.975 123.842 0
      vertex 121.372 125.025 5
    endloop
  endfacet
  facet normal 0.966031 0.258425 0
    outer loop
      vertex 121.372 125.025 0
      vertex 121.029 126.307 0
      vertex 121.029 126.307 5
    endloop
  endfacet
  facet normal 0.966031 0.258425 0
    outer loop
      vertex 121.372 125.025 5
      vertex 121.372 125.025 0
      vertex 121.029 126.307 5
    endloop
  endfacet
endsolid OpenSCAD_Model
