999
Inkscape export via Big Blue Saws DXF Export" (http://www.bigbluesaw.com/saw/big-blue-saw-blog/general-updates/big-blue-saws-dxf-export-for-inkscape.html)
  0
SECTION
  2
HEADER
  9
$ACADVER
  1
AC1014
  9
$HANDSEED
  5
FFFF
  0
$INSUNITS
 70
 1
 9
ENDSEC
  0
SECTION
  2
TABLES
  0
TABLE
  2
VPORT
  5
8
330
0
100
AcDbSymbolTable
 70
     4
  0
VPORT
  5
2E
330
8
100
AcDbSymbolTableRecord
100
AcDbViewportTableRecord
  2
*ACTIVE
 70
     0
 10
0.0
 20
0.0
 11
1.0
 21
1.0
 12
4.25
 22
5.5
 13
0.0
 23
0.0
 14
10.0
 24
10.0
 15
10.0
 25
10.0
 16
0.0
 26
0.0
 36
1.0
 17
0.0
 27
0.0
 37
0.0
 40
11
 41
1.24
 42
50.0
 43
0.0
 44
0.0
 50
0.0
 51
0.0
 71
     0
 72
   100
 73
     1
 74
     3
 75
     0
 76
     0
 77
     0
 78
     0
  0
ENDTAB
  0
TABLE
  2
LTYPE
  5
5
330
0
100
AcDbSymbolTable
 70
     1
  0
LTYPE
  5
14
330
5
100
AcDbSymbolTableRecord
100
AcDbLinetypeTableRecord
  2
BYBLOCK
 70
     0
  3

 72
    65
 73
     0
 40
0.0
  0
LTYPE
  5
15
330
5
100
AcDbSymbolTableRecord
100
AcDbLinetypeTableRecord
  2
BYLAYER
 70
     0
  3

 72
    65
 73
     0
 40
0.0
  0
LTYPE
  5
16
330
5
100
AcDbSymbolTableRecord
100
AcDbLinetypeTableRecord
  2
CONTINUOUS
 70
     0
  3
Solid line
 72
    65
 73
     0
 40
0.0
  0
ENDTAB
  0
TABLE
  2
STYLE
  5
3
330
0
100
AcDbSymbolTable
 70
     1
  0
STYLE
  5
11
330
3
100
AcDbSymbolTableRecord
100
AcDbTextStyleTableRecord
  2
STANDARD
 70
     0
 40
0.0
 41
1.0
 50
0.0
 71
     0
 42
2.5
  3
txt
  4

  0
ENDTAB
  0
TABLE
  2
VIEW
  5
6
330
0
100
AcDbSymbolTable
 70
     0
  0
ENDTAB
  0
TABLE
  2
UCS
  5
7
330
0
100
AcDbSymbolTable
 70
     0
  0
ENDTAB
  0
TABLE
  2
APPID
  5
9
330
0
100
AcDbSymbolTable
 70
     2
  0
APPID
  5
12
330
9
100
AcDbSymbolTableRecord
100
AcDbRegAppTableRecord
  2
ACAD
 70
     0
  0
ENDTAB
  0
TABLE
  2
DIMSTYLE
  5
A
330
0
100
AcDbSymbolTable
 70
     1
  0
DIMSTYLE
105
27
330
A
100
AcDbSymbolTableRecord
100
AcDbDimStyleTableRecord
  2
ISO-25
 70
     0
  3

  4

  5

  6

  7

 40
1.0
 41
2.5
 42
0.625
 43
3.75
 44
1.25
 45
0.0
 46
0.0
 47
0.0
 48
0.0
140
2.5
141
2.5
142
0.0
143
0.03937007874016
144
1.0
145
0.0
146
1.0
147
0.625
 71
     0
 72
     0
 73
     0
 74
     0
 75
     0
 76
     0
 77
     1
 78
     8
170
     0
171
     3
172
     1
173
     0
174
     0
175
     0
176
     0
177
     0
178
     0
270
     2
271
     2
272
     2
273
     2
274
     3
340
11
275
     0
280
     0
281
     0
282
     0
283
     0
284
     8
285
     0
286
     0
287
     3
288
     0
  0
ENDTAB
  0
TABLE
  2
BLOCK_RECORD
  5
1
330
0
100
AcDbSymbolTable
 70
     1
  0
BLOCK_RECORD
  5
1F
330
1
100
AcDbSymbolTableRecord
100
AcDbBlockTableRecord
  2
*MODEL_SPACE
  0
BLOCK_RECORD
  5
1B
330
1
100
AcDbSymbolTableRecord
100
AcDbBlockTableRecord
  2
*PAPER_SPACE
  0
ENDTAB
0
TABLE
2
LAYER
5
2
330
0
100
AcDbSymbolTable
70
3
0
LAYER
5
10
330
2
100
AcDbSymbolTableRecord
100
AcDbLayerTableRecord
2
Dust
70
0
62
7
6
CONTINUOUS
0
LAYER
5
10
330
2
100
AcDbSymbolTableRecord
100
AcDbLayerTableRecord
2
Filaments
70
0
62
7
6
CONTINUOUS
0
LAYER
5
10
330
2
100
AcDbSymbolTableRecord
100
AcDbLayerTableRecord
2
Gasses_
70
0
62
7
6
CONTINUOUS
0
ENDTAB
0
ENDSEC
  0
SECTION
  2
BLOCKS
  0
BLOCK
  5
20
330
1F
100
AcDbEntity
  8
0
100
AcDbBlockBegin
  2
*MODEL_SPACE
 70
     0
 10
0.0
 20
0.0
 30
0.0
  3
*MODEL_SPACE
  1

  0
ENDBLK
  5
21
330
1F
100
AcDbEntity
  8
0
100
AcDbBlockEnd
  0
BLOCK
  5
1C
330
1B
100
AcDbEntity
 67
     1
  8
0
100
AcDbBlockBegin
  2
*PAPER_SPACE
  1

  0
ENDBLK
  5
1D
330
1B
100
AcDbEntity
 67
     1
  8
0
100
AcDbBlockEnd
  0
ENDSEC
  0
SECTION
  2
ENTITIES
0
LINE
8
Dust
62
3
5
100
100
AcDbEntity
100
AcDbLine
10
2.199561
20
-0.001263
30
0.0
11
2.354597
21
0.132824
31
0.0
0
LINE
8
Dust
62
3
5
101
100
AcDbEntity
100
AcDbLine
10
2.354597
20
0.132824
30
0.0
11
2.723990
21
0.192421
31
0.0
0
LINE
8
Dust
62
3
5
102
100
AcDbEntity
100
AcDbLine
10
2.723990
20
0.192421
30
0.0
11
2.780268
21
0.239720
31
0.0
0
LINE
8
Dust
62
3
5
103
100
AcDbEntity
100
AcDbLine
10
2.780268
20
0.239720
30
0.0
11
2.867722
21
0.326799
31
0.0
0
LINE
8
Dust
62
3
5
104
100
AcDbEntity
100
AcDbLine
10
2.867722
20
0.326799
30
0.0
11
2.661439
21
0.332211
31
0.0
0
LINE
8
Dust
62
3
5
105
100
AcDbEntity
100
AcDbLine
10
2.661439
20
0.332211
30
0.0
11
2.466998
21
0.330569
31
0.0
0
LINE
8
Dust
62
3
5
106
100
AcDbEntity
100
AcDbLine
10
2.466998
20
0.330569
30
0.0
11
2.439794
21
0.500634
31
0.0
0
LINE
8
Dust
62
3
5
107
100
AcDbEntity
100
AcDbLine
10
2.439794
20
0.500634
30
0.0
11
2.161100
21
0.495748
31
0.0
0
LINE
8
Dust
62
3
5
108
100
AcDbEntity
100
AcDbLine
10
2.161100
20
0.495748
30
0.0
11
1.663321
21
0.781837
31
0.0
0
LINE
8
Dust
62
3
5
109
100
AcDbEntity
100
AcDbLine
10
1.663321
20
0.781837
30
0.0
11
1.388142
21
0.918311
31
0.0
0
LINE
8
Dust
62
3
5
10a
100
AcDbEntity
100
AcDbLine
10
1.388142
20
0.918311
30
0.0
11
1.509730
21
1.164461
31
0.0
0
LINE
8
Dust
62
3
5
10b
100
AcDbEntity
100
AcDbLine
10
1.509730
20
1.164461
30
0.0
11
1.289720
21
0.972684
31
0.0
0
LINE
8
Dust
62
3
5
10c
100
AcDbEntity
100
AcDbLine
10
1.289720
20
0.972684
30
0.0
11
1.061029
21
1.079317
31
0.0
0
LINE
8
Dust
62
3
5
10d
100
AcDbEntity
100
AcDbLine
10
1.061029
20
1.079317
30
0.0
11
1.099177
21
1.166569
31
0.0
0
LINE
8
Dust
62
3
5
10e
100
AcDbEntity
100
AcDbLine
10
1.099177
20
1.166569
30
0.0
11
1.120171
21
1.218303
31
0.0
0
LINE
8
Dust
62
3
5
10f
100
AcDbEntity
100
AcDbLine
10
1.120171
20
1.218303
30
0.0
11
1.128516
21
1.284279
31
0.0
0
LINE
8
Dust
62
3
5
110
100
AcDbEntity
100
AcDbLine
10
1.128516
20
1.284279
30
0.0
11
0.828294
21
1.278323
31
0.0
0
LINE
8
Dust
62
3
5
111
100
AcDbEntity
100
AcDbLine
10
0.828294
20
1.278323
30
0.0
11
0.730389
21
1.332473
31
0.0
0
LINE
8
Dust
62
3
5
112
100
AcDbEntity
100
AcDbLine
10
0.730389
20
1.332473
30
0.0
11
0.613745
21
1.385855
31
0.0
0
LINE
8
Dust
62
3
5
113
100
AcDbEntity
100
AcDbLine
10
0.613745
20
1.385855
30
0.0
11
0.571021
21
1.625152
31
0.0
0
LINE
8
Dust
62
3
5
114
100
AcDbEntity
100
AcDbLine
10
0.571021
20
1.625152
30
0.0
11
0.740448
21
1.740785
31
0.0
0
LINE
8
Dust
62
3
5
115
100
AcDbEntity
100
AcDbLine
10
0.740448
20
1.740785
30
0.0
11
0.838838
21
1.815366
31
0.0
0
LINE
8
Dust
62
3
5
116
100
AcDbEntity
100
AcDbLine
10
0.838838
20
1.815366
30
0.0
11
0.899229
21
1.881381
31
0.0
0
LINE
8
Dust
62
3
5
117
100
AcDbEntity
100
AcDbLine
10
0.899229
20
1.881381
30
0.0
11
0.910938
21
2.135184
31
0.0
0
LINE
8
Dust
62
3
5
118
100
AcDbEntity
100
AcDbLine
10
0.910938
20
2.135184
30
0.0
11
0.991388
21
2.234764
31
0.0
0
LINE
8
Dust
62
3
5
119
100
AcDbEntity
100
AcDbLine
10
0.991388
20
2.234764
30
0.0
11
1.064242
21
2.323119
31
0.0
0
LINE
8
Dust
62
3
5
11a
100
AcDbEntity
100
AcDbLine
10
1.064242
20
2.323119
30
0.0
11
1.079830
21
2.362520
31
0.0
0
LINE
8
Dust
62
3
5
11b
100
AcDbEntity
100
AcDbLine
10
1.079830
20
2.362520
30
0.0
11
1.071928
21
2.398433
31
0.0
0
LINE
8
Dust
62
3
5
11c
100
AcDbEntity
100
AcDbLine
10
1.071928
20
2.398433
30
0.0
11
1.033341
21
2.430632
31
0.0
0
LINE
8
Dust
62
3
5
11d
100
AcDbEntity
100
AcDbLine
10
1.033341
20
2.430632
30
0.0
11
0.956872
21
2.458890
31
0.0
0
LINE
8
Dust
62
3
5
11e
100
AcDbEntity
100
AcDbLine
10
0.956872
20
2.458890
30
0.0
11
0.902813
21
2.476159
31
0.0
0
LINE
8
Dust
62
3
5
11f
100
AcDbEntity
100
AcDbLine
10
0.902813
20
2.476159
30
0.0
11
0.874029
21
2.505239
31
0.0
0
LINE
8
Dust
62
3
5
120
100
AcDbEntity
100
AcDbLine
10
0.874029
20
2.505239
30
0.0
11
0.865114
21
2.543107
31
0.0
0
LINE
8
Dust
62
3
5
121
100
AcDbEntity
100
AcDbLine
10
0.865114
20
2.543107
30
0.0
11
0.870665
21
2.586739
31
0.0
0
LINE
8
Dust
62
3
5
122
100
AcDbEntity
100
AcDbLine
10
0.870665
20
2.586739
30
0.0
11
0.929432
21
2.758454
31
0.0
0
LINE
8
Dust
62
3
5
123
100
AcDbEntity
100
AcDbLine
10
0.929432
20
2.758454
30
0.0
11
0.845839
21
2.779711
31
0.0
0
LINE
8
Dust
62
3
5
124
100
AcDbEntity
100
AcDbLine
10
0.845839
20
2.779711
30
0.0
11
0.718745
21
2.793005
31
0.0
0
LINE
8
Dust
62
3
5
125
100
AcDbEntity
100
AcDbLine
10
0.718745
20
2.793005
30
0.0
11
0.458456
21
2.753885
31
0.0
0
LINE
8
Dust
62
3
5
126
100
AcDbEntity
100
AcDbLine
10
0.458456
20
2.753885
30
0.0
11
0.207302
21
2.503623
31
0.0
0
LINE
8
Dust
62
3
5
127
100
AcDbEntity
100
AcDbLine
10
0.207302
20
2.503623
30
0.0
11
0.128416
21
2.279222
31
0.0
0
LINE
8
Dust
62
3
5
128
100
AcDbEntity
100
AcDbLine
10
0.128416
20
2.279222
30
0.0
11
0.088869
21
2.016418
31
0.0
0
LINE
8
Dust
62
3
5
129
100
AcDbEntity
100
AcDbLine
10
0.088869
20
2.016418
30
0.0
11
0.068627
21
1.870819
31
0.0
0
LINE
8
Dust
62
3
5
12a
100
AcDbEntity
100
AcDbLine
10
0.068627
20
1.870819
30
0.0
11
0.063472
21
1.724753
31
0.0
0
LINE
8
Dust
62
3
5
12b
100
AcDbEntity
100
AcDbLine
10
0.063472
20
1.724753
30
0.0
11
0.100057
21
1.621539
31
0.0
0
LINE
8
Dust
62
3
5
12c
100
AcDbEntity
100
AcDbLine
10
0.100057
20
1.621539
30
0.0
11
0.158362
21
1.525685
31
0.0
0
LINE
8
Dust
62
3
5
12d
100
AcDbEntity
100
AcDbLine
10
0.158362
20
1.525685
30
0.0
11
0.236551
21
1.371985
31
0.0
0
LINE
8
Dust
62
3
5
12e
100
AcDbEntity
100
AcDbLine
10
0.236551
20
1.371985
30
0.0
11
0.324470
21
1.269690
31
0.0
0
LINE
8
Dust
62
3
5
12f
100
AcDbEntity
100
AcDbLine
10
0.324470
20
1.269690
30
0.0
11
0.503440
21
1.116778
31
0.0
0
LINE
8
Dust
62
3
5
130
100
AcDbEntity
100
AcDbLine
10
0.503440
20
1.116778
30
0.0
11
0.755735
21
1.162546
31
0.0
0
LINE
8
Dust
62
3
5
131
100
AcDbEntity
100
AcDbLine
10
0.755735
20
1.162546
30
0.0
11
0.710405
21
0.641886
31
0.0
0
LINE
8
Dust
62
3
5
132
100
AcDbEntity
100
AcDbLine
10
0.710405
20
0.641886
30
0.0
11
0.903186
21
0.518085
31
0.0
0
LINE
8
Dust
62
3
5
133
100
AcDbEntity
100
AcDbLine
10
0.903186
20
0.518085
30
0.0
11
1.314984
21
0.339724
31
0.0
0
LINE
8
Dust
62
3
5
134
100
AcDbEntity
100
AcDbLine
10
1.314984
20
0.339724
30
0.0
11
1.730422
21
0.173412
31
0.0
0
LINE
8
Dust
62
3
5
135
100
AcDbEntity
100
AcDbLine
10
1.730422
20
0.173412
30
0.0
11
1.978093
21
0.150686
31
0.0
0
LINE
8
Dust
62
3
5
136
100
AcDbEntity
100
AcDbLine
10
1.978093
20
0.150686
30
0.0
11
2.199561
21
-0.001263
31
0.0
0
LINE
8
Dust
62
3
5
137
100
AcDbEntity
100
AcDbLine
10
2.199561
20
-0.001263
30
0.0
11
2.199561
21
-0.001263
31
0.0
0
LINE
8
Dust
62
3
5
138
100
AcDbEntity
100
AcDbLine
10
2.626265
20
0.349332
30
0.0
11
2.879313
21
0.352365
31
0.0
0
LINE
8
Dust
62
3
5
139
100
AcDbEntity
100
AcDbLine
10
2.879313
20
0.352365
30
0.0
11
2.933771
21
0.487280
31
0.0
0
LINE
8
Dust
62
3
5
13a
100
AcDbEntity
100
AcDbLine
10
2.933771
20
0.487280
30
0.0
11
3.056619
21
0.551923
31
0.0
0
LINE
8
Dust
62
3
5
13b
100
AcDbEntity
100
AcDbLine
10
3.056619
20
0.551923
30
0.0
11
3.134052
21
0.553451
31
0.0
0
LINE
8
Dust
62
3
5
13c
100
AcDbEntity
100
AcDbLine
10
3.134052
20
0.553451
30
0.0
11
3.425290
21
0.619918
31
0.0
0
LINE
8
Dust
62
3
5
13d
100
AcDbEntity
100
AcDbLine
10
3.425290
20
0.619918
30
0.0
11
3.566288
21
0.819847
31
0.0
0
LINE
8
Dust
62
3
5
13e
100
AcDbEntity
100
AcDbLine
10
3.566288
20
0.819847
30
0.0
11
3.678101
21
1.011187
31
0.0
0
LINE
8
Dust
62
3
5
13f
100
AcDbEntity
100
AcDbLine
10
3.678101
20
1.011187
30
0.0
11
3.761151
21
1.219367
31
0.0
0
LINE
8
Dust
62
3
5
140
100
AcDbEntity
100
AcDbLine
10
3.761151
20
1.219367
30
0.0
11
3.782930
21
1.291465
31
0.0
0
LINE
8
Dust
62
3
5
141
100
AcDbEntity
100
AcDbLine
10
3.782930
20
1.291465
30
0.0
11
3.775590
21
1.548822
31
0.0
0
LINE
8
Dust
62
3
5
142
100
AcDbEntity
100
AcDbLine
10
3.775590
20
1.548822
30
0.0
11
3.684221
21
1.364183
31
0.0
0
LINE
8
Dust
62
3
5
143
100
AcDbEntity
100
AcDbLine
10
3.684221
20
1.364183
30
0.0
11
3.609714
21
1.182582
31
0.0
0
LINE
8
Dust
62
3
5
144
100
AcDbEntity
100
AcDbLine
10
3.609714
20
1.182582
30
0.0
11
3.490094
21
0.845432
31
0.0
0
LINE
8
Dust
62
3
5
145
100
AcDbEntity
100
AcDbLine
10
3.490094
20
0.845432
30
0.0
11
3.334090
21
0.966078
31
0.0
0
LINE
8
Dust
62
3
5
146
100
AcDbEntity
100
AcDbLine
10
3.334090
20
0.966078
30
0.0
11
3.136779
21
0.825922
31
0.0
0
LINE
8
Dust
62
3
5
147
100
AcDbEntity
100
AcDbLine
10
3.136779
20
0.825922
30
0.0
11
2.968537
21
0.917269
31
0.0
0
LINE
8
Dust
62
3
5
148
100
AcDbEntity
100
AcDbLine
10
2.968537
20
0.917269
30
0.0
11
2.950024
21
1.107529
31
0.0
0
LINE
8
Dust
62
3
5
149
100
AcDbEntity
100
AcDbLine
10
2.950024
20
1.107529
30
0.0
11
2.910010
21
1.258305
31
0.0
0
LINE
8
Dust
62
3
5
14a
100
AcDbEntity
100
AcDbLine
10
2.910010
20
1.258305
30
0.0
11
3.049849
21
1.299426
31
0.0
0
LINE
8
Dust
62
3
5
14b
100
AcDbEntity
100
AcDbLine
10
3.049849
20
1.299426
30
0.0
11
3.231371
21
1.525415
31
0.0
0
LINE
8
Dust
62
3
5
14c
100
AcDbEntity
100
AcDbLine
10
3.231371
20
1.525415
30
0.0
11
3.311356
21
1.781369
31
0.0
0
LINE
8
Dust
62
3
5
14d
100
AcDbEntity
100
AcDbLine
10
3.311356
20
1.781369
30
0.0
11
3.376309
21
2.089237
31
0.0
0
LINE
8
Dust
62
3
5
14e
100
AcDbEntity
100
AcDbLine
10
3.376309
20
2.089237
30
0.0
11
3.283547
21
2.408701
31
0.0
0
LINE
8
Dust
62
3
5
14f
100
AcDbEntity
100
AcDbLine
10
3.283547
20
2.408701
30
0.0
11
3.072046
21
2.664531
31
0.0
0
LINE
8
Dust
62
3
5
150
100
AcDbEntity
100
AcDbLine
10
3.072046
20
2.664531
30
0.0
11
2.752294
21
2.652530
31
0.0
0
LINE
8
Dust
62
3
5
151
100
AcDbEntity
100
AcDbLine
10
2.752294
20
2.652530
30
0.0
11
2.452176
21
2.262438
31
0.0
0
LINE
8
Dust
62
3
5
152
100
AcDbEntity
100
AcDbLine
10
2.452176
20
2.262438
30
0.0
11
2.555606
21
2.257429
31
0.0
0
LINE
8
Dust
62
3
5
153
100
AcDbEntity
100
AcDbLine
10
2.555606
20
2.257429
30
0.0
11
2.458159
21
2.121641
31
0.0
0
LINE
8
Dust
62
3
5
154
100
AcDbEntity
100
AcDbLine
10
2.458159
20
2.121641
30
0.0
11
2.605746
21
2.106383
31
0.0
0
LINE
8
Dust
62
3
5
155
100
AcDbEntity
100
AcDbLine
10
2.605746
20
2.106383
30
0.0
11
2.508634
21
1.954014
31
0.0
0
LINE
8
Dust
62
3
5
156
100
AcDbEntity
100
AcDbLine
10
2.508634
20
1.954014
30
0.0
11
2.682260
21
1.940321
31
0.0
0
LINE
8
Dust
62
3
5
157
100
AcDbEntity
100
AcDbLine
10
2.682260
20
1.940321
30
0.0
11
2.521151
21
1.887635
31
0.0
0
LINE
8
Dust
62
3
5
158
100
AcDbEntity
100
AcDbLine
10
2.521151
20
1.887635
30
0.0
11
2.634513
21
1.838726
31
0.0
0
LINE
8
Dust
62
3
5
159
100
AcDbEntity
100
AcDbLine
10
2.634513
20
1.838726
30
0.0
11
2.742402
21
1.800764
31
0.0
0
LINE
8
Dust
62
3
5
15a
100
AcDbEntity
100
AcDbLine
10
2.742402
20
1.800764
30
0.0
11
2.801457
21
1.711357
31
0.0
0
LINE
8
Dust
62
3
5
15b
100
AcDbEntity
100
AcDbLine
10
2.801457
20
1.711357
30
0.0
11
2.844500
21
1.615092
31
0.0
0
LINE
8
Dust
62
3
5
15c
100
AcDbEntity
100
AcDbLine
10
2.844500
20
1.615092
30
0.0
11
2.791381
21
1.513516
31
0.0
0
LINE
8
Dust
62
3
5
15d
100
AcDbEntity
100
AcDbLine
10
2.791381
20
1.513516
30
0.0
11
2.732333
21
1.410851
31
0.0
0
LINE
8
Dust
62
3
5
15e
100
AcDbEntity
100
AcDbLine
10
2.732333
20
1.410851
30
0.0
11
2.753962
21
1.265235
31
0.0
0
LINE
8
Dust
62
3
5
15f
100
AcDbEntity
100
AcDbLine
10
2.753962
20
1.265235
30
0.0
11
2.776069
21
1.160893
31
0.0
0
LINE
8
Dust
62
3
5
160
100
AcDbEntity
100
AcDbLine
10
2.776069
20
1.160893
30
0.0
11
2.620913
21
1.231133
31
0.0
0
LINE
8
Dust
62
3
5
161
100
AcDbEntity
100
AcDbLine
10
2.620913
20
1.231133
30
0.0
11
2.637224
21
1.171231
31
0.0
0
LINE
8
Dust
62
3
5
162
100
AcDbEntity
100
AcDbLine
10
2.637224
20
1.171231
30
0.0
11
2.671990
21
1.108079
31
0.0
0
LINE
8
Dust
62
3
5
163
100
AcDbEntity
100
AcDbLine
10
2.671990
20
1.108079
30
0.0
11
2.791945
21
0.839218
31
0.0
0
LINE
8
Dust
62
3
5
164
100
AcDbEntity
100
AcDbLine
10
2.791945
20
0.839218
30
0.0
11
2.839970
21
0.702766
31
0.0
0
LINE
8
Dust
62
3
5
165
100
AcDbEntity
100
AcDbLine
10
2.839970
20
0.702766
30
0.0
11
2.860739
21
0.556295
31
0.0
0
LINE
8
Dust
62
3
5
166
100
AcDbEntity
100
AcDbLine
10
2.860739
20
0.556295
30
0.0
11
2.626265
21
0.349332
31
0.0
0
LINE
8
Dust
62
3
5
167
100
AcDbEntity
100
AcDbLine
10
2.968006
20
2.720615
30
0.0
11
3.002669
21
2.745525
31
0.0
0
LINE
8
Dust
62
3
5
168
100
AcDbEntity
100
AcDbLine
10
3.002669
20
2.745525
30
0.0
11
3.014525
21
2.775922
31
0.0
0
LINE
8
Dust
62
3
5
169
100
AcDbEntity
100
AcDbLine
10
3.014525
20
2.775922
30
0.0
11
3.002198
21
2.834820
31
0.0
0
LINE
8
Dust
62
3
5
16a
100
AcDbEntity
100
AcDbLine
10
3.002198
20
2.834820
30
0.0
11
2.976171
21
2.934271
31
0.0
0
LINE
8
Dust
62
3
5
16b
100
AcDbEntity
100
AcDbLine
10
2.976171
20
2.934271
30
0.0
11
2.951539
21
2.978700
31
0.0
0
LINE
8
Dust
62
3
5
16c
100
AcDbEntity
100
AcDbLine
10
2.951539
20
2.978700
30
0.0
11
2.911375
21
3.010303
31
0.0
0
LINE
8
Dust
62
3
5
16d
100
AcDbEntity
100
AcDbLine
10
2.911375
20
3.010303
30
0.0
11
2.776376
21
2.958771
31
0.0
0
LINE
8
Dust
62
3
5
16e
100
AcDbEntity
100
AcDbLine
10
2.776376
20
2.958771
30
0.0
11
2.644752
21
2.992551
31
0.0
0
LINE
8
Dust
62
3
5
16f
100
AcDbEntity
100
AcDbLine
10
2.644752
20
2.992551
30
0.0
11
2.415348
21
3.065553
31
0.0
0
LINE
8
Dust
62
3
5
170
100
AcDbEntity
100
AcDbLine
10
2.415348
20
3.065553
30
0.0
11
2.383740
21
3.033489
31
0.0
0
LINE
8
Dust
62
3
5
171
100
AcDbEntity
100
AcDbLine
10
2.383740
20
3.033489
30
0.0
11
2.354587
21
2.982497
31
0.0
0
LINE
8
Dust
62
3
5
172
100
AcDbEntity
100
AcDbLine
10
2.354587
20
2.982497
30
0.0
11
2.309454
21
2.875883
31
0.0
0
LINE
8
Dust
62
3
5
173
100
AcDbEntity
100
AcDbLine
10
2.309454
20
2.875883
30
0.0
11
2.222961
21
2.615453
31
0.0
0
LINE
8
Dust
62
3
5
174
100
AcDbEntity
100
AcDbLine
10
2.222961
20
2.615453
30
0.0
11
2.219875
21
2.588744
31
0.0
0
LINE
8
Dust
62
3
5
175
100
AcDbEntity
100
AcDbLine
10
2.219875
20
2.588744
30
0.0
11
2.230481
21
2.576063
31
0.0
0
LINE
8
Dust
62
3
5
176
100
AcDbEntity
100
AcDbLine
10
2.230481
20
2.576063
30
0.0
11
2.299592
21
2.609275
31
0.0
0
LINE
8
Dust
62
3
5
177
100
AcDbEntity
100
AcDbLine
10
2.299592
20
2.609275
30
0.0
11
2.350930
21
2.628557
31
0.0
0
LINE
8
Dust
62
3
5
178
100
AcDbEntity
100
AcDbLine
10
2.350930
20
2.628557
30
0.0
11
2.376623
21
2.643929
31
0.0
0
LINE
8
Dust
62
3
5
179
100
AcDbEntity
100
AcDbLine
10
2.376623
20
2.643929
30
0.0
11
2.399813
21
2.675888
31
0.0
0
LINE
8
Dust
62
3
5
17a
100
AcDbEntity
100
AcDbLine
10
2.399813
20
2.675888
30
0.0
11
2.426934
21
2.691112
31
0.0
0
LINE
8
Dust
62
3
5
17b
100
AcDbEntity
100
AcDbLine
10
2.426934
20
2.691112
30
0.0
11
2.450946
21
2.687843
31
0.0
0
LINE
8
Dust
62
3
5
17c
100
AcDbEntity
100
AcDbLine
10
2.450946
20
2.687843
30
0.0
11
2.492691
21
2.644557
31
0.0
0
LINE
8
Dust
62
3
5
17d
100
AcDbEntity
100
AcDbLine
10
2.492691
20
2.644557
30
0.0
11
2.547901
21
2.680647
31
0.0
0
LINE
8
Dust
62
3
5
17e
100
AcDbEntity
100
AcDbLine
10
2.547901
20
2.680647
30
0.0
11
2.590374
21
2.713003
31
0.0
0
LINE
8
Dust
62
3
5
17f
100
AcDbEntity
100
AcDbLine
10
2.590374
20
2.713003
30
0.0
11
2.637182
21
2.734369
31
0.0
0
LINE
8
Dust
62
3
5
180
100
AcDbEntity
100
AcDbLine
10
2.637182
20
2.734369
30
0.0
11
2.690662
21
2.718498
31
0.0
0
LINE
8
Dust
62
3
5
181
100
AcDbEntity
100
AcDbLine
10
2.690662
20
2.718498
30
0.0
11
2.743298
21
2.698928
31
0.0
0
LINE
8
Dust
62
3
5
182
100
AcDbEntity
100
AcDbLine
10
2.743298
20
2.698928
30
0.0
11
2.812852
21
2.668914
31
0.0
0
LINE
8
Dust
62
3
5
183
100
AcDbEntity
100
AcDbLine
10
2.812852
20
2.668914
30
0.0
11
2.968006
21
2.720615
31
0.0
0
LINE
8
Dust
62
3
5
184
100
AcDbEntity
100
AcDbLine
10
2.968006
20
2.720615
30
0.0
11
2.968006
21
2.720615
31
0.0
0
LINE
8
Dust
62
3
5
185
100
AcDbEntity
100
AcDbLine
10
3.489141
20
2.210062
30
0.0
11
3.437313
21
2.308329
31
0.0
0
LINE
8
Dust
62
3
5
186
100
AcDbEntity
100
AcDbLine
10
3.437313
20
2.308329
30
0.0
11
3.384998
21
2.412025
31
0.0
0
LINE
8
Dust
62
3
5
187
100
AcDbEntity
100
AcDbLine
10
3.384998
20
2.412025
30
0.0
11
3.326950
21
2.510990
31
0.0
0
LINE
8
Dust
62
3
5
188
100
AcDbEntity
100
AcDbLine
10
3.326950
20
2.510990
30
0.0
11
3.236139
21
2.617186
31
0.0
0
LINE
8
Dust
62
3
5
189
100
AcDbEntity
100
AcDbLine
10
3.236139
20
2.617186
30
0.0
11
3.234922
21
2.776344
31
0.0
0
LINE
8
Dust
62
3
5
18a
100
AcDbEntity
100
AcDbLine
10
3.234922
20
2.776344
30
0.0
11
3.204656
21
2.880055
31
0.0
0
LINE
8
Dust
62
3
5
18b
100
AcDbEntity
100
AcDbLine
10
3.204656
20
2.880055
30
0.0
11
3.152607
21
2.982817
31
0.0
0
LINE
8
Dust
62
3
5
18c
100
AcDbEntity
100
AcDbLine
10
3.152607
20
2.982817
30
0.0
11
3.117686
21
3.096653
31
0.0
0
LINE
8
Dust
62
3
5
18d
100
AcDbEntity
100
AcDbLine
10
3.117686
20
3.096653
30
0.0
11
3.126296
21
3.122703
31
0.0
0
LINE
8
Dust
62
3
5
18e
100
AcDbEntity
100
AcDbLine
10
3.126296
20
3.122703
30
0.0
11
3.146551
21
3.122874
31
0.0
0
LINE
8
Dust
62
3
5
18f
100
AcDbEntity
100
AcDbLine
10
3.146551
20
3.122874
30
0.0
11
3.166950
21
3.104274
31
0.0
0
LINE
8
Dust
62
3
5
190
100
AcDbEntity
100
AcDbLine
10
3.166950
20
3.104274
30
0.0
11
3.175991
21
3.074011
31
0.0
0
LINE
8
Dust
62
3
5
191
100
AcDbEntity
100
AcDbLine
10
3.175991
20
3.074011
30
0.0
11
3.247884
21
2.894535
31
0.0
0
LINE
8
Dust
62
3
5
192
100
AcDbEntity
100
AcDbLine
10
3.247884
20
2.894535
30
0.0
11
3.287582
21
2.795435
31
0.0
0
LINE
8
Dust
62
3
5
193
100
AcDbEntity
100
AcDbLine
10
3.287582
20
2.795435
30
0.0
11
3.309348
21
2.738608
31
0.0
0
LINE
8
Dust
62
3
5
194
100
AcDbEntity
100
AcDbLine
10
3.309348
20
2.738608
30
0.0
11
3.350554
21
2.694833
31
0.0
0
LINE
8
Dust
62
3
5
195
100
AcDbEntity
100
AcDbLine
10
3.350554
20
2.694833
30
0.0
11
3.422473
21
2.628162
31
0.0
0
LINE
8
Dust
62
3
5
196
100
AcDbEntity
100
AcDbLine
10
3.422473
20
2.628162
30
0.0
11
3.487700
21
2.517631
31
0.0
0
LINE
8
Dust
62
3
5
197
100
AcDbEntity
100
AcDbLine
10
3.487700
20
2.517631
30
0.0
11
3.535788
21
2.413542
31
0.0
0
LINE
8
Dust
62
3
5
198
100
AcDbEntity
100
AcDbLine
10
3.535788
20
2.413542
30
0.0
11
3.569832
21
2.297214
31
0.0
0
LINE
8
Dust
62
3
5
199
100
AcDbEntity
100
AcDbLine
10
3.569832
20
2.297214
30
0.0
11
3.514056
21
2.239463
31
0.0
0
LINE
8
Dust
62
3
5
19a
100
AcDbEntity
100
AcDbLine
10
3.514056
20
2.239463
30
0.0
11
3.489141
21
2.210062
31
0.0
0
LINE
8
Dust
62
3
5
19b
100
AcDbEntity
100
AcDbLine
10
3.489141
20
2.210062
30
0.0
11
3.489141
21
2.210062
31
0.0
0
LINE
8
Filaments
62
5
5
19c
100
AcDbEntity
100
AcDbLine
10
1.053172
20
2.406615
30
0.0
11
0.987257
21
2.419032
31
0.0
0
LINE
8
Filaments
62
5
5
19d
100
AcDbEntity
100
AcDbLine
10
0.987257
20
2.419032
30
0.0
11
0.901972
21
2.072745
31
0.0
0
LINE
8
Filaments
62
5
5
19e
100
AcDbEntity
100
AcDbLine
10
0.901972
20
2.072745
30
0.0
11
0.912516
21
1.971839
31
0.0
0
LINE
8
Filaments
62
5
5
19f
100
AcDbEntity
100
AcDbLine
10
0.912516
20
1.971839
30
0.0
11
0.906209
21
1.875640
31
0.0
0
LINE
8
Filaments
62
5
5
1a0
100
AcDbEntity
100
AcDbLine
10
0.906209
20
1.875640
30
0.0
11
0.875040
21
1.780154
31
0.0
0
LINE
8
Filaments
62
5
5
1a1
100
AcDbEntity
100
AcDbLine
10
0.875040
20
1.780154
30
0.0
11
0.811002
21
1.681384
31
0.0
0
LINE
8
Filaments
62
5
5
1a2
100
AcDbEntity
100
AcDbLine
10
0.811002
20
1.681384
30
0.0
11
0.730897
21
1.125996
31
0.0
0
LINE
8
Filaments
62
5
5
1a3
100
AcDbEntity
100
AcDbLine
10
0.730897
20
1.125996
30
0.0
11
0.864022
21
0.945796
31
0.0
0
LINE
8
Filaments
62
5
5
1a4
100
AcDbEntity
100
AcDbLine
10
0.864022
20
0.945796
30
0.0
11
0.918869
21
0.922822
31
0.0
0
LINE
8
Filaments
62
5
5
1a5
100
AcDbEntity
100
AcDbLine
10
0.918869
20
0.922822
30
0.0
11
0.972914
21
0.882213
31
0.0
0
LINE
8
Filaments
62
5
5
1a6
100
AcDbEntity
100
AcDbLine
10
0.972914
20
0.882213
30
0.0
11
1.209502
21
0.621521
31
0.0
0
LINE
8
Filaments
62
5
5
1a7
100
AcDbEntity
100
AcDbLine
10
1.209502
20
0.621521
30
0.0
11
1.626557
21
0.619546
31
0.0
0
LINE
8
Filaments
62
5
5
1a8
100
AcDbEntity
100
AcDbLine
10
1.626557
20
0.619546
30
0.0
11
1.716470
21
0.718054
31
0.0
0
LINE
8
Filaments
62
5
5
1a9
100
AcDbEntity
100
AcDbLine
10
1.716470
20
0.718054
30
0.0
11
1.882899
21
0.588433
31
0.0
0
LINE
8
Filaments
62
5
5
1aa
100
AcDbEntity
100
AcDbLine
10
1.882899
20
0.588433
30
0.0
11
2.128271
21
0.429998
31
0.0
0
LINE
8
Filaments
62
5
5
1ab
100
AcDbEntity
100
AcDbLine
10
2.128271
20
0.429998
30
0.0
11
1.944434
21
0.576759
31
0.0
0
LINE
8
Filaments
62
5
5
1ac
100
AcDbEntity
100
AcDbLine
10
1.944434
20
0.576759
30
0.0
11
1.714099
21
0.781556
31
0.0
0
LINE
8
Filaments
62
5
5
1ad
100
AcDbEntity
100
AcDbLine
10
1.714099
20
0.781556
30
0.0
11
1.617180
21
0.716266
31
0.0
0
LINE
8
Filaments
62
5
5
1ae
100
AcDbEntity
100
AcDbLine
10
1.617180
20
0.716266
30
0.0
11
1.468441
21
0.817521
31
0.0
0
LINE
8
Filaments
62
5
5
1af
100
AcDbEntity
100
AcDbLine
10
1.468441
20
0.817521
30
0.0
11
1.305651
21
0.830736
31
0.0
0
LINE
8
Filaments
62
5
5
1b0
100
AcDbEntity
100
AcDbLine
10
1.305651
20
0.830736
30
0.0
11
1.223340
21
0.756842
31
0.0
0
LINE
8
Filaments
62
5
5
1b1
100
AcDbEntity
100
AcDbLine
10
1.223340
20
0.756842
30
0.0
11
1.090160
21
0.874296
31
0.0
0
LINE
8
Filaments
62
5
5
1b2
100
AcDbEntity
100
AcDbLine
10
1.090160
20
0.874296
30
0.0
11
1.097794
21
1.097034
31
0.0
0
LINE
8
Filaments
62
5
5
1b3
100
AcDbEntity
100
AcDbLine
10
1.097794
20
1.097034
30
0.0
11
0.987959
21
1.097068
31
0.0
0
LINE
8
Filaments
62
5
5
1b4
100
AcDbEntity
100
AcDbLine
10
0.987959
20
1.097068
30
0.0
11
1.088355
21
1.207402
31
0.0
0
LINE
8
Filaments
62
5
5
1b5
100
AcDbEntity
100
AcDbLine
10
1.088355
20
1.207402
30
0.0
11
0.987158
21
1.251035
31
0.0
0
LINE
8
Filaments
62
5
5
1b6
100
AcDbEntity
100
AcDbLine
10
0.987158
20
1.251035
30
0.0
11
1.057353
21
1.495414
31
0.0
0
LINE
8
Filaments
62
5
5
1b7
100
AcDbEntity
100
AcDbLine
10
1.057353
20
1.495414
30
0.0
11
1.033104
21
1.709155
31
0.0
0
LINE
8
Filaments
62
5
5
1b8
100
AcDbEntity
100
AcDbLine
10
1.033104
20
1.709155
30
0.0
11
1.031683
21
2.150874
31
0.0
0
LINE
8
Filaments
62
5
5
1b9
100
AcDbEntity
100
AcDbLine
10
1.031683
20
2.150874
30
0.0
11
1.053172
21
2.406612
31
0.0
0
LINE
8
Filaments
62
5
5
1ba
100
AcDbEntity
100
AcDbLine
10
1.053172
20
2.406612
30
0.0
11
1.053172
21
2.406615
31
0.0
0
LINE
8
Filaments
62
5
5
1bb
100
AcDbEntity
100
AcDbLine
10
2.363805
20
2.862610
30
0.0
11
2.207250
21
2.602672
31
0.0
0
LINE
8
Filaments
62
5
5
1bc
100
AcDbEntity
100
AcDbLine
10
2.207250
20
2.602672
30
0.0
11
2.237522
21
2.556405
31
0.0
0
LINE
8
Filaments
62
5
5
1bd
100
AcDbEntity
100
AcDbLine
10
2.237522
20
2.556405
30
0.0
11
2.343847
21
2.626482
31
0.0
0
LINE
8
Filaments
62
5
5
1be
100
AcDbEntity
100
AcDbLine
10
2.343847
20
2.626482
30
0.0
11
2.414436
21
2.568186
31
0.0
0
LINE
8
Filaments
62
5
5
1bf
100
AcDbEntity
100
AcDbLine
10
2.414436
20
2.568186
30
0.0
11
2.522692
21
2.651207
31
0.0
0
LINE
8
Filaments
62
5
5
1c0
100
AcDbEntity
100
AcDbLine
10
2.522692
20
2.651207
30
0.0
11
2.636212
21
2.721066
31
0.0
0
LINE
8
Filaments
62
5
5
1c1
100
AcDbEntity
100
AcDbLine
10
2.636212
20
2.721066
30
0.0
11
2.800063
21
2.652756
31
0.0
0
LINE
8
Filaments
62
5
5
1c2
100
AcDbEntity
100
AcDbLine
10
2.800063
20
2.652756
30
0.0
11
2.753879
21
2.595081
31
0.0
0
LINE
8
Filaments
62
5
5
1c3
100
AcDbEntity
100
AcDbLine
10
2.753879
20
2.595081
30
0.0
11
2.620726
21
2.474296
31
0.0
0
LINE
8
Filaments
62
5
5
1c4
100
AcDbEntity
100
AcDbLine
10
2.620726
20
2.474296
30
0.0
11
2.474992
21
2.343236
31
0.0
0
LINE
8
Filaments
62
5
5
1c5
100
AcDbEntity
100
AcDbLine
10
2.474992
20
2.343236
30
0.0
11
2.391066
21
2.254735
31
0.0
0
LINE
8
Filaments
62
5
5
1c6
100
AcDbEntity
100
AcDbLine
10
2.391066
20
2.254735
30
0.0
11
2.543217
21
2.154518
31
0.0
0
LINE
8
Filaments
62
5
5
1c7
100
AcDbEntity
100
AcDbLine
10
2.543217
20
2.154518
30
0.0
11
2.490989
21
2.099613
31
0.0
0
LINE
8
Filaments
62
5
5
1c8
100
AcDbEntity
100
AcDbLine
10
2.490989
20
2.099613
30
0.0
11
2.564927
21
2.029581
31
0.0
0
LINE
8
Filaments
62
5
5
1c9
100
AcDbEntity
100
AcDbLine
10
2.564927
20
2.029581
30
0.0
11
2.508757
21
1.941276
31
0.0
0
LINE
8
Filaments
62
5
5
1ca
100
AcDbEntity
100
AcDbLine
10
2.508757
20
1.941276
30
0.0
11
2.600093
21
1.936421
31
0.0
0
LINE
8
Filaments
62
5
5
1cb
100
AcDbEntity
100
AcDbLine
10
2.600093
20
1.936421
30
0.0
11
2.573126
21
1.826641
31
0.0
0
LINE
8
Filaments
62
5
5
1cc
100
AcDbEntity
100
AcDbLine
10
2.573126
20
1.826641
30
0.0
11
2.836219
21
1.567932
31
0.0
0
LINE
8
Filaments
62
5
5
1cd
100
AcDbEntity
100
AcDbLine
10
2.836219
20
1.567932
30
0.0
11
2.750117
21
1.288941
31
0.0
0
LINE
8
Filaments
62
5
5
1ce
100
AcDbEntity
100
AcDbLine
10
2.750117
20
1.288941
30
0.0
11
2.692059
21
1.232054
31
0.0
0
LINE
8
Filaments
62
5
5
1cf
100
AcDbEntity
100
AcDbLine
10
2.692059
20
1.232054
30
0.0
11
2.636645
21
1.184851
31
0.0
0
LINE
8
Filaments
62
5
5
1d0
100
AcDbEntity
100
AcDbLine
10
2.636645
20
1.184851
30
0.0
11
2.634399
21
1.132004
31
0.0
0
LINE
8
Filaments
62
5
5
1d1
100
AcDbEntity
100
AcDbLine
10
2.634399
20
1.132004
30
0.0
11
2.852682
21
1.291718
31
0.0
0
LINE
8
Filaments
62
5
5
1d2
100
AcDbEntity
100
AcDbLine
10
2.852682
20
1.291718
30
0.0
11
2.890587
21
1.563182
31
0.0
0
LINE
8
Filaments
62
5
5
1d3
100
AcDbEntity
100
AcDbLine
10
2.890587
20
1.563182
30
0.0
11
2.758696
21
1.813620
31
0.0
0
LINE
8
Filaments
62
5
5
1d4
100
AcDbEntity
100
AcDbLine
10
2.758696
20
1.813620
30
0.0
11
2.678204
21
1.849018
31
0.0
0
LINE
8
Filaments
62
5
5
1d5
100
AcDbEntity
100
AcDbLine
10
2.678204
20
1.849018
30
0.0
11
2.653014
21
2.074745
31
0.0
0
LINE
8
Filaments
62
5
5
1d6
100
AcDbEntity
100
AcDbLine
10
2.653014
20
2.074745
30
0.0
11
2.586804
21
2.333100
31
0.0
0
LINE
8
Filaments
62
5
5
1d7
100
AcDbEntity
100
AcDbLine
10
2.586804
20
2.333100
30
0.0
11
2.721637
21
2.376719
31
0.0
0
LINE
8
Filaments
62
5
5
1d8
100
AcDbEntity
100
AcDbLine
10
2.721637
20
2.376719
30
0.0
11
2.866487
21
2.682717
31
0.0
0
LINE
8
Filaments
62
5
5
1d9
100
AcDbEntity
100
AcDbLine
10
2.866487
20
2.682717
30
0.0
11
2.875756
21
2.791018
31
0.0
0
LINE
8
Filaments
62
5
5
1da
100
AcDbEntity
100
AcDbLine
10
2.875756
20
2.791018
30
0.0
11
2.592129
21
2.812007
31
0.0
0
LINE
8
Filaments
62
5
5
1db
100
AcDbEntity
100
AcDbLine
10
2.592129
20
2.812007
30
0.0
11
2.363805
21
2.862610
31
0.0
0
LINE
8
Filaments
62
5
5
1dc
100
AcDbEntity
100
AcDbLine
10
3.231975
20
2.903774
30
0.0
11
3.208636
21
2.630389
31
0.0
0
LINE
8
Filaments
62
5
5
1dd
100
AcDbEntity
100
AcDbLine
10
3.208636
20
2.630389
30
0.0
11
3.339855
21
2.540927
31
0.0
0
LINE
8
Filaments
62
5
5
1de
100
AcDbEntity
100
AcDbLine
10
3.339855
20
2.540927
30
0.0
11
3.478852
21
2.464430
31
0.0
0
LINE
8
Filaments
62
5
5
1df
100
AcDbEntity
100
AcDbLine
10
3.478852
20
2.464430
30
0.0
11
3.327884
21
2.682156
31
0.0
0
LINE
8
Filaments
62
5
5
1e0
100
AcDbEntity
100
AcDbLine
10
3.327884
20
2.682156
30
0.0
11
3.324560
21
2.831165
31
0.0
0
LINE
8
Filaments
62
5
5
1e1
100
AcDbEntity
100
AcDbLine
10
3.324560
20
2.831165
30
0.0
11
3.231975
21
2.903774
31
0.0
0
LINE
8
Gasses_
62
1
5
1e2
100
AcDbEntity
100
AcDbLine
10
2.476441
20
1.302227
30
0.0
11
2.524097
21
1.374622
31
0.0
0
LINE
8
Gasses_
62
1
5
1e3
100
AcDbEntity
100
AcDbLine
10
2.524097
20
1.374622
30
0.0
11
2.522852
21
1.412545
31
0.0
0
LINE
8
Gasses_
62
1
5
1e4
100
AcDbEntity
100
AcDbLine
10
2.522852
20
1.412545
30
0.0
11
2.549267
21
1.451272
31
0.0
0
LINE
8
Gasses_
62
1
5
1e5
100
AcDbEntity
100
AcDbLine
10
2.549267
20
1.451272
30
0.0
11
2.603225
21
1.452181
31
0.0
0
LINE
8
Gasses_
62
1
5
1e6
100
AcDbEntity
100
AcDbLine
10
2.603225
20
1.452181
30
0.0
11
2.653696
21
1.488052
31
0.0
0
LINE
8
Gasses_
62
1
5
1e7
100
AcDbEntity
100
AcDbLine
10
2.653696
20
1.488052
30
0.0
11
2.672244
21
1.449076
31
0.0
0
LINE
8
Gasses_
62
1
5
1e8
100
AcDbEntity
100
AcDbLine
10
2.672244
20
1.449076
30
0.0
11
2.731369
21
1.419137
31
0.0
0
LINE
8
Gasses_
62
1
5
1e9
100
AcDbEntity
100
AcDbLine
10
2.731369
20
1.419137
30
0.0
11
2.662187
21
1.268752
31
0.0
0
LINE
8
Gasses_
62
1
5
1ea
100
AcDbEntity
100
AcDbLine
10
2.662187
20
1.268752
30
0.0
11
2.598064
21
1.222239
31
0.0
0
LINE
8
Gasses_
62
1
5
1eb
100
AcDbEntity
100
AcDbLine
10
2.598064
20
1.222239
30
0.0
11
2.593349
21
1.197098
31
0.0
0
LINE
8
Gasses_
62
1
5
1ec
100
AcDbEntity
100
AcDbLine
10
2.593349
20
1.197098
30
0.0
11
2.580121
21
1.180994
31
0.0
0
LINE
8
Gasses_
62
1
5
1ed
100
AcDbEntity
100
AcDbLine
10
2.580121
20
1.180994
30
0.0
11
2.548193
21
1.173858
31
0.0
0
LINE
8
Gasses_
62
1
5
1ee
100
AcDbEntity
100
AcDbLine
10
2.548193
20
1.173858
30
0.0
11
2.476441
21
1.302227
31
0.0
0
LINE
8
Gasses_
62
1
5
1ef
100
AcDbEntity
100
AcDbLine
10
2.476441
20
1.302227
30
0.0
11
2.476441
21
1.302227
31
0.0
0
LINE
8
Gasses_
62
1
5
1f0
100
AcDbEntity
100
AcDbLine
10
0.327722
20
1.546008
30
0.0
11
0.768104
21
1.940042
31
0.0
0
LINE
8
Gasses_
62
1
5
1f1
100
AcDbEntity
100
AcDbLine
10
0.768104
20
1.940042
30
0.0
11
0.830329
21
2.203112
31
0.0
0
LINE
8
Gasses_
62
1
5
1f2
100
AcDbEntity
100
AcDbLine
10
0.830329
20
2.203112
30
0.0
11
0.952872
21
2.413913
31
0.0
0
LINE
8
Gasses_
62
1
5
1f3
100
AcDbEntity
100
AcDbLine
10
0.952872
20
2.413913
30
0.0
11
1.088389
21
2.186025
31
0.0
0
LINE
8
Gasses_
62
1
5
1f4
100
AcDbEntity
100
AcDbLine
10
1.088389
20
2.186025
30
0.0
11
1.192583
21
2.101853
31
0.0
0
LINE
8
Gasses_
62
1
5
1f5
100
AcDbEntity
100
AcDbLine
10
1.192583
20
2.101853
30
0.0
11
1.321982
21
2.014427
31
0.0
0
LINE
8
Gasses_
62
1
5
1f6
100
AcDbEntity
100
AcDbLine
10
1.321982
20
2.014427
30
0.0
11
1.492925
21
1.890802
31
0.0
0
LINE
8
Gasses_
62
1
5
1f7
100
AcDbEntity
100
AcDbLine
10
1.492925
20
1.890802
30
0.0
11
1.657475
21
1.916250
31
0.0
0
LINE
8
Gasses_
62
1
5
1f8
100
AcDbEntity
100
AcDbLine
10
1.657475
20
1.916250
30
0.0
11
1.720438
21
2.003455
31
0.0
0
LINE
8
Gasses_
62
1
5
1f9
100
AcDbEntity
100
AcDbLine
10
1.720438
20
2.003455
30
0.0
11
1.779265
21
2.105432
31
0.0
0
LINE
8
Gasses_
62
1
5
1fa
100
AcDbEntity
100
AcDbLine
10
1.779265
20
2.105432
30
0.0
11
1.643776
21
2.312041
31
0.0
0
LINE
8
Gasses_
62
1
5
1fb
100
AcDbEntity
100
AcDbLine
10
1.643776
20
2.312041
30
0.0
11
1.784962
21
2.528088
31
0.0
0
LINE
8
Gasses_
62
1
5
1fc
100
AcDbEntity
100
AcDbLine
10
1.784962
20
2.528088
30
0.0
11
1.873017
21
2.849180
31
0.0
0
LINE
8
Gasses_
62
1
5
1fd
100
AcDbEntity
100
AcDbLine
10
1.873017
20
2.849180
30
0.0
11
2.086127
21
2.716432
31
0.0
0
LINE
8
Gasses_
62
1
5
1fe
100
AcDbEntity
100
AcDbLine
10
2.086127
20
2.716432
30
0.0
11
2.368856
21
2.973798
31
0.0
0
LINE
8
Gasses_
62
1
5
1ff
100
AcDbEntity
100
AcDbLine
10
2.368856
20
2.973798
30
0.0
11
2.484052
21
2.865317
31
0.0
0
LINE
8
Gasses_
62
1
5
200
100
AcDbEntity
100
AcDbLine
10
2.484052
20
2.865317
30
0.0
11
2.789593
21
3.001801
31
0.0
0
LINE
8
Gasses_
62
1
5
201
100
AcDbEntity
100
AcDbLine
10
2.789593
20
3.001801
30
0.0
11
3.272110
21
2.556836
31
0.0
0
LINE
8
Gasses_
62
1
5
202
100
AcDbEntity
100
AcDbLine
10
3.272110
20
2.556836
30
0.0
11
3.282982
21
2.205174
31
0.0
0
LINE
8
Gasses_
62
1
5
203
100
AcDbEntity
100
AcDbLine
10
3.282982
20
2.205174
30
0.0
11
3.280573
21
1.854305
31
0.0
0
LINE
8
Gasses_
62
1
5
204
100
AcDbEntity
100
AcDbLine
10
3.280573
20
1.854305
30
0.0
11
3.206719
21
1.719802
31
0.0
0
LINE
8
Gasses_
62
1
5
205
100
AcDbEntity
100
AcDbLine
10
3.206719
20
1.719802
30
0.0
11
3.181816
21
1.618108
31
0.0
0
LINE
8
Gasses_
62
1
5
206
100
AcDbEntity
100
AcDbLine
10
3.181816
20
1.618108
30
0.0
11
2.947449
21
1.472275
31
0.0
0
LINE
8
Gasses_
62
1
5
207
100
AcDbEntity
100
AcDbLine
10
2.947449
20
1.472275
30
0.0
11
2.863653
21
1.318734
31
0.0
0
LINE
8
Gasses_
62
1
5
208
100
AcDbEntity
100
AcDbLine
10
2.863653
20
1.318734
30
0.0
11
2.855953
21
1.190603
31
0.0
0
LINE
8
Gasses_
62
1
5
209
100
AcDbEntity
100
AcDbLine
10
2.855953
20
1.190603
30
0.0
11
2.830887
21
1.063327
31
0.0
0
LINE
8
Gasses_
62
1
5
20a
100
AcDbEntity
100
AcDbLine
10
2.830887
20
1.063327
30
0.0
11
2.675793
21
1.004143
31
0.0
0
LINE
8
Gasses_
62
1
5
20b
100
AcDbEntity
100
AcDbLine
10
2.675793
20
1.004143
30
0.0
11
2.649982
21
0.927004
31
0.0
0
LINE
8
Gasses_
62
1
5
20c
100
AcDbEntity
100
AcDbLine
10
2.649982
20
0.927004
30
0.0
11
2.559360
21
0.954899
31
0.0
0
LINE
8
Gasses_
62
1
5
20d
100
AcDbEntity
100
AcDbLine
10
2.559360
20
0.954899
30
0.0
11
2.533516
21
0.887446
31
0.0
0
LINE
8
Gasses_
62
1
5
20e
100
AcDbEntity
100
AcDbLine
10
2.533516
20
0.887446
30
0.0
11
2.495852
21
0.850344
31
0.0
0
LINE
8
Gasses_
62
1
5
20f
100
AcDbEntity
100
AcDbLine
10
2.495852
20
0.850344
30
0.0
11
2.478756
21
0.847757
31
0.0
0
LINE
8
Gasses_
62
1
5
210
100
AcDbEntity
100
AcDbLine
10
2.478756
20
0.847757
30
0.0
11
2.514615
21
0.883847
31
0.0
0
LINE
8
Gasses_
62
1
5
211
100
AcDbEntity
100
AcDbLine
10
2.514615
20
0.883847
30
0.0
11
2.429491
21
0.850020
31
0.0
0
LINE
8
Gasses_
62
1
5
212
100
AcDbEntity
100
AcDbLine
10
2.429491
20
0.850020
30
0.0
11
2.364945
21
0.811572
31
0.0
0
LINE
8
Gasses_
62
1
5
213
100
AcDbEntity
100
AcDbLine
10
2.364945
20
0.811572
30
0.0
11
2.388468
21
0.763252
31
0.0
0
LINE
8
Gasses_
62
1
5
214
100
AcDbEntity
100
AcDbLine
10
2.388468
20
0.763252
30
0.0
11
2.426221
21
0.726050
31
0.0
0
LINE
8
Gasses_
62
1
5
215
100
AcDbEntity
100
AcDbLine
10
2.426221
20
0.726050
30
0.0
11
2.282322
21
0.600035
31
0.0
0
LINE
8
Gasses_
62
1
5
216
100
AcDbEntity
100
AcDbLine
10
2.282322
20
0.600035
30
0.0
11
2.227286
21
0.523863
31
0.0
0
LINE
8
Gasses_
62
1
5
217
100
AcDbEntity
100
AcDbLine
10
2.227286
20
0.523863
30
0.0
11
2.189580
21
0.440964
31
0.0
0
LINE
8
Gasses_
62
1
5
218
100
AcDbEntity
100
AcDbLine
10
2.189580
20
0.440964
30
0.0
11
2.078476
21
0.412507
31
0.0
0
LINE
8
Gasses_
62
1
5
219
100
AcDbEntity
100
AcDbLine
10
2.078476
20
0.412507
30
0.0
11
1.969688
21
0.340560
31
0.0
0
LINE
8
Gasses_
62
1
5
21a
100
AcDbEntity
100
AcDbLine
10
1.969688
20
0.340560
30
0.0
11
1.774786
21
0.363138
31
0.0
0
LINE
8
Gasses_
62
1
5
21b
100
AcDbEntity
100
AcDbLine
10
1.774786
20
0.363138
30
0.0
11
1.523581
21
0.452526
31
0.0
0
LINE
8
Gasses_
62
1
5
21c
100
AcDbEntity
100
AcDbLine
10
1.523581
20
0.452526
30
0.0
11
1.167156
21
0.462693
31
0.0
0
LINE
8
Gasses_
62
1
5
21d
100
AcDbEntity
100
AcDbLine
10
1.167156
20
0.462693
30
0.0
11
1.058466
21
0.583444
31
0.0
0
LINE
8
Gasses_
62
1
5
21e
100
AcDbEntity
100
AcDbLine
10
1.058466
20
0.583444
30
0.0
11
0.972388
21
0.645939
31
0.0
0
LINE
8
Gasses_
62
1
5
21f
100
AcDbEntity
100
AcDbLine
10
0.972388
20
0.645939
30
0.0
11
0.822913
21
0.728801
31
0.0
0
LINE
8
Gasses_
62
1
5
220
100
AcDbEntity
100
AcDbLine
10
0.822913
20
0.728801
30
0.0
11
0.760579
21
1.137606
31
0.0
0
LINE
8
Gasses_
62
1
5
221
100
AcDbEntity
100
AcDbLine
10
0.760579
20
1.137606
30
0.0
11
0.569215
21
1.161440
31
0.0
0
LINE
8
Gasses_
62
1
5
222
100
AcDbEntity
100
AcDbLine
10
0.569215
20
1.161440
30
0.0
11
0.305247
21
1.241574
31
0.0
0
LINE
8
Gasses_
62
1
5
223
100
AcDbEntity
100
AcDbLine
10
0.305247
20
1.241574
30
0.0
11
0.327722
21
1.546008
31
0.0
0
LINE
8
Gasses_
62
1
5
224
100
AcDbEntity
100
AcDbLine
10
0.327722
20
1.546008
30
0.0
11
0.327722
21
1.546008
31
0.0
  0
ENDSEC
  0
SECTION
  2
OBJECTS
  0
DICTIONARY
  5
C
330
0
100
AcDbDictionary
  3
ACAD_GROUP
350
D
  3
ACAD_MLINESTYLE
350
17
  0
DICTIONARY
  5
D
330
C
100
AcDbDictionary
  0
DICTIONARY
  5
1A
330
C
100
AcDbDictionary
  0
DICTIONARY
  5
17
330
C
100
AcDbDictionary
  3
STANDARD
350
18
  0
DICTIONARY
  5
19
330
C
100
AcDbDictionary
  0
ENDSEC
  0
EOF
