999
Inkscape export via Big Blue Saws DXF Export" (http://www.bigbluesaw.com/saw/big-blue-saw-blog/general-updates/big-blue-saws-dxf-export-for-inkscape.html)
  0
SECTION
  2
HEADER
  9
$ACADVER
  1
AC1014
  9
$HANDSEED
  5
FFFF
  0
$INSUNITS
 70
 1
 9
ENDSEC
  0
SECTION
  2
TABLES
  0
TABLE
  2
VPORT
  5
8
330
0
100
AcDbSymbolTable
 70
     4
  0
VPORT
  5
2E
330
8
100
AcDbSymbolTableRecord
100
AcDbViewportTableRecord
  2
*ACTIVE
 70
     0
 10
0.0
 20
0.0
 11
1.0
 21
1.0
 12
4.25
 22
5.5
 13
0.0
 23
0.0
 14
10.0
 24
10.0
 15
10.0
 25
10.0
 16
0.0
 26
0.0
 36
1.0
 17
0.0
 27
0.0
 37
0.0
 40
11
 41
1.24
 42
50.0
 43
0.0
 44
0.0
 50
0.0
 51
0.0
 71
     0
 72
   100
 73
     1
 74
     3
 75
     0
 76
     0
 77
     0
 78
     0
  0
ENDTAB
  0
TABLE
  2
LTYPE
  5
5
330
0
100
AcDbSymbolTable
 70
     1
  0
LTYPE
  5
14
330
5
100
AcDbSymbolTableRecord
100
AcDbLinetypeTableRecord
  2
BYBLOCK
 70
     0
  3

 72
    65
 73
     0
 40
0.0
  0
LTYPE
  5
15
330
5
100
AcDbSymbolTableRecord
100
AcDbLinetypeTableRecord
  2
BYLAYER
 70
     0
  3

 72
    65
 73
     0
 40
0.0
  0
LTYPE
  5
16
330
5
100
AcDbSymbolTableRecord
100
AcDbLinetypeTableRecord
  2
CONTINUOUS
 70
     0
  3
Solid line
 72
    65
 73
     0
 40
0.0
  0
ENDTAB
  0
TABLE
  2
STYLE
  5
3
330
0
100
AcDbSymbolTable
 70
     1
  0
STYLE
  5
11
330
3
100
AcDbSymbolTableRecord
100
AcDbTextStyleTableRecord
  2
STANDARD
 70
     0
 40
0.0
 41
1.0
 50
0.0
 71
     0
 42
2.5
  3
txt
  4

  0
ENDTAB
  0
TABLE
  2
VIEW
  5
6
330
0
100
AcDbSymbolTable
 70
     0
  0
ENDTAB
  0
TABLE
  2
UCS
  5
7
330
0
100
AcDbSymbolTable
 70
     0
  0
ENDTAB
  0
TABLE
  2
APPID
  5
9
330
0
100
AcDbSymbolTable
 70
     2
  0
APPID
  5
12
330
9
100
AcDbSymbolTableRecord
100
AcDbRegAppTableRecord
  2
ACAD
 70
     0
  0
ENDTAB
  0
TABLE
  2
DIMSTYLE
  5
A
330
0
100
AcDbSymbolTable
 70
     1
  0
DIMSTYLE
105
27
330
A
100
AcDbSymbolTableRecord
100
AcDbDimStyleTableRecord
  2
ISO-25
 70
     0
  3

  4

  5

  6

  7

 40
1.0
 41
2.5
 42
0.625
 43
3.75
 44
1.25
 45
0.0
 46
0.0
 47
0.0
 48
0.0
140
2.5
141
2.5
142
0.0
143
0.03937007874016
144
1.0
145
0.0
146
1.0
147
0.625
 71
     0
 72
     0
 73
     0
 74
     0
 75
     0
 76
     0
 77
     1
 78
     8
170
     0
171
     3
172
     1
173
     0
174
     0
175
     0
176
     0
177
     0
178
     0
270
     2
271
     2
272
     2
273
     2
274
     3
340
11
275
     0
280
     0
281
     0
282
     0
283
     0
284
     8
285
     0
286
     0
287
     3
288
     0
  0
ENDTAB
  0
TABLE
  2
BLOCK_RECORD
  5
1
330
0
100
AcDbSymbolTable
 70
     1
  0
BLOCK_RECORD
  5
1F
330
1
100
AcDbSymbolTableRecord
100
AcDbBlockTableRecord
  2
*MODEL_SPACE
  0
BLOCK_RECORD
  5
1B
330
1
100
AcDbSymbolTableRecord
100
AcDbBlockTableRecord
  2
*PAPER_SPACE
  0
ENDTAB
0
TABLE
2
LAYER
5
2
330
0
100
AcDbSymbolTable
70
4
0
LAYER
5
10
330
2
100
AcDbSymbolTableRecord
100
AcDbLayerTableRecord
2
Base
70
0
62
7
6
CONTINUOUS
0
LAYER
5
10
330
2
100
AcDbSymbolTableRecord
100
AcDbLayerTableRecord
2
Dust
70
0
62
7
6
CONTINUOUS
0
LAYER
5
10
330
2
100
AcDbSymbolTableRecord
100
AcDbLayerTableRecord
2
Filaments
70
0
62
7
6
CONTINUOUS
0
LAYER
5
10
330
2
100
AcDbSymbolTableRecord
100
AcDbLayerTableRecord
2
Gasses
70
0
62
7
6
CONTINUOUS
0
ENDTAB
0
ENDSEC
  0
SECTION
  2
BLOCKS
  0
BLOCK
  5
20
330
1F
100
AcDbEntity
  8
0
100
AcDbBlockBegin
  2
*MODEL_SPACE
 70
     0
 10
0.0
 20
0.0
 30
0.0
  3
*MODEL_SPACE
  1

  0
ENDBLK
  5
21
330
1F
100
AcDbEntity
  8
0
100
AcDbBlockEnd
  0
BLOCK
  5
1C
330
1B
100
AcDbEntity
 67
     1
  8
0
100
AcDbBlockBegin
  2
*PAPER_SPACE
  1

  0
ENDBLK
  5
1D
330
1B
100
AcDbEntity
 67
     1
  8
0
100
AcDbBlockEnd
  0
ENDSEC
  0
SECTION
  2
ENTITIES
0
LINE
8
Base
62
0
5
100
100
AcDbEntity
100
AcDbLine
10
0.000000
20
74.921260
30
0.0
11
39.370079
21
74.921260
31
0.0
0
LINE
8
Base
62
0
5
101
100
AcDbEntity
100
AcDbLine
10
39.370079
20
74.921260
30
0.0
11
39.370079
21
35.551180
31
0.0
0
LINE
8
Base
62
0
5
102
100
AcDbEntity
100
AcDbLine
10
39.370079
20
35.551180
30
0.0
11
0.000000
21
35.551180
31
0.0
0
LINE
8
Base
62
0
5
103
100
AcDbEntity
100
AcDbLine
10
0.000000
20
35.551180
30
0.0
11
0.000000
21
74.921260
31
0.0
0
LINE
8
Dust
62
3
5
104
100
AcDbEntity
100
AcDbLine
10
21.995610
20
42.536136
30
0.0
11
22.698407
21
43.133665
31
0.0
0
LINE
8
Dust
62
3
5
105
100
AcDbEntity
100
AcDbLine
10
22.698407
20
43.133665
30
0.0
11
23.545967
21
43.877014
31
0.0
0
LINE
8
Dust
62
3
5
106
100
AcDbEntity
100
AcDbLine
10
23.545967
20
43.877014
30
0.0
11
24.603034
21
44.072765
31
0.0
0
LINE
8
Dust
62
3
5
107
100
AcDbEntity
100
AcDbLine
10
24.603034
20
44.072765
30
0.0
11
25.819503
21
44.266224
31
0.0
0
LINE
8
Dust
62
3
5
108
100
AcDbEntity
100
AcDbLine
10
25.819503
20
44.266224
30
0.0
11
27.239903
21
44.472977
31
0.0
0
LINE
8
Dust
62
3
5
109
100
AcDbEntity
100
AcDbLine
10
27.239903
20
44.472977
30
0.0
11
27.802678
21
44.945971
31
0.0
0
LINE
8
Dust
62
3
5
10a
100
AcDbEntity
100
AcDbLine
10
27.802678
20
44.945971
30
0.0
11
28.277271
21
45.383034
31
0.0
0
LINE
8
Dust
62
3
5
10b
100
AcDbEntity
100
AcDbLine
10
28.277271
20
45.383034
30
0.0
11
28.496112
21
45.606739
31
0.0
0
LINE
8
Dust
62
3
5
10c
100
AcDbEntity
100
AcDbLine
10
28.496112
20
45.606739
30
0.0
11
28.677220
21
45.816762
31
0.0
0
LINE
8
Dust
62
3
5
10d
100
AcDbEntity
100
AcDbLine
10
28.677220
20
45.816762
30
0.0
11
28.367959
21
45.855361
31
0.0
0
LINE
8
Dust
62
3
5
10e
100
AcDbEntity
100
AcDbLine
10
28.367959
20
45.855361
30
0.0
11
27.879627
21
45.873731
31
0.0
0
LINE
8
Dust
62
3
5
10f
100
AcDbEntity
100
AcDbLine
10
27.879627
20
45.873731
30
0.0
11
26.614384
21
45.870879
31
0.0
0
LINE
8
Dust
62
3
5
110
100
AcDbEntity
100
AcDbLine
10
26.614384
20
45.870879
30
0.0
11
25.378748
21
45.850394
31
0.0
0
LINE
8
Dust
62
3
5
111
100
AcDbEntity
100
AcDbLine
10
25.378748
20
45.850394
30
0.0
11
24.669978
21
45.854463
31
0.0
0
LINE
8
Dust
62
3
5
112
100
AcDbEntity
100
AcDbLine
10
24.669978
20
45.854463
30
0.0
11
24.560479
21
46.610096
31
0.0
0
LINE
8
Dust
62
3
5
113
100
AcDbEntity
100
AcDbLine
10
24.560479
20
46.610096
30
0.0
11
24.397942
21
47.555107
31
0.0
0
LINE
8
Dust
62
3
5
114
100
AcDbEntity
100
AcDbLine
10
24.397942
20
47.555107
30
0.0
11
21.610999
21
47.506249
31
0.0
0
LINE
8
Dust
62
3
5
115
100
AcDbEntity
100
AcDbLine
10
21.610999
20
47.506249
30
0.0
11
21.060248
21
47.801413
31
0.0
0
LINE
8
Dust
62
3
5
116
100
AcDbEntity
100
AcDbLine
10
21.060248
20
47.801413
30
0.0
11
20.425357
21
48.163186
31
0.0
0
LINE
8
Dust
62
3
5
117
100
AcDbEntity
100
AcDbLine
10
20.425357
20
48.163186
30
0.0
11
19.030593
21
48.989025
31
0.0
0
LINE
8
Dust
62
3
5
118
100
AcDbEntity
100
AcDbLine
10
19.030593
20
48.989025
30
0.0
11
17.681583
21
49.788696
31
0.0
0
LINE
8
Dust
62
3
5
119
100
AcDbEntity
100
AcDbLine
10
17.681583
20
49.788696
30
0.0
11
17.103886
21
50.117761
31
0.0
0
LINE
8
Dust
62
3
5
11a
100
AcDbEntity
100
AcDbLine
10
17.103886
20
50.117761
30
0.0
11
16.633206
21
50.367135
31
0.0
0
LINE
8
Dust
62
3
5
11b
100
AcDbEntity
100
AcDbLine
10
16.633206
20
50.367135
30
0.0
11
13.881421
21
51.731879
31
0.0
0
LINE
8
Dust
62
3
5
11c
100
AcDbEntity
100
AcDbLine
10
13.881421
20
51.731879
30
0.0
11
15.097296
21
54.193378
31
0.0
0
LINE
8
Dust
62
3
5
11d
100
AcDbEntity
100
AcDbLine
10
15.097296
20
54.193378
30
0.0
11
12.897201
21
52.275608
31
0.0
0
LINE
8
Dust
62
3
5
11e
100
AcDbEntity
100
AcDbLine
10
12.897201
20
52.275608
30
0.0
11
10.610293
21
53.341944
31
0.0
0
LINE
8
Dust
62
3
5
11f
100
AcDbEntity
100
AcDbLine
10
10.610293
20
53.341944
30
0.0
11
10.668216
21
53.560515
31
0.0
0
LINE
8
Dust
62
3
5
120
100
AcDbEntity
100
AcDbLine
10
10.668216
20
53.560515
30
0.0
11
10.759808
21
53.773268
31
0.0
0
LINE
8
Dust
62
3
5
121
100
AcDbEntity
100
AcDbLine
10
10.759808
20
53.773268
30
0.0
11
10.991768
21
54.214461
31
0.0
0
LINE
8
Dust
62
3
5
122
100
AcDbEntity
100
AcDbLine
10
10.991768
20
54.214461
30
0.0
11
11.106020
21
54.459470
31
0.0
0
LINE
8
Dust
62
3
5
123
100
AcDbEntity
100
AcDbLine
10
11.106020
20
54.459470
30
0.0
11
11.201708
21
54.731799
31
0.0
0
LINE
8
Dust
62
3
5
124
100
AcDbEntity
100
AcDbLine
10
11.201708
20
54.731799
30
0.0
11
11.265775
21
55.039735
31
0.0
0
LINE
8
Dust
62
3
5
125
100
AcDbEntity
100
AcDbLine
10
11.265775
20
55.039735
30
0.0
11
11.285161
21
55.391560
31
0.0
0
LINE
8
Dust
62
3
5
126
100
AcDbEntity
100
AcDbLine
10
11.285161
20
55.391560
30
0.0
11
10.457281
21
55.373815
31
0.0
0
LINE
8
Dust
62
3
5
127
100
AcDbEntity
100
AcDbLine
10
10.457281
20
55.373815
30
0.0
11
9.701989
21
55.370071
31
0.0
0
LINE
8
Dust
62
3
5
128
100
AcDbEntity
100
AcDbLine
10
9.701989
20
55.370071
30
0.0
11
8.987729
21
55.362181
31
0.0
0
LINE
8
Dust
62
3
5
129
100
AcDbEntity
100
AcDbLine
10
8.987729
20
55.362181
30
0.0
11
8.282944
21
55.331996
31
0.0
0
LINE
8
Dust
62
3
5
12a
100
AcDbEntity
100
AcDbLine
10
8.282944
20
55.331996
30
0.0
11
7.303893
21
55.873496
31
0.0
0
LINE
8
Dust
62
3
5
12b
100
AcDbEntity
100
AcDbLine
10
7.303893
20
55.873496
30
0.0
11
6.667681
21
56.192278
31
0.0
0
LINE
8
Dust
62
3
5
12c
100
AcDbEntity
100
AcDbLine
10
6.667681
20
56.192278
30
0.0
11
6.379765
21
56.319130
31
0.0
0
LINE
8
Dust
62
3
5
12d
100
AcDbEntity
100
AcDbLine
10
6.379765
20
56.319130
30
0.0
11
6.137445
21
56.407321
31
0.0
0
LINE
8
Dust
62
3
5
12e
100
AcDbEntity
100
AcDbLine
10
6.137445
20
56.407321
30
0.0
11
6.043418
21
56.856967
31
0.0
0
LINE
8
Dust
62
3
5
12f
100
AcDbEntity
100
AcDbLine
10
6.043418
20
56.856967
30
0.0
11
5.931653
21
57.493952
31
0.0
0
LINE
8
Dust
62
3
5
130
100
AcDbEntity
100
AcDbLine
10
5.931653
20
57.493952
30
0.0
11
5.710208
21
58.800292
31
0.0
0
LINE
8
Dust
62
3
5
131
100
AcDbEntity
100
AcDbLine
10
5.710208
20
58.800292
30
0.0
11
5.989155
21
59.001193
31
0.0
0
LINE
8
Dust
62
3
5
132
100
AcDbEntity
100
AcDbLine
10
5.989155
20
59.001193
30
0.0
11
6.393965
21
59.273220
31
0.0
0
LINE
8
Dust
62
3
5
133
100
AcDbEntity
100
AcDbLine
10
6.393965
20
59.273220
30
0.0
11
7.404483
21
59.956622
31
0.0
0
LINE
8
Dust
62
3
5
134
100
AcDbEntity
100
AcDbLine
10
7.404483
20
59.956622
30
0.0
11
7.921846
21
60.330979
31
0.0
0
LINE
8
Dust
62
3
5
135
100
AcDbEntity
100
AcDbLine
10
7.921846
20
60.330979
30
0.0
11
8.388383
21
60.702431
31
0.0
0
LINE
8
Dust
62
3
5
136
100
AcDbEntity
100
AcDbLine
10
8.388383
20
60.702431
30
0.0
11
8.588787
21
60.881282
31
0.0
0
LINE
8
Dust
62
3
5
137
100
AcDbEntity
100
AcDbLine
10
8.588787
20
60.881282
30
0.0
11
8.759920
21
61.052466
31
0.0
0
LINE
8
Dust
62
3
5
138
100
AcDbEntity
100
AcDbLine
10
8.759920
20
61.052466
30
0.0
11
8.896260
21
61.213670
31
0.0
0
LINE
8
Dust
62
3
5
139
100
AcDbEntity
100
AcDbLine
10
8.896260
20
61.213670
30
0.0
11
8.992285
21
61.362579
31
0.0
0
LINE
8
Dust
62
3
5
13a
100
AcDbEntity
100
AcDbLine
10
8.992285
20
61.362579
30
0.0
11
9.018399
21
61.998157
31
0.0
0
LINE
8
Dust
62
3
5
13b
100
AcDbEntity
100
AcDbLine
10
9.018399
20
61.998157
30
0.0
11
9.052542
21
62.517093
31
0.0
0
LINE
8
Dust
62
3
5
13c
100
AcDbEntity
100
AcDbLine
10
9.052542
20
62.517093
30
0.0
11
9.085830
21
63.093280
31
0.0
0
LINE
8
Dust
62
3
5
13d
100
AcDbEntity
100
AcDbLine
10
9.085830
20
63.093280
30
0.0
11
9.109379
21
63.900611
31
0.0
0
LINE
8
Dust
62
3
5
13e
100
AcDbEntity
100
AcDbLine
10
9.109379
20
63.900611
30
0.0
11
9.286140
21
64.159088
31
0.0
0
LINE
8
Dust
62
3
5
13f
100
AcDbEntity
100
AcDbLine
10
9.286140
20
64.159088
30
0.0
11
9.485141
21
64.411402
31
0.0
0
LINE
8
Dust
62
3
5
140
100
AcDbEntity
100
AcDbLine
10
9.485141
20
64.411402
30
0.0
11
9.913880
21
64.896404
31
0.0
0
LINE
8
Dust
62
3
5
141
100
AcDbEntity
100
AcDbLine
10
9.913880
20
64.896404
30
0.0
11
10.323630
21
65.353347
31
0.0
0
LINE
8
Dust
62
3
5
142
100
AcDbEntity
100
AcDbLine
10
10.323630
20
65.353347
30
0.0
11
10.498895
21
65.570586
31
0.0
0
LINE
8
Dust
62
3
5
143
100
AcDbEntity
100
AcDbLine
10
10.498895
20
65.570586
30
0.0
11
10.642425
21
65.779959
31
0.0
0
LINE
8
Dust
62
3
5
144
100
AcDbEntity
100
AcDbLine
10
10.642425
20
65.779959
30
0.0
11
10.745224
21
65.981180
31
0.0
0
LINE
8
Dust
62
3
5
145
100
AcDbEntity
100
AcDbLine
10
10.745224
20
65.981180
30
0.0
11
10.798297
21
66.173968
31
0.0
0
LINE
8
Dust
62
3
5
146
100
AcDbEntity
100
AcDbLine
10
10.798297
20
66.173968
30
0.0
11
10.803375
21
66.267110
31
0.0
0
LINE
8
Dust
62
3
5
147
100
AcDbEntity
100
AcDbLine
10
10.803375
20
66.267110
30
0.0
11
10.792648
21
66.358037
31
0.0
0
LINE
8
Dust
62
3
5
148
100
AcDbEntity
100
AcDbLine
10
10.792648
20
66.358037
30
0.0
11
10.764992
21
66.446713
31
0.0
0
LINE
8
Dust
62
3
5
149
100
AcDbEntity
100
AcDbLine
10
10.764992
20
66.446713
30
0.0
11
10.719282
21
66.533103
31
0.0
0
LINE
8
Dust
62
3
5
14a
100
AcDbEntity
100
AcDbLine
10
10.719282
20
66.533103
30
0.0
11
10.654393
21
66.617172
31
0.0
0
LINE
8
Dust
62
3
5
14b
100
AcDbEntity
100
AcDbLine
10
10.654393
20
66.617172
30
0.0
11
10.569201
21
66.698884
31
0.0
0
LINE
8
Dust
62
3
5
14c
100
AcDbEntity
100
AcDbLine
10
10.569201
20
66.698884
30
0.0
11
10.333411
21
66.855094
31
0.0
0
LINE
8
Dust
62
3
5
14d
100
AcDbEntity
100
AcDbLine
10
10.333411
20
66.855094
30
0.0
11
10.002916
21
67.001450
31
0.0
0
LINE
8
Dust
62
3
5
14e
100
AcDbEntity
100
AcDbLine
10
10.002916
20
67.001450
30
0.0
11
9.568719
21
67.137668
31
0.0
0
LINE
8
Dust
62
3
5
14f
100
AcDbEntity
100
AcDbLine
10
9.568719
20
67.137668
30
0.0
11
9.263453
21
67.207362
31
0.0
0
LINE
8
Dust
62
3
5
150
100
AcDbEntity
100
AcDbLine
10
9.263453
20
67.207362
30
0.0
11
9.028129
21
67.310362
31
0.0
0
LINE
8
Dust
62
3
5
151
100
AcDbEntity
100
AcDbLine
10
9.028129
20
67.310362
30
0.0
11
8.855992
21
67.442888
31
0.0
0
LINE
8
Dust
62
3
5
152
100
AcDbEntity
100
AcDbLine
10
8.855992
20
67.442888
30
0.0
11
8.740286
21
67.601162
31
0.0
0
LINE
8
Dust
62
3
5
153
100
AcDbEntity
100
AcDbLine
10
8.740286
20
67.601162
30
0.0
11
8.674254
21
67.781405
31
0.0
0
LINE
8
Dust
62
3
5
154
100
AcDbEntity
100
AcDbLine
10
8.674254
20
67.781405
30
0.0
11
8.651142
21
67.979838
31
0.0
0
LINE
8
Dust
62
3
5
155
100
AcDbEntity
100
AcDbLine
10
8.651142
20
67.979838
30
0.0
11
8.664193
21
68.192682
31
0.0
0
LINE
8
Dust
62
3
5
156
100
AcDbEntity
100
AcDbLine
10
8.664193
20
68.192682
30
0.0
11
8.706653
21
68.416160
31
0.0
0
LINE
8
Dust
62
3
5
157
100
AcDbEntity
100
AcDbLine
10
8.706653
20
68.416160
30
0.0
11
8.771764
21
68.646491
31
0.0
0
LINE
8
Dust
62
3
5
158
100
AcDbEntity
100
AcDbLine
10
8.771764
20
68.646491
30
0.0
11
8.852772
21
68.879898
31
0.0
0
LINE
8
Dust
62
3
5
159
100
AcDbEntity
100
AcDbLine
10
8.852772
20
68.879898
30
0.0
11
9.035452
21
69.340822
31
0.0
0
LINE
8
Dust
62
3
5
15a
100
AcDbEntity
100
AcDbLine
10
9.035452
20
69.340822
30
0.0
11
9.200650
21
69.768701
31
0.0
0
LINE
8
Dust
62
3
5
15b
100
AcDbEntity
100
AcDbLine
10
9.200650
20
69.768701
30
0.0
11
9.259802
21
69.960803
31
0.0
0
LINE
8
Dust
62
3
5
15c
100
AcDbEntity
100
AcDbLine
10
9.259802
20
69.960803
30
0.0
11
9.294317
21
70.133307
31
0.0
0
LINE
8
Dust
62
3
5
15d
100
AcDbEntity
100
AcDbLine
10
9.294317
20
70.133307
30
0.0
11
8.922946
21
70.234133
31
0.0
0
LINE
8
Dust
62
3
5
15e
100
AcDbEntity
100
AcDbLine
10
8.922946
20
70.234133
30
0.0
11
8.458386
21
70.345881
31
0.0
0
LINE
8
Dust
62
3
5
15f
100
AcDbEntity
100
AcDbLine
10
8.458386
20
70.345881
30
0.0
11
7.885073
21
70.437719
31
0.0
0
LINE
8
Dust
62
3
5
160
100
AcDbEntity
100
AcDbLine
10
7.885073
20
70.437719
30
0.0
11
7.552772
21
70.466537
31
0.0
0
LINE
8
Dust
62
3
5
161
100
AcDbEntity
100
AcDbLine
10
7.552772
20
70.466537
30
0.0
11
7.187446
21
70.478818
31
0.0
0
LINE
8
Dust
62
3
5
162
100
AcDbEntity
100
AcDbLine
10
7.187446
20
70.478818
30
0.0
11
6.521259
21
70.417299
31
0.0
0
LINE
8
Dust
62
3
5
163
100
AcDbEntity
100
AcDbLine
10
6.521259
20
70.417299
30
0.0
11
5.843140
21
70.315273
31
0.0
0
LINE
8
Dust
62
3
5
164
100
AcDbEntity
100
AcDbLine
10
5.843140
20
70.315273
30
0.0
11
4.584558
21
70.087617
31
0.0
0
LINE
8
Dust
62
3
5
165
100
AcDbEntity
100
AcDbLine
10
4.584558
20
70.087617
30
0.0
11
4.004671
21
69.557468
31
0.0
0
LINE
8
Dust
62
3
5
166
100
AcDbEntity
100
AcDbLine
10
4.004671
20
69.557468
30
0.0
11
3.288402
21
68.867809
31
0.0
0
LINE
8
Dust
62
3
5
167
100
AcDbEntity
100
AcDbLine
10
3.288402
20
68.867809
30
0.0
11
2.592327
21
68.162399
31
0.0
0
LINE
8
Dust
62
3
5
168
100
AcDbEntity
100
AcDbLine
10
2.592327
20
68.162399
30
0.0
11
2.073018
21
67.584999
31
0.0
0
LINE
8
Dust
62
3
5
169
100
AcDbEntity
100
AcDbLine
10
2.073018
20
67.584999
30
0.0
11
1.838206
21
67.027507
31
0.0
0
LINE
8
Dust
62
3
5
16a
100
AcDbEntity
100
AcDbLine
10
1.838206
20
67.027507
30
0.0
11
1.628595
21
66.473864
31
0.0
0
LINE
8
Dust
62
3
5
16b
100
AcDbEntity
100
AcDbLine
10
1.628595
20
66.473864
30
0.0
11
1.443981
21
65.914786
31
0.0
0
LINE
8
Dust
62
3
5
16c
100
AcDbEntity
100
AcDbLine
10
1.443981
20
65.914786
30
0.0
11
1.284157
21
65.340990
31
0.0
0
LINE
8
Dust
62
3
5
16d
100
AcDbEntity
100
AcDbLine
10
1.284157
20
65.340990
30
0.0
11
1.148922
21
64.743191
31
0.0
0
LINE
8
Dust
62
3
5
16e
100
AcDbEntity
100
AcDbLine
10
1.148922
20
64.743191
30
0.0
11
1.038069
21
64.112107
31
0.0
0
LINE
8
Dust
62
3
5
16f
100
AcDbEntity
100
AcDbLine
10
1.038069
20
64.112107
30
0.0
11
0.951394
21
63.438454
31
0.0
0
LINE
8
Dust
62
3
5
170
100
AcDbEntity
100
AcDbLine
10
0.951394
20
63.438454
30
0.0
11
0.888692
21
62.712949
31
0.0
0
LINE
8
Dust
62
3
5
171
100
AcDbEntity
100
AcDbLine
10
0.888692
20
62.712949
30
0.0
11
0.770382
21
62.024999
31
0.0
0
LINE
8
Dust
62
3
5
172
100
AcDbEntity
100
AcDbLine
10
0.770382
20
62.024999
30
0.0
11
0.686275
21
61.256956
31
0.0
0
LINE
8
Dust
62
3
5
173
100
AcDbEntity
100
AcDbLine
10
0.686275
20
61.256956
30
0.0
11
0.639883
21
60.487746
31
0.0
0
LINE
8
Dust
62
3
5
174
100
AcDbEntity
100
AcDbLine
10
0.639883
20
60.487746
30
0.0
11
0.634718
21
59.796296
31
0.0
0
LINE
8
Dust
62
3
5
175
100
AcDbEntity
100
AcDbLine
10
0.634718
20
59.796296
30
0.0
11
0.814269
21
59.243038
31
0.0
0
LINE
8
Dust
62
3
5
176
100
AcDbEntity
100
AcDbLine
10
0.814269
20
59.243038
30
0.0
11
1.000573
21
58.764158
31
0.0
0
LINE
8
Dust
62
3
5
177
100
AcDbEntity
100
AcDbLine
10
1.000573
20
58.764158
30
0.0
11
1.111115
21
58.535116
31
0.0
0
LINE
8
Dust
62
3
5
178
100
AcDbEntity
100
AcDbLine
10
1.111115
20
58.535116
30
0.0
11
1.241175
21
58.303676
31
0.0
0
LINE
8
Dust
62
3
5
179
100
AcDbEntity
100
AcDbLine
10
1.241175
20
58.303676
30
0.0
11
1.396695
21
58.062841
31
0.0
0
LINE
8
Dust
62
3
5
17a
100
AcDbEntity
100
AcDbLine
10
1.396695
20
58.062841
30
0.0
11
1.583618
21
57.805615
31
0.0
0
LINE
8
Dust
62
3
5
17b
100
AcDbEntity
100
AcDbLine
10
1.583618
20
57.805615
30
0.0
11
1.766408
21
57.359158
31
0.0
0
LINE
8
Dust
62
3
5
17c
100
AcDbEntity
100
AcDbLine
10
1.766408
20
57.359158
30
0.0
11
1.958331
21
56.956844
31
0.0
0
LINE
8
Dust
62
3
5
17d
100
AcDbEntity
100
AcDbLine
10
1.958331
20
56.956844
30
0.0
11
2.158371
21
56.594668
31
0.0
0
LINE
8
Dust
62
3
5
17e
100
AcDbEntity
100
AcDbLine
10
2.158371
20
56.594668
30
0.0
11
2.365510
21
56.268623
31
0.0
0
LINE
8
Dust
62
3
5
17f
100
AcDbEntity
100
AcDbLine
10
2.365510
20
56.268623
30
0.0
11
2.578730
21
55.974706
31
0.0
0
LINE
8
Dust
62
3
5
180
100
AcDbEntity
100
AcDbLine
10
2.578730
20
55.974706
30
0.0
11
2.797013
21
55.708911
31
0.0
0
LINE
8
Dust
62
3
5
181
100
AcDbEntity
100
AcDbLine
10
2.797013
20
55.708911
30
0.0
11
3.019341
21
55.467233
31
0.0
0
LINE
8
Dust
62
3
5
182
100
AcDbEntity
100
AcDbLine
10
3.019341
20
55.467233
30
0.0
11
3.244696
21
55.245666
31
0.0
0
LINE
8
Dust
62
3
5
183
100
AcDbEntity
100
AcDbLine
10
3.244696
20
55.245666
30
0.0
11
3.700419
21
54.846848
31
0.0
0
LINE
8
Dust
62
3
5
184
100
AcDbEntity
100
AcDbLine
10
3.700419
20
54.846848
30
0.0
11
4.156039
21
54.480416
31
0.0
0
LINE
8
Dust
62
3
5
185
100
AcDbEntity
100
AcDbLine
10
4.156039
20
54.480416
30
0.0
11
4.603414
21
54.114330
31
0.0
0
LINE
8
Dust
62
3
5
186
100
AcDbEntity
100
AcDbLine
10
4.603414
20
54.114330
30
0.0
11
5.034401
21
53.716547
31
0.0
0
LINE
8
Dust
62
3
5
187
100
AcDbEntity
100
AcDbLine
10
5.034401
20
53.716547
30
0.0
11
5.560684
21
53.812781
31
0.0
0
LINE
8
Dust
62
3
5
188
100
AcDbEntity
100
AcDbLine
10
5.560684
20
53.812781
30
0.0
11
6.070532
21
53.917618
31
0.0
0
LINE
8
Dust
62
3
5
189
100
AcDbEntity
100
AcDbLine
10
6.070532
20
53.917618
30
0.0
11
6.693052
21
54.036342
31
0.0
0
LINE
8
Dust
62
3
5
18a
100
AcDbEntity
100
AcDbLine
10
6.693052
20
54.036342
30
0.0
11
7.557350
21
54.174232
31
0.0
0
LINE
8
Dust
62
3
5
18b
100
AcDbEntity
100
AcDbLine
10
7.557350
20
54.174232
30
0.0
11
7.289721
21
51.503770
31
0.0
0
LINE
8
Dust
62
3
5
18c
100
AcDbEntity
100
AcDbLine
10
7.289721
20
51.503770
30
0.0
11
7.162252
21
49.991689
31
0.0
0
LINE
8
Dust
62
3
5
18d
100
AcDbEntity
100
AcDbLine
10
7.162252
20
49.991689
30
0.0
11
7.104049
21
48.967633
31
0.0
0
LINE
8
Dust
62
3
5
18e
100
AcDbEntity
100
AcDbLine
10
7.104049
20
48.967633
30
0.0
11
7.874236
21
48.441790
31
0.0
0
LINE
8
Dust
62
3
5
18f
100
AcDbEntity
100
AcDbLine
10
7.874236
20
48.441790
30
0.0
11
8.412173
21
48.096578
31
0.0
0
LINE
8
Dust
62
3
5
190
100
AcDbEntity
100
AcDbLine
10
8.412173
20
48.096578
30
0.0
11
9.031860
21
47.729617
31
0.0
0
LINE
8
Dust
62
3
5
191
100
AcDbEntity
100
AcDbLine
10
9.031860
20
47.729617
30
0.0
11
11.096361
21
46.827135
31
0.0
0
LINE
8
Dust
62
3
5
192
100
AcDbEntity
100
AcDbLine
10
11.096361
20
46.827135
30
0.0
11
13.149845
21
45.946010
31
0.0
0
LINE
8
Dust
62
3
5
193
100
AcDbEntity
100
AcDbLine
10
13.149845
20
45.946010
30
0.0
11
15.212426
21
45.095007
31
0.0
0
LINE
8
Dust
62
3
5
194
100
AcDbEntity
100
AcDbLine
10
15.212426
20
45.095007
30
0.0
11
17.304223
21
44.282889
31
0.0
0
LINE
8
Dust
62
3
5
195
100
AcDbEntity
100
AcDbLine
10
17.304223
20
44.282889
30
0.0
11
18.164751
21
44.210273
31
0.0
0
LINE
8
Dust
62
3
5
196
100
AcDbEntity
100
AcDbLine
10
18.164751
20
44.210273
30
0.0
11
18.811999
21
44.132834
31
0.0
0
LINE
8
Dust
62
3
5
197
100
AcDbEntity
100
AcDbLine
10
18.811999
20
44.132834
30
0.0
11
19.324536
21
44.073607
31
0.0
0
LINE
8
Dust
62
3
5
198
100
AcDbEntity
100
AcDbLine
10
19.324536
20
44.073607
30
0.0
11
19.780932
21
44.055629
31
0.0
0
LINE
8
Dust
62
3
5
199
100
AcDbEntity
100
AcDbLine
10
19.780932
20
44.055629
30
0.0
11
20.370592
21
43.613245
31
0.0
0
LINE
8
Dust
62
3
5
19a
100
AcDbEntity
100
AcDbLine
10
20.370592
20
43.613245
30
0.0
11
20.955008
21
43.198797
31
0.0
0
LINE
8
Dust
62
3
5
19b
100
AcDbEntity
100
AcDbLine
10
20.955008
20
43.198797
30
0.0
11
21.506056
21
42.832893
31
0.0
0
LINE
8
Dust
62
3
5
19c
100
AcDbEntity
100
AcDbLine
10
21.506056
20
42.832893
30
0.0
11
21.995610
21
42.536136
31
0.0
0
LINE
8
Dust
62
3
5
19d
100
AcDbEntity
100
AcDbLine
10
21.995610
20
42.536136
30
0.0
11
21.995610
21
42.536136
31
0.0
0
LINE
8
Dust
62
3
5
19e
100
AcDbEntity
100
AcDbLine
10
26.262652
20
46.042090
30
0.0
11
28.793128
21
46.072418
31
0.0
0
LINE
8
Dust
62
3
5
19f
100
AcDbEntity
100
AcDbLine
10
28.793128
20
46.072418
30
0.0
11
28.962701
21
46.504039
31
0.0
0
LINE
8
Dust
62
3
5
1a0
100
AcDbEntity
100
AcDbLine
10
28.962701
20
46.504039
30
0.0
11
29.337713
21
47.421573
31
0.0
0
LINE
8
Dust
62
3
5
1a1
100
AcDbEntity
100
AcDbLine
10
29.337713
20
47.421573
30
0.0
11
30.566187
21
48.068003
31
0.0
0
LINE
8
Dust
62
3
5
1a2
100
AcDbEntity
100
AcDbLine
10
30.566187
20
48.068003
30
0.0
11
31.015141
21
48.069200
31
0.0
0
LINE
8
Dust
62
3
5
1a3
100
AcDbEntity
100
AcDbLine
10
31.015141
20
48.069200
30
0.0
11
31.340517
21
48.083281
31
0.0
0
LINE
8
Dust
62
3
5
1a4
100
AcDbEntity
100
AcDbLine
10
31.340517
20
48.083281
30
0.0
11
32.066425
21
48.247641
31
0.0
0
LINE
8
Dust
62
3
5
1a5
100
AcDbEntity
100
AcDbLine
10
32.066425
20
48.247641
30
0.0
11
32.855637
21
48.413104
31
0.0
0
LINE
8
Dust
62
3
5
1a6
100
AcDbEntity
100
AcDbLine
10
32.855637
20
48.413104
30
0.0
11
33.615384
21
48.579823
31
0.0
0
LINE
8
Dust
62
3
5
1a7
100
AcDbEntity
100
AcDbLine
10
33.615384
20
48.579823
30
0.0
11
34.252897
21
48.747953
31
0.0
0
LINE
8
Dust
62
3
5
1a8
100
AcDbEntity
100
AcDbLine
10
34.252897
20
48.747953
30
0.0
11
34.990075
21
49.746755
31
0.0
0
LINE
8
Dust
62
3
5
1a9
100
AcDbEntity
100
AcDbLine
10
34.990075
20
49.746755
30
0.0
11
35.362311
21
50.270673
31
0.0
0
LINE
8
Dust
62
3
5
1aa
100
AcDbEntity
100
AcDbLine
10
35.362311
20
50.270673
30
0.0
11
35.662880
21
50.747235
31
0.0
0
LINE
8
Dust
62
3
5
1ab
100
AcDbEntity
100
AcDbLine
10
35.662880
20
50.747235
30
0.0
11
35.965083
21
51.208627
31
0.0
0
LINE
8
Dust
62
3
5
1ac
100
AcDbEntity
100
AcDbLine
10
35.965083
20
51.208627
30
0.0
11
36.252990
21
51.681548
31
0.0
0
LINE
8
Dust
62
3
5
1ad
100
AcDbEntity
100
AcDbLine
10
36.252990
20
51.681548
30
0.0
11
36.525374
21
52.165664
31
0.0
0
LINE
8
Dust
62
3
5
1ae
100
AcDbEntity
100
AcDbLine
10
36.525374
20
52.165664
30
0.0
11
36.781009
21
52.660639
31
0.0
0
LINE
8
Dust
62
3
5
1af
100
AcDbEntity
100
AcDbLine
10
36.781009
20
52.660639
30
0.0
11
37.018667
21
53.166138
31
0.0
0
LINE
8
Dust
62
3
5
1b0
100
AcDbEntity
100
AcDbLine
10
37.018667
20
53.166138
30
0.0
11
37.237122
21
53.681829
31
0.0
0
LINE
8
Dust
62
3
5
1b1
100
AcDbEntity
100
AcDbLine
10
37.237122
20
53.681829
30
0.0
11
37.435146
21
54.207375
31
0.0
0
LINE
8
Dust
62
3
5
1b2
100
AcDbEntity
100
AcDbLine
10
37.435146
20
54.207375
30
0.0
11
37.611513
21
54.742442
31
0.0
0
LINE
8
Dust
62
3
5
1b3
100
AcDbEntity
100
AcDbLine
10
37.611513
20
54.742442
30
0.0
11
37.742996
21
55.094301
31
0.0
0
LINE
8
Dust
62
3
5
1b4
100
AcDbEntity
100
AcDbLine
10
37.742996
20
55.094301
30
0.0
11
37.794982
21
55.279108
31
0.0
0
LINE
8
Dust
62
3
5
1b5
100
AcDbEntity
100
AcDbLine
10
37.794982
20
55.279108
30
0.0
11
37.829297
21
55.463415
31
0.0
0
LINE
8
Dust
62
3
5
1b6
100
AcDbEntity
100
AcDbLine
10
37.829297
20
55.463415
30
0.0
11
37.812840
21
56.031604
31
0.0
0
LINE
8
Dust
62
3
5
1b7
100
AcDbEntity
100
AcDbLine
10
37.812840
20
56.031604
30
0.0
11
37.806051
21
56.699909
31
0.0
0
LINE
8
Dust
62
3
5
1b8
100
AcDbEntity
100
AcDbLine
10
37.806051
20
56.699909
30
0.0
11
37.792535
21
57.393361
31
0.0
0
LINE
8
Dust
62
3
5
1b9
100
AcDbEntity
100
AcDbLine
10
37.792535
20
57.393361
30
0.0
11
37.755894
21
58.036990
31
0.0
0
LINE
8
Dust
62
3
5
1ba
100
AcDbEntity
100
AcDbLine
10
37.755894
20
58.036990
30
0.0
11
37.274663
21
57.112642
31
0.0
0
LINE
8
Dust
62
3
5
1bb
100
AcDbEntity
100
AcDbLine
10
37.274663
20
57.112642
30
0.0
11
36.842207
21
56.190597
31
0.0
0
LINE
8
Dust
62
3
5
1bc
100
AcDbEntity
100
AcDbLine
10
36.842207
20
56.190597
30
0.0
11
36.451905
21
55.276148
31
0.0
0
LINE
8
Dust
62
3
5
1bd
100
AcDbEntity
100
AcDbLine
10
36.451905
20
55.276148
30
0.0
11
36.097135
21
54.374588
31
0.0
0
LINE
8
Dust
62
3
5
1be
100
AcDbEntity
100
AcDbLine
10
36.097135
20
54.374588
30
0.0
11
35.771275
21
53.491208
31
0.0
0
LINE
8
Dust
62
3
5
1bf
100
AcDbEntity
100
AcDbLine
10
35.771275
20
53.491208
30
0.0
11
35.467704
21
52.631303
31
0.0
0
LINE
8
Dust
62
3
5
1c0
100
AcDbEntity
100
AcDbLine
10
35.467704
20
52.631303
30
0.0
11
34.900940
21
51.003087
31
0.0
0
LINE
8
Dust
62
3
5
1c1
100
AcDbEntity
100
AcDbLine
10
34.900940
20
51.003087
30
0.0
11
34.506843
21
51.298339
31
0.0
0
LINE
8
Dust
62
3
5
1c2
100
AcDbEntity
100
AcDbLine
10
34.506843
20
51.298339
30
0.0
11
34.110979
21
51.634878
31
0.0
0
LINE
8
Dust
62
3
5
1c3
100
AcDbEntity
100
AcDbLine
10
34.110979
20
51.634878
30
0.0
11
33.720086
21
51.957136
31
0.0
0
LINE
8
Dust
62
3
5
1c4
100
AcDbEntity
100
AcDbLine
10
33.720086
20
51.957136
30
0.0
11
33.528609
21
52.095544
31
0.0
0
LINE
8
Dust
62
3
5
1c5
100
AcDbEntity
100
AcDbLine
10
33.528609
20
52.095544
30
0.0
11
33.340902
21
52.209545
31
0.0
0
LINE
8
Dust
62
3
5
1c6
100
AcDbEntity
100
AcDbLine
10
33.340902
20
52.209545
30
0.0
11
32.395730
21
51.550919
31
0.0
0
LINE
8
Dust
62
3
5
1c7
100
AcDbEntity
100
AcDbLine
10
32.395730
20
51.550919
30
0.0
11
31.858042
21
51.172677
31
0.0
0
LINE
8
Dust
62
3
5
1c8
100
AcDbEntity
100
AcDbLine
10
31.858042
20
51.172677
30
0.0
11
31.367786
21
50.807991
31
0.0
0
LINE
8
Dust
62
3
5
1c9
100
AcDbEntity
100
AcDbLine
10
31.367786
20
50.807991
30
0.0
11
30.935588
21
51.008140
31
0.0
0
LINE
8
Dust
62
3
5
1ca
100
AcDbEntity
100
AcDbLine
10
30.935588
20
51.008140
30
0.0
11
30.547417
21
51.213209
31
0.0
0
LINE
8
Dust
62
3
5
1cb
100
AcDbEntity
100
AcDbLine
10
30.547417
20
51.213209
30
0.0
11
29.685371
21
51.721457
31
0.0
0
LINE
8
Dust
62
3
5
1cc
100
AcDbEntity
100
AcDbLine
10
29.685371
20
51.721457
30
0.0
11
29.690446
21
52.175819
31
0.0
0
LINE
8
Dust
62
3
5
1cd
100
AcDbEntity
100
AcDbLine
10
29.690446
20
52.175819
30
0.0
11
29.655338
21
52.655479
31
0.0
0
LINE
8
Dust
62
3
5
1ce
100
AcDbEntity
100
AcDbLine
10
29.655338
20
52.655479
30
0.0
11
29.588963
21
53.143777
31
0.0
0
LINE
8
Dust
62
3
5
1cf
100
AcDbEntity
100
AcDbLine
10
29.588963
20
53.143777
30
0.0
11
29.500235
21
53.624057
31
0.0
0
LINE
8
Dust
62
3
5
1d0
100
AcDbEntity
100
AcDbLine
10
29.500235
20
53.624057
30
0.0
11
29.398069
21
54.079660
31
0.0
0
LINE
8
Dust
62
3
5
1d1
100
AcDbEntity
100
AcDbLine
10
29.398069
20
54.079660
30
0.0
11
29.291381
21
54.493927
31
0.0
0
LINE
8
Dust
62
3
5
1d2
100
AcDbEntity
100
AcDbLine
10
29.291381
20
54.493927
30
0.0
11
29.100096
21
55.131820
31
0.0
0
LINE
8
Dust
62
3
5
1d3
100
AcDbEntity
100
AcDbLine
10
29.100096
20
55.131820
30
0.0
11
29.496627
21
55.239867
31
0.0
0
LINE
8
Dust
62
3
5
1d4
100
AcDbEntity
100
AcDbLine
10
29.496627
20
55.239867
30
0.0
11
29.811370
21
55.339318
31
0.0
0
LINE
8
Dust
62
3
5
1d5
100
AcDbEntity
100
AcDbLine
10
29.811370
20
55.339318
30
0.0
11
30.120073
21
55.437823
31
0.0
0
LINE
8
Dust
62
3
5
1d6
100
AcDbEntity
100
AcDbLine
10
30.120073
20
55.437823
30
0.0
11
30.498488
21
55.543029
31
0.0
0
LINE
8
Dust
62
3
5
1d7
100
AcDbEntity
100
AcDbLine
10
30.498488
20
55.543029
30
0.0
11
30.952887
21
56.079718
31
0.0
0
LINE
8
Dust
62
3
5
1d8
100
AcDbEntity
100
AcDbLine
10
30.952887
20
56.079718
30
0.0
11
31.446867
21
56.706677
31
0.0
0
LINE
8
Dust
62
3
5
1d9
100
AcDbEntity
100
AcDbLine
10
31.446867
20
56.706677
30
0.0
11
31.920462
21
57.316785
31
0.0
0
LINE
8
Dust
62
3
5
1da
100
AcDbEntity
100
AcDbLine
10
31.920462
20
57.316785
30
0.0
11
32.313706
21
57.802923
31
0.0
0
LINE
8
Dust
62
3
5
1db
100
AcDbEntity
100
AcDbLine
10
32.313706
20
57.802923
30
0.0
11
32.723018
21
59.060392
31
0.0
0
LINE
8
Dust
62
3
5
1dc
100
AcDbEntity
100
AcDbLine
10
32.723018
20
59.060392
30
0.0
11
33.113557
21
60.362464
31
0.0
0
LINE
8
Dust
62
3
5
1dd
100
AcDbEntity
100
AcDbLine
10
33.113557
20
60.362464
30
0.0
11
33.295910
21
61.056845
31
0.0
0
LINE
8
Dust
62
3
5
1de
100
AcDbEntity
100
AcDbLine
10
33.295910
20
61.056845
30
0.0
11
33.466517
21
61.794319
31
0.0
0
LINE
8
Dust
62
3
5
1df
100
AcDbEntity
100
AcDbLine
10
33.466517
20
61.794319
30
0.0
11
33.623027
21
62.585533
31
0.0
0
LINE
8
Dust
62
3
5
1e0
100
AcDbEntity
100
AcDbLine
10
33.623027
20
62.585533
30
0.0
11
33.763091
21
63.441134
31
0.0
0
LINE
8
Dust
62
3
5
1e1
100
AcDbEntity
100
AcDbLine
10
33.763091
20
63.441134
30
0.0
11
33.487327
21
64.398508
31
0.0
0
LINE
8
Dust
62
3
5
1e2
100
AcDbEntity
100
AcDbLine
10
33.487327
20
64.398508
30
0.0
11
33.259426
21
65.271901
31
0.0
0
LINE
8
Dust
62
3
5
1e3
100
AcDbEntity
100
AcDbLine
10
33.259426
20
65.271901
30
0.0
11
33.051452
21
66.028571
31
0.0
0
LINE
8
Dust
62
3
5
1e4
100
AcDbEntity
100
AcDbLine
10
33.051452
20
66.028571
30
0.0
11
32.946209
21
66.352903
31
0.0
0
LINE
8
Dust
62
3
5
1e5
100
AcDbEntity
100
AcDbLine
10
32.946209
20
66.352903
30
0.0
11
32.835471
21
66.635777
31
0.0
0
LINE
8
Dust
62
3
5
1e6
100
AcDbEntity
100
AcDbLine
10
32.835471
20
66.635777
30
0.0
11
31.815712
21
67.926913
31
0.0
0
LINE
8
Dust
62
3
5
1e7
100
AcDbEntity
100
AcDbLine
10
31.815712
20
67.926913
30
0.0
11
31.225408
21
68.638293
31
0.0
0
LINE
8
Dust
62
3
5
1e8
100
AcDbEntity
100
AcDbLine
10
31.225408
20
68.638293
30
0.0
11
30.720457
21
69.194076
31
0.0
0
LINE
8
Dust
62
3
5
1e9
100
AcDbEntity
100
AcDbLine
10
30.720457
20
69.194076
30
0.0
11
29.092326
21
69.143058
31
0.0
0
LINE
8
Dust
62
3
5
1ea
100
AcDbEntity
100
AcDbLine
10
29.092326
20
69.143058
30
0.0
11
27.522938
21
69.074067
31
0.0
0
LINE
8
Dust
62
3
5
1eb
100
AcDbEntity
100
AcDbLine
10
27.522938
20
69.074067
30
0.0
11
24.521761
21
65.173151
31
0.0
0
LINE
8
Dust
62
3
5
1ec
100
AcDbEntity
100
AcDbLine
10
24.521761
20
65.173151
30
0.0
11
25.556058
21
65.123063
31
0.0
0
LINE
8
Dust
62
3
5
1ed
100
AcDbEntity
100
AcDbLine
10
25.556058
20
65.123063
30
0.0
11
24.581586
21
63.765174
31
0.0
0
LINE
8
Dust
62
3
5
1ee
100
AcDbEntity
100
AcDbLine
10
24.581586
20
63.765174
30
0.0
11
26.057460
21
63.612597
31
0.0
0
LINE
8
Dust
62
3
5
1ef
100
AcDbEntity
100
AcDbLine
10
26.057460
20
63.612597
30
0.0
11
25.086337
21
62.088911
31
0.0
0
LINE
8
Dust
62
3
5
1f0
100
AcDbEntity
100
AcDbLine
10
25.086337
20
62.088911
30
0.0
11
26.822600
21
61.951983
31
0.0
0
LINE
8
Dust
62
3
5
1f1
100
AcDbEntity
100
AcDbLine
10
26.822600
20
61.951983
30
0.0
11
25.211504
21
61.425114
31
0.0
0
LINE
8
Dust
62
3
5
1f2
100
AcDbEntity
100
AcDbLine
10
25.211504
20
61.425114
30
0.0
11
25.431376
21
61.284247
31
0.0
0
LINE
8
Dust
62
3
5
1f3
100
AcDbEntity
100
AcDbLine
10
25.431376
20
61.284247
30
0.0
11
25.706682
21
61.157364
31
0.0
0
LINE
8
Dust
62
3
5
1f4
100
AcDbEntity
100
AcDbLine
10
25.706682
20
61.157364
30
0.0
11
26.017805
21
61.042084
31
0.0
0
LINE
8
Dust
62
3
5
1f5
100
AcDbEntity
100
AcDbLine
10
26.017805
20
61.042084
30
0.0
11
26.345127
21
60.936027
31
0.0
0
LINE
8
Dust
62
3
5
1f6
100
AcDbEntity
100
AcDbLine
10
26.345127
20
60.936027
30
0.0
11
26.969888
21
60.742058
31
0.0
0
LINE
8
Dust
62
3
5
1f7
100
AcDbEntity
100
AcDbLine
10
26.969888
20
60.742058
30
0.0
11
27.228090
21
60.649384
31
0.0
0
LINE
8
Dust
62
3
5
1f8
100
AcDbEntity
100
AcDbLine
10
27.228090
20
60.649384
30
0.0
11
27.424016
21
60.556408
31
0.0
0
LINE
8
Dust
62
3
5
1f9
100
AcDbEntity
100
AcDbLine
10
27.424016
20
60.556408
30
0.0
11
27.713959
21
60.154828
31
0.0
0
LINE
8
Dust
62
3
5
1fa
100
AcDbEntity
100
AcDbLine
10
27.713959
20
60.154828
30
0.0
11
28.014570
21
59.662341
31
0.0
0
LINE
8
Dust
62
3
5
1fb
100
AcDbEntity
100
AcDbLine
10
28.014570
20
59.662341
30
0.0
11
28.275148
21
59.152708
31
0.0
0
LINE
8
Dust
62
3
5
1fc
100
AcDbEntity
100
AcDbLine
10
28.275148
20
59.152708
30
0.0
11
28.374582
21
58.914512
31
0.0
0
LINE
8
Dust
62
3
5
1fd
100
AcDbEntity
100
AcDbLine
10
28.374582
20
58.914512
30
0.0
11
28.444994
21
58.699690
31
0.0
0
LINE
8
Dust
62
3
5
1fe
100
AcDbEntity
100
AcDbLine
10
28.444994
20
58.699690
30
0.0
11
28.349839
21
58.468082
31
0.0
0
LINE
8
Dust
62
3
5
1ff
100
AcDbEntity
100
AcDbLine
10
28.349839
20
58.468082
30
0.0
11
28.223479
21
58.217527
31
0.0
0
LINE
8
Dust
62
3
5
200
100
AcDbEntity
100
AcDbLine
10
28.223479
20
58.217527
30
0.0
11
27.913813
21
57.683934
31
0.0
0
LINE
8
Dust
62
3
5
201
100
AcDbEntity
100
AcDbLine
10
27.913813
20
57.683934
30
0.0
11
27.589321
21
57.147616
31
0.0
0
LINE
8
Dust
62
3
5
202
100
AcDbEntity
100
AcDbLine
10
27.589321
20
57.147616
30
0.0
11
27.323328
21
56.657278
31
0.0
0
LINE
8
Dust
62
3
5
203
100
AcDbEntity
100
AcDbLine
10
27.323328
20
56.657278
30
0.0
11
27.340293
21
56.391869
31
0.0
0
LINE
8
Dust
62
3
5
204
100
AcDbEntity
100
AcDbLine
10
27.340293
20
56.391869
30
0.0
11
27.388980
21
56.034548
31
0.0
0
LINE
8
Dust
62
3
5
205
100
AcDbEntity
100
AcDbLine
10
27.388980
20
56.034548
30
0.0
11
27.539623
21
55.201114
31
0.0
0
LINE
8
Dust
62
3
5
206
100
AcDbEntity
100
AcDbLine
10
27.539623
20
55.201114
30
0.0
11
27.760693
21
54.157698
31
0.0
0
LINE
8
Dust
62
3
5
207
100
AcDbEntity
100
AcDbLine
10
27.760693
20
54.157698
30
0.0
11
27.129535
21
54.463075
31
0.0
0
LINE
8
Dust
62
3
5
208
100
AcDbEntity
100
AcDbLine
10
27.129535
20
54.463075
30
0.0
11
26.614264
21
54.698797
31
0.0
0
LINE
8
Dust
62
3
5
209
100
AcDbEntity
100
AcDbLine
10
26.614264
20
54.698797
30
0.0
11
26.209133
21
54.860097
31
0.0
0
LINE
8
Dust
62
3
5
20a
100
AcDbEntity
100
AcDbLine
10
26.209133
20
54.860097
30
0.0
11
26.266138
21
54.584262
31
0.0
0
LINE
8
Dust
62
3
5
20b
100
AcDbEntity
100
AcDbLine
10
26.266138
20
54.584262
30
0.0
11
26.372241
21
54.261080
31
0.0
0
LINE
8
Dust
62
3
5
20c
100
AcDbEntity
100
AcDbLine
10
26.372241
20
54.261080
30
0.0
11
26.524482
21
53.929772
31
0.0
0
LINE
8
Dust
62
3
5
20d
100
AcDbEntity
100
AcDbLine
10
26.524482
20
53.929772
30
0.0
11
26.616979
21
53.773327
31
0.0
0
LINE
8
Dust
62
3
5
20e
100
AcDbEntity
100
AcDbLine
10
26.616979
20
53.773327
30
0.0
11
26.719901
21
53.629558
31
0.0
0
LINE
8
Dust
62
3
5
20f
100
AcDbEntity
100
AcDbLine
10
26.719901
20
53.629558
30
0.0
11
27.004464
21
52.942144
31
0.0
0
LINE
8
Dust
62
3
5
210
100
AcDbEntity
100
AcDbLine
10
27.004464
20
52.942144
30
0.0
11
27.311299
21
52.270323
31
0.0
0
LINE
8
Dust
62
3
5
211
100
AcDbEntity
100
AcDbLine
10
27.311299
20
52.270323
30
0.0
11
27.622323
21
51.605969
31
0.0
0
LINE
8
Dust
62
3
5
212
100
AcDbEntity
100
AcDbLine
10
27.622323
20
51.605969
30
0.0
11
27.919453
21
50.940953
31
0.0
0
LINE
8
Dust
62
3
5
213
100
AcDbEntity
100
AcDbLine
10
27.919453
20
50.940953
30
0.0
11
28.184607
21
50.267147
31
0.0
0
LINE
8
Dust
62
3
5
214
100
AcDbEntity
100
AcDbLine
10
28.184607
20
50.267147
30
0.0
11
28.299543
21
49.924409
31
0.0
0
LINE
8
Dust
62
3
5
215
100
AcDbEntity
100
AcDbLine
10
28.299543
20
49.924409
30
0.0
11
28.399703
21
49.576425
31
0.0
0
LINE
8
Dust
62
3
5
216
100
AcDbEntity
100
AcDbLine
10
28.399703
20
49.576425
30
0.0
11
28.482828
21
49.222180
31
0.0
0
LINE
8
Dust
62
3
5
217
100
AcDbEntity
100
AcDbLine
10
28.482828
20
49.222180
30
0.0
11
28.546657
21
48.860657
31
0.0
0
LINE
8
Dust
62
3
5
218
100
AcDbEntity
100
AcDbLine
10
28.546657
20
48.860657
30
0.0
11
28.588931
21
48.490842
31
0.0
0
LINE
8
Dust
62
3
5
219
100
AcDbEntity
100
AcDbLine
10
28.588931
20
48.490842
30
0.0
11
28.607388
21
48.111717
31
0.0
0
LINE
8
Dust
62
3
5
21a
100
AcDbEntity
100
AcDbLine
10
28.607388
20
48.111717
30
0.0
11
26.262652
21
46.042090
31
0.0
0
LINE
8
Dust
62
3
5
21b
100
AcDbEntity
100
AcDbLine
10
29.680059
20
69.754919
30
0.0
11
29.886947
21
69.869746
31
0.0
0
LINE
8
Dust
62
3
5
21c
100
AcDbEntity
100
AcDbLine
10
29.886947
20
69.869746
30
0.0
11
30.026693
21
70.004024
31
0.0
0
LINE
8
Dust
62
3
5
21d
100
AcDbEntity
100
AcDbLine
10
30.026693
20
70.004024
30
0.0
11
30.109418
21
70.152016
31
0.0
0
LINE
8
Dust
62
3
5
21e
100
AcDbEntity
100
AcDbLine
10
30.109418
20
70.152016
30
0.0
11
30.145244
21
70.307988
31
0.0
0
LINE
8
Dust
62
3
5
21f
100
AcDbEntity
100
AcDbLine
10
30.145244
20
70.307988
30
0.0
11
30.144292
21
70.466205
31
0.0
0
LINE
8
Dust
62
3
5
220
100
AcDbEntity
100
AcDbLine
10
30.144292
20
70.466205
30
0.0
11
30.116683
21
70.620930
31
0.0
0
LINE
8
Dust
62
3
5
221
100
AcDbEntity
100
AcDbLine
10
30.116683
20
70.620930
30
0.0
11
30.021980
21
70.896966
31
0.0
0
LINE
8
Dust
62
3
5
222
100
AcDbEntity
100
AcDbLine
10
30.021980
20
70.896966
30
0.0
11
29.896622
21
71.396159
31
0.0
0
LINE
8
Dust
62
3
5
223
100
AcDbEntity
100
AcDbLine
10
29.896622
20
71.396159
30
0.0
11
29.840350
21
71.629157
31
0.0
0
LINE
8
Dust
62
3
5
224
100
AcDbEntity
100
AcDbLine
10
29.840350
20
71.629157
30
0.0
11
29.761708
21
71.891483
31
0.0
0
LINE
8
Dust
62
3
5
225
100
AcDbEntity
100
AcDbLine
10
29.761708
20
71.891483
30
0.0
11
29.646168
21
72.156954
31
0.0
0
LINE
8
Dust
62
3
5
226
100
AcDbEntity
100
AcDbLine
10
29.646168
20
72.156954
30
0.0
11
29.515388
21
72.335769
31
0.0
0
LINE
8
Dust
62
3
5
227
100
AcDbEntity
100
AcDbLine
10
29.515388
20
72.335769
30
0.0
11
29.345777
21
72.482521
31
0.0
0
LINE
8
Dust
62
3
5
228
100
AcDbEntity
100
AcDbLine
10
29.345777
20
72.482521
30
0.0
11
29.113746
21
72.651801
31
0.0
0
LINE
8
Dust
62
3
5
229
100
AcDbEntity
100
AcDbLine
10
29.113746
20
72.651801
30
0.0
11
28.814529
21
72.539191
31
0.0
0
LINE
8
Dust
62
3
5
22a
100
AcDbEntity
100
AcDbLine
10
28.814529
20
72.539191
30
0.0
11
28.457582
21
72.390344
31
0.0
0
LINE
8
Dust
62
3
5
22b
100
AcDbEntity
100
AcDbLine
10
28.457582
20
72.390344
30
0.0
11
28.091219
21
72.243395
31
0.0
0
LINE
8
Dust
62
3
5
22c
100
AcDbEntity
100
AcDbLine
10
28.091219
20
72.243395
30
0.0
11
27.763754
21
72.136479
31
0.0
0
LINE
8
Dust
62
3
5
22d
100
AcDbEntity
100
AcDbLine
10
27.763754
20
72.136479
30
0.0
11
27.108631
21
72.319214
31
0.0
0
LINE
8
Dust
62
3
5
22e
100
AcDbEntity
100
AcDbLine
10
27.108631
20
72.319214
30
0.0
11
26.447521
21
72.474282
31
0.0
0
LINE
8
Dust
62
3
5
22f
100
AcDbEntity
100
AcDbLine
10
26.447521
20
72.474282
30
0.0
11
25.297828
21
72.828989
31
0.0
0
LINE
8
Dust
62
3
5
230
100
AcDbEntity
100
AcDbLine
10
25.297828
20
72.828989
30
0.0
11
24.153482
21
73.204303
31
0.0
0
LINE
8
Dust
62
3
5
231
100
AcDbEntity
100
AcDbLine
10
24.153482
20
73.204303
30
0.0
11
24.073836
21
73.180251
31
0.0
0
LINE
8
Dust
62
3
5
232
100
AcDbEntity
100
AcDbLine
10
24.073836
20
73.180251
30
0.0
11
23.994289
21
73.111486
31
0.0
0
LINE
8
Dust
62
3
5
233
100
AcDbEntity
100
AcDbLine
10
23.994289
20
73.111486
30
0.0
11
23.915318
21
73.008970
31
0.0
0
LINE
8
Dust
62
3
5
234
100
AcDbEntity
100
AcDbLine
10
23.915318
20
73.008970
30
0.0
11
23.837403
21
72.883662
31
0.0
0
LINE
8
Dust
62
3
5
235
100
AcDbEntity
100
AcDbLine
10
23.837403
20
72.883662
30
0.0
11
23.686655
21
72.608518
31
0.0
0
LINE
8
Dust
62
3
5
236
100
AcDbEntity
100
AcDbLine
10
23.686655
20
72.608518
30
0.0
11
23.545872
21
72.373743
31
0.0
0
LINE
8
Dust
62
3
5
237
100
AcDbEntity
100
AcDbLine
10
23.545872
20
72.373743
30
0.0
11
23.405524
21
72.116908
31
0.0
0
LINE
8
Dust
62
3
5
238
100
AcDbEntity
100
AcDbLine
10
23.405524
20
72.116908
30
0.0
11
23.286942
21
71.854968
31
0.0
0
LINE
8
Dust
62
3
5
239
100
AcDbEntity
100
AcDbLine
10
23.286942
20
71.854968
30
0.0
11
23.184992
21
71.585879
31
0.0
0
LINE
8
Dust
62
3
5
23a
100
AcDbEntity
100
AcDbLine
10
23.184992
20
71.585879
30
0.0
11
23.094541
21
71.307599
31
0.0
0
LINE
8
Dust
62
3
5
23b
100
AcDbEntity
100
AcDbLine
10
23.094541
20
71.307599
30
0.0
11
22.862411
21
70.676249
31
0.0
0
LINE
8
Dust
62
3
5
23c
100
AcDbEntity
100
AcDbLine
10
22.862411
20
70.676249
30
0.0
11
22.644670
21
70.011252
31
0.0
0
LINE
8
Dust
62
3
5
23d
100
AcDbEntity
100
AcDbLine
10
22.644670
20
70.011252
30
0.0
11
22.229606
21
68.703303
31
0.0
0
LINE
8
Dust
62
3
5
23e
100
AcDbEntity
100
AcDbLine
10
22.229606
20
68.703303
30
0.0
11
22.198132
21
68.554800
31
0.0
0
LINE
8
Dust
62
3
5
23f
100
AcDbEntity
100
AcDbLine
10
22.198132
20
68.554800
30
0.0
11
22.198753
21
68.436212
31
0.0
0
LINE
8
Dust
62
3
5
240
100
AcDbEntity
100
AcDbLine
10
22.198753
20
68.436212
30
0.0
11
22.233603
21
68.352693
31
0.0
0
LINE
8
Dust
62
3
5
241
100
AcDbEntity
100
AcDbLine
10
22.233603
20
68.352693
30
0.0
11
22.304813
21
68.309396
31
0.0
0
LINE
8
Dust
62
3
5
242
100
AcDbEntity
100
AcDbLine
10
22.304813
20
68.309396
30
0.0
11
22.414517
21
68.311476
31
0.0
0
LINE
8
Dust
62
3
5
243
100
AcDbEntity
100
AcDbLine
10
22.414517
20
68.311476
30
0.0
11
22.564848
21
68.364087
31
0.0
0
LINE
8
Dust
62
3
5
244
100
AcDbEntity
100
AcDbLine
10
22.564848
20
68.364087
30
0.0
11
22.757937
21
68.472382
31
0.0
0
LINE
8
Dust
62
3
5
245
100
AcDbEntity
100
AcDbLine
10
22.757937
20
68.472382
30
0.0
11
22.995919
21
68.641516
31
0.0
0
LINE
8
Dust
62
3
5
246
100
AcDbEntity
100
AcDbLine
10
22.995919
20
68.641516
30
0.0
11
23.118294
21
68.705311
31
0.0
0
LINE
8
Dust
62
3
5
247
100
AcDbEntity
100
AcDbLine
10
23.118294
20
68.705311
30
0.0
11
23.246224
21
68.750735
31
0.0
0
LINE
8
Dust
62
3
5
248
100
AcDbEntity
100
AcDbLine
10
23.246224
20
68.750735
30
0.0
11
23.509296
21
68.834337
31
0.0
0
LINE
8
Dust
62
3
5
249
100
AcDbEntity
100
AcDbLine
10
23.509296
20
68.834337
30
0.0
11
23.639712
21
68.896450
31
0.0
0
LINE
8
Dust
62
3
5
24a
100
AcDbEntity
100
AcDbLine
10
23.639712
20
68.896450
30
0.0
11
23.766232
21
68.988060
31
0.0
0
LINE
8
Dust
62
3
5
24b
100
AcDbEntity
100
AcDbLine
10
23.766232
20
68.988060
30
0.0
11
23.886493
21
69.121136
31
0.0
0
LINE
8
Dust
62
3
5
24c
100
AcDbEntity
100
AcDbLine
10
23.886493
20
69.121136
30
0.0
11
23.998132
21
69.307644
31
0.0
0
LINE
8
Dust
62
3
5
24d
100
AcDbEntity
100
AcDbLine
10
23.998132
20
69.307644
30
0.0
11
24.138099
21
69.409815
31
0.0
0
LINE
8
Dust
62
3
5
24e
100
AcDbEntity
100
AcDbLine
10
24.138099
20
69.409815
30
0.0
11
24.269341
21
69.459894
31
0.0
0
LINE
8
Dust
62
3
5
24f
100
AcDbEntity
100
AcDbLine
10
24.269341
20
69.459894
30
0.0
11
24.392810
21
69.463737
31
0.0
0
LINE
8
Dust
62
3
5
250
100
AcDbEntity
100
AcDbLine
10
24.392810
20
69.463737
30
0.0
11
24.509459
21
69.427200
31
0.0
0
LINE
8
Dust
62
3
5
251
100
AcDbEntity
100
AcDbLine
10
24.509459
20
69.427200
30
0.0
11
24.620240
21
69.356136
31
0.0
0
LINE
8
Dust
62
3
5
252
100
AcDbEntity
100
AcDbLine
10
24.620240
20
69.356136
30
0.0
11
24.726106
21
69.256401
31
0.0
0
LINE
8
Dust
62
3
5
253
100
AcDbEntity
100
AcDbLine
10
24.726106
20
69.256401
30
0.0
11
24.926904
21
68.994336
31
0.0
0
LINE
8
Dust
62
3
5
254
100
AcDbEntity
100
AcDbLine
10
24.926904
20
68.994336
30
0.0
11
25.230037
21
69.227014
31
0.0
0
LINE
8
Dust
62
3
5
255
100
AcDbEntity
100
AcDbLine
10
25.230037
20
69.227014
30
0.0
11
25.339321
21
69.292772
31
0.0
0
LINE
8
Dust
62
3
5
256
100
AcDbEntity
100
AcDbLine
10
25.339321
20
69.292772
30
0.0
11
25.479012
21
69.355240
31
0.0
0
LINE
8
Dust
62
3
5
257
100
AcDbEntity
100
AcDbLine
10
25.479012
20
69.355240
30
0.0
11
25.692439
21
69.504047
31
0.0
0
LINE
8
Dust
62
3
5
258
100
AcDbEntity
100
AcDbLine
10
25.692439
20
69.504047
30
0.0
11
25.903738
21
69.678801
31
0.0
0
LINE
8
Dust
62
3
5
259
100
AcDbEntity
100
AcDbLine
10
25.903738
20
69.678801
30
0.0
11
26.012641
21
69.759214
31
0.0
0
LINE
8
Dust
62
3
5
25a
100
AcDbEntity
100
AcDbLine
10
26.012641
20
69.759214
30
0.0
11
26.125875
21
69.826080
31
0.0
0
LINE
8
Dust
62
3
5
25b
100
AcDbEntity
100
AcDbLine
10
26.125875
20
69.826080
30
0.0
11
26.245059
21
69.872720
31
0.0
0
LINE
8
Dust
62
3
5
25c
100
AcDbEntity
100
AcDbLine
10
26.245059
20
69.872720
30
0.0
11
26.371814
21
69.892458
31
0.0
0
LINE
8
Dust
62
3
5
25d
100
AcDbEntity
100
AcDbLine
10
26.371814
20
69.892458
30
0.0
11
26.516781
21
69.873742
31
0.0
0
LINE
8
Dust
62
3
5
25e
100
AcDbEntity
100
AcDbLine
10
26.516781
20
69.873742
30
0.0
11
26.652242
21
69.837721
31
0.0
0
LINE
8
Dust
62
3
5
25f
100
AcDbEntity
100
AcDbLine
10
26.652242
20
69.837721
30
0.0
11
26.906617
21
69.733753
31
0.0
0
LINE
8
Dust
62
3
5
260
100
AcDbEntity
100
AcDbLine
10
26.906617
20
69.733753
30
0.0
11
27.158882
21
69.620535
31
0.0
0
LINE
8
Dust
62
3
5
261
100
AcDbEntity
100
AcDbLine
10
27.158882
20
69.620535
30
0.0
11
27.291706
21
69.572952
31
0.0
0
LINE
8
Dust
62
3
5
262
100
AcDbEntity
100
AcDbLine
10
27.291706
20
69.572952
30
0.0
11
27.432980
21
69.538049
31
0.0
0
LINE
8
Dust
62
3
5
263
100
AcDbEntity
100
AcDbLine
10
27.432980
20
69.538049
30
0.0
11
27.839381
21
69.317790
31
0.0
0
LINE
8
Dust
62
3
5
264
100
AcDbEntity
100
AcDbLine
10
27.839381
20
69.317790
30
0.0
11
28.005134
21
69.249891
31
0.0
0
LINE
8
Dust
62
3
5
265
100
AcDbEntity
100
AcDbLine
10
28.005134
20
69.249891
30
0.0
11
28.072938
21
69.235608
31
0.0
0
LINE
8
Dust
62
3
5
266
100
AcDbEntity
100
AcDbLine
10
28.072938
20
69.235608
30
0.0
11
28.128518
21
69.237908
31
0.0
0
LINE
8
Dust
62
3
5
267
100
AcDbEntity
100
AcDbLine
10
28.128518
20
69.237908
30
0.0
11
28.515375
21
69.399498
31
0.0
0
LINE
8
Dust
62
3
5
268
100
AcDbEntity
100
AcDbLine
10
28.515375
20
69.399498
30
0.0
11
28.924596
21
69.530985
31
0.0
0
LINE
8
Dust
62
3
5
269
100
AcDbEntity
100
AcDbLine
10
28.924596
20
69.530985
30
0.0
11
29.323662
21
69.645186
31
0.0
0
LINE
8
Dust
62
3
5
26a
100
AcDbEntity
100
AcDbLine
10
29.323662
20
69.645186
30
0.0
11
29.680059
21
69.754919
31
0.0
0
LINE
8
Dust
62
3
5
26b
100
AcDbEntity
100
AcDbLine
10
29.680059
20
69.754919
30
0.0
11
29.680059
21
69.754919
31
0.0
0
LINE
8
Dust
62
3
5
26c
100
AcDbEntity
100
AcDbLine
10
34.891407
20
64.649393
30
0.0
11
34.630314
21
65.141124
31
0.0
0
LINE
8
Dust
62
3
5
26d
100
AcDbEntity
100
AcDbLine
10
34.630314
20
65.141124
30
0.0
11
34.373127
21
65.632059
31
0.0
0
LINE
8
Dust
62
3
5
26e
100
AcDbEntity
100
AcDbLine
10
34.373127
20
65.632059
30
0.0
11
34.232011
21
65.893867
31
0.0
0
LINE
8
Dust
62
3
5
26f
100
AcDbEntity
100
AcDbLine
10
34.232011
20
65.893867
30
0.0
11
34.111722
21
66.151106
31
0.0
0
LINE
8
Dust
62
3
5
270
100
AcDbEntity
100
AcDbLine
10
34.111722
20
66.151106
30
0.0
11
33.991349
21
66.408061
31
0.0
0
LINE
8
Dust
62
3
5
271
100
AcDbEntity
100
AcDbLine
10
33.991349
20
66.408061
30
0.0
11
33.849980
21
66.669018
31
0.0
0
LINE
8
Dust
62
3
5
272
100
AcDbEntity
100
AcDbLine
10
33.849980
20
66.669018
30
0.0
11
33.599993
21
67.187671
31
0.0
0
LINE
8
Dust
62
3
5
273
100
AcDbEntity
100
AcDbLine
10
33.599993
20
67.187671
30
0.0
11
33.447833
21
67.443633
31
0.0
0
LINE
8
Dust
62
3
5
274
100
AcDbEntity
100
AcDbLine
10
33.447833
20
67.443633
30
0.0
11
33.362317
21
67.558079
31
0.0
0
LINE
8
Dust
62
3
5
275
100
AcDbEntity
100
AcDbLine
10
33.362317
20
67.558079
30
0.0
11
33.269503
21
67.658666
31
0.0
0
LINE
8
Dust
62
3
5
276
100
AcDbEntity
100
AcDbLine
10
33.269503
20
67.658666
30
0.0
11
32.823831
21
68.197097
31
0.0
0
LINE
8
Dust
62
3
5
277
100
AcDbEntity
100
AcDbLine
10
32.823831
20
68.197097
30
0.0
11
32.361388
21
68.720632
31
0.0
0
LINE
8
Dust
62
3
5
278
100
AcDbEntity
100
AcDbLine
10
32.361388
20
68.720632
30
0.0
11
32.366476
21
69.510765
31
0.0
0
LINE
8
Dust
62
3
5
279
100
AcDbEntity
100
AcDbLine
10
32.366476
20
69.510765
30
0.0
11
32.349222
21
70.312211
31
0.0
0
LINE
8
Dust
62
3
5
27a
100
AcDbEntity
100
AcDbLine
10
32.349222
20
70.312211
30
0.0
11
32.280489
21
70.589029
31
0.0
0
LINE
8
Dust
62
3
5
27b
100
AcDbEntity
100
AcDbLine
10
32.280489
20
70.589029
30
0.0
11
32.206417
21
70.832435
31
0.0
0
LINE
8
Dust
62
3
5
27c
100
AcDbEntity
100
AcDbLine
10
32.206417
20
70.832435
30
0.0
11
32.046557
21
71.349322
31
0.0
0
LINE
8
Dust
62
3
5
27d
100
AcDbEntity
100
AcDbLine
10
32.046557
20
71.349322
30
0.0
11
31.994135
21
71.488237
31
0.0
0
LINE
8
Dust
62
3
5
27e
100
AcDbEntity
100
AcDbLine
10
31.994135
20
71.488237
30
0.0
11
31.929437
21
71.617324
31
0.0
0
LINE
8
Dust
62
3
5
27f
100
AcDbEntity
100
AcDbLine
10
31.929437
20
71.617324
30
0.0
11
31.780544
21
71.859694
31
0.0
0
LINE
8
Dust
62
3
5
280
100
AcDbEntity
100
AcDbLine
10
31.780544
20
71.859694
30
0.0
11
31.634535
21
72.103782
31
0.0
0
LINE
8
Dust
62
3
5
281
100
AcDbEntity
100
AcDbLine
10
31.634535
20
72.103782
30
0.0
11
31.573442
21
72.235018
31
0.0
0
LINE
8
Dust
62
3
5
282
100
AcDbEntity
100
AcDbLine
10
31.573442
20
72.235018
30
0.0
11
31.526066
21
72.376940
31
0.0
0
LINE
8
Dust
62
3
5
283
100
AcDbEntity
100
AcDbLine
10
31.526066
20
72.376940
30
0.0
11
31.444454
21
72.662634
31
0.0
0
LINE
8
Dust
62
3
5
284
100
AcDbEntity
100
AcDbLine
10
31.444454
20
72.662634
30
0.0
11
31.336611
21
72.943369
31
0.0
0
LINE
8
Dust
62
3
5
285
100
AcDbEntity
100
AcDbLine
10
31.336611
20
72.943369
30
0.0
11
31.236194
21
73.225480
31
0.0
0
LINE
8
Dust
62
3
5
286
100
AcDbEntity
100
AcDbLine
10
31.236194
20
73.225480
30
0.0
11
31.199288
21
73.369030
31
0.0
0
LINE
8
Dust
62
3
5
287
100
AcDbEntity
100
AcDbLine
10
31.199288
20
73.369030
30
0.0
11
31.176860
21
73.515299
31
0.0
0
LINE
8
Dust
62
3
5
288
100
AcDbEntity
100
AcDbLine
10
31.176860
20
73.515299
30
0.0
11
31.181177
21
73.608574
31
0.0
0
LINE
8
Dust
62
3
5
289
100
AcDbEntity
100
AcDbLine
10
31.181177
20
73.608574
30
0.0
11
31.198163
21
73.682342
31
0.0
0
LINE
8
Dust
62
3
5
28a
100
AcDbEntity
100
AcDbLine
10
31.198163
20
73.682342
30
0.0
11
31.226022
21
73.737714
31
0.0
0
LINE
8
Dust
62
3
5
28b
100
AcDbEntity
100
AcDbLine
10
31.226022
20
73.737714
30
0.0
11
31.262957
21
73.775801
31
0.0
0
LINE
8
Dust
62
3
5
28c
100
AcDbEntity
100
AcDbLine
10
31.262957
20
73.775801
30
0.0
11
31.307170
21
73.797713
31
0.0
0
LINE
8
Dust
62
3
5
28d
100
AcDbEntity
100
AcDbLine
10
31.307170
20
73.797713
30
0.0
11
31.356865
21
73.804562
31
0.0
0
LINE
8
Dust
62
3
5
28e
100
AcDbEntity
100
AcDbLine
10
31.356865
20
73.804562
30
0.0
11
31.465509
21
73.777510
31
0.0
0
LINE
8
Dust
62
3
5
28f
100
AcDbEntity
100
AcDbLine
10
31.465509
20
73.777510
30
0.0
11
31.574513
21
73.703530
31
0.0
0
LINE
8
Dust
62
3
5
290
100
AcDbEntity
100
AcDbLine
10
31.574513
20
73.703530
30
0.0
11
31.669500
21
73.591509
31
0.0
0
LINE
8
Dust
62
3
5
291
100
AcDbEntity
100
AcDbLine
10
31.669500
20
73.591509
30
0.0
11
31.736092
21
73.450330
31
0.0
0
LINE
8
Dust
62
3
5
292
100
AcDbEntity
100
AcDbLine
10
31.736092
20
73.450330
30
0.0
11
31.759913
21
73.288880
31
0.0
0
LINE
8
Dust
62
3
5
293
100
AcDbEntity
100
AcDbLine
10
31.759913
20
73.288880
30
0.0
11
31.926888
21
72.834807
31
0.0
0
LINE
8
Dust
62
3
5
294
100
AcDbEntity
100
AcDbLine
10
31.926888
20
72.834807
30
0.0
11
32.114629
21
72.390615
31
0.0
0
LINE
8
Dust
62
3
5
295
100
AcDbEntity
100
AcDbLine
10
32.114629
20
72.390615
30
0.0
11
32.304742
21
71.946866
31
0.0
0
LINE
8
Dust
62
3
5
296
100
AcDbEntity
100
AcDbLine
10
32.304742
20
71.946866
30
0.0
11
32.478837
21
71.494123
31
0.0
0
LINE
8
Dust
62
3
5
297
100
AcDbEntity
100
AcDbLine
10
32.478837
20
71.494123
30
0.0
11
32.581491
21
71.243002
31
0.0
0
LINE
8
Dust
62
3
5
298
100
AcDbEntity
100
AcDbLine
10
32.581491
20
71.243002
30
0.0
11
32.668445
21
70.993672
31
0.0
0
LINE
8
Dust
62
3
5
299
100
AcDbEntity
100
AcDbLine
10
32.668445
20
70.993672
30
0.0
11
32.759841
21
70.746816
31
0.0
0
LINE
8
Dust
62
3
5
29a
100
AcDbEntity
100
AcDbLine
10
32.759841
20
70.746816
30
0.0
11
32.875823
21
70.503117
31
0.0
0
LINE
8
Dust
62
3
5
29b
100
AcDbEntity
100
AcDbLine
10
32.875823
20
70.503117
30
0.0
11
32.901777
21
70.357473
31
0.0
0
LINE
8
Dust
62
3
5
29c
100
AcDbEntity
100
AcDbLine
10
32.901777
20
70.357473
30
0.0
11
32.948654
21
70.212565
31
0.0
0
LINE
8
Dust
62
3
5
29d
100
AcDbEntity
100
AcDbLine
10
32.948654
20
70.212565
30
0.0
11
33.013531
21
70.070866
31
0.0
0
LINE
8
Dust
62
3
5
29e
100
AcDbEntity
100
AcDbLine
10
33.013531
20
70.070866
30
0.0
11
33.093482
21
69.934850
31
0.0
0
LINE
8
Dust
62
3
5
29f
100
AcDbEntity
100
AcDbLine
10
33.093482
20
69.934850
30
0.0
11
33.286909
21
69.689764
31
0.0
0
LINE
8
Dust
62
3
5
2a0
100
AcDbEntity
100
AcDbLine
10
33.286909
20
69.689764
30
0.0
11
33.505542
21
69.497099
31
0.0
0
LINE
8
Dust
62
3
5
2a1
100
AcDbEntity
100
AcDbLine
10
33.505542
20
69.497099
30
0.0
11
33.678595
21
69.321869
31
0.0
0
LINE
8
Dust
62
3
5
2a2
100
AcDbEntity
100
AcDbLine
10
33.678595
20
69.321869
30
0.0
11
33.862574
21
69.161026
31
0.0
0
LINE
8
Dust
62
3
5
2a3
100
AcDbEntity
100
AcDbLine
10
33.862574
20
69.161026
30
0.0
11
34.047834
21
69.001541
31
0.0
0
LINE
8
Dust
62
3
5
2a4
100
AcDbEntity
100
AcDbLine
10
34.047834
20
69.001541
30
0.0
11
34.224731
21
68.830386
31
0.0
0
LINE
8
Dust
62
3
5
2a5
100
AcDbEntity
100
AcDbLine
10
34.224731
20
68.830386
30
0.0
11
34.405942
21
68.565988
31
0.0
0
LINE
8
Dust
62
3
5
2a6
100
AcDbEntity
100
AcDbLine
10
34.405942
20
68.565988
30
0.0
11
34.574663
21
68.290214
31
0.0
0
LINE
8
Dust
62
3
5
2a7
100
AcDbEntity
100
AcDbLine
10
34.574663
20
68.290214
30
0.0
11
34.877004
21
67.725076
31
0.0
0
LINE
8
Dust
62
3
5
2a8
100
AcDbEntity
100
AcDbLine
10
34.877004
20
67.725076
30
0.0
11
35.136495
21
67.176043
31
0.0
0
LINE
8
Dust
62
3
5
2a9
100
AcDbEntity
100
AcDbLine
10
35.136495
20
67.176043
30
0.0
11
35.357877
21
66.684188
31
0.0
0
LINE
8
Dust
62
3
5
2aa
100
AcDbEntity
100
AcDbLine
10
35.357877
20
66.684188
30
0.0
11
35.567242
21
66.108850
31
0.0
0
LINE
8
Dust
62
3
5
2ab
100
AcDbEntity
100
AcDbLine
10
35.567242
20
66.108850
30
0.0
11
35.652123
21
65.822894
31
0.0
0
LINE
8
Dust
62
3
5
2ac
100
AcDbEntity
100
AcDbLine
10
35.652123
20
65.822894
30
0.0
11
35.698317
21
65.520911
31
0.0
0
LINE
8
Dust
62
3
5
2ad
100
AcDbEntity
100
AcDbLine
10
35.698317
20
65.520911
30
0.0
11
35.537578
21
65.316181
31
0.0
0
LINE
8
Dust
62
3
5
2ae
100
AcDbEntity
100
AcDbLine
10
35.537578
20
65.316181
30
0.0
11
35.389100
21
65.173502
31
0.0
0
LINE
8
Dust
62
3
5
2af
100
AcDbEntity
100
AcDbLine
10
35.389100
20
65.173502
30
0.0
11
35.255791
21
65.060150
31
0.0
0
LINE
8
Dust
62
3
5
2b0
100
AcDbEntity
100
AcDbLine
10
35.255791
20
65.060150
30
0.0
11
35.140561
21
64.943403
31
0.0
0
LINE
8
Dust
62
3
5
2b1
100
AcDbEntity
100
AcDbLine
10
35.140561
20
64.943403
30
0.0
11
35.045462
21
64.810421
31
0.0
0
LINE
8
Dust
62
3
5
2b2
100
AcDbEntity
100
AcDbLine
10
35.045462
20
64.810421
30
0.0
11
34.986308
21
64.739059
31
0.0
0
LINE
8
Dust
62
3
5
2b3
100
AcDbEntity
100
AcDbLine
10
34.986308
20
64.739059
30
0.0
11
34.891407
21
64.649393
31
0.0
0
LINE
8
Dust
62
3
5
2b4
100
AcDbEntity
100
AcDbLine
10
34.891407
20
64.649393
30
0.0
11
34.891407
21
64.649393
31
0.0
0
LINE
8
Filaments
62
5
5
2b5
100
AcDbEntity
100
AcDbLine
10
10.531723
20
66.614921
30
0.0
11
9.872572
21
66.739086
31
0.0
0
LINE
8
Filaments
62
5
5
2b6
100
AcDbEntity
100
AcDbLine
10
9.872572
20
66.739086
30
0.0
11
9.019716
21
63.276219
31
0.0
0
LINE
8
Filaments
62
5
5
2b7
100
AcDbEntity
100
AcDbLine
10
9.019716
20
63.276219
30
0.0
11
9.088497
21
62.763308
31
0.0
0
LINE
8
Filaments
62
5
5
2b8
100
AcDbEntity
100
AcDbLine
10
9.088497
20
62.763308
30
0.0
11
9.125160
21
62.267159
31
0.0
0
LINE
8
Filaments
62
5
5
2b9
100
AcDbEntity
100
AcDbLine
10
9.125160
20
62.267159
30
0.0
11
9.119693
21
61.782779
31
0.0
0
LINE
8
Filaments
62
5
5
2ba
100
AcDbEntity
100
AcDbLine
10
9.119693
20
61.782779
30
0.0
11
9.062086
21
61.305173
31
0.0
0
LINE
8
Filaments
62
5
5
2bb
100
AcDbEntity
100
AcDbLine
10
9.062086
20
61.305173
30
0.0
11
9.010601
21
61.067349
31
0.0
0
LINE
8
Filaments
62
5
5
2bc
100
AcDbEntity
100
AcDbLine
10
9.010601
20
61.067349
30
0.0
11
8.942326
21
60.829347
31
0.0
0
LINE
8
Filaments
62
5
5
2bd
100
AcDbEntity
100
AcDbLine
10
8.942326
20
60.829347
30
0.0
11
8.856011
21
60.590541
31
0.0
0
LINE
8
Filaments
62
5
5
2be
100
AcDbEntity
100
AcDbLine
10
8.856011
20
60.590541
30
0.0
11
8.750403
21
60.350307
31
0.0
0
LINE
8
Filaments
62
5
5
2bf
100
AcDbEntity
100
AcDbLine
10
8.750403
20
60.350307
30
0.0
11
8.624251
21
60.108021
31
0.0
0
LINE
8
Filaments
62
5
5
2c0
100
AcDbEntity
100
AcDbLine
10
8.624251
20
60.108021
30
0.0
11
8.476305
21
59.863059
31
0.0
0
LINE
8
Filaments
62
5
5
2c1
100
AcDbEntity
100
AcDbLine
10
8.476305
20
59.863059
30
0.0
11
8.305312
21
59.614796
31
0.0
0
LINE
8
Filaments
62
5
5
2c2
100
AcDbEntity
100
AcDbLine
10
8.305312
20
59.614796
30
0.0
11
8.110021
21
59.362609
31
0.0
0
LINE
8
Filaments
62
5
5
2c3
100
AcDbEntity
100
AcDbLine
10
8.110021
20
59.362609
30
0.0
11
7.986962
21
58.425347
31
0.0
0
LINE
8
Filaments
62
5
5
2c4
100
AcDbEntity
100
AcDbLine
10
7.986962
20
58.425347
30
0.0
11
7.737863
21
56.797105
31
0.0
0
LINE
8
Filaments
62
5
5
2c5
100
AcDbEntity
100
AcDbLine
10
7.737863
20
56.797105
30
0.0
11
7.474580
21
55.063146
31
0.0
0
LINE
8
Filaments
62
5
5
2c6
100
AcDbEntity
100
AcDbLine
10
7.474580
20
55.063146
30
0.0
11
7.308968
21
53.808729
31
0.0
0
LINE
8
Filaments
62
5
5
2c7
100
AcDbEntity
100
AcDbLine
10
7.308968
20
53.808729
30
0.0
11
8.017312
21
52.858516
31
0.0
0
LINE
8
Filaments
62
5
5
2c8
100
AcDbEntity
100
AcDbLine
10
8.017312
20
52.858516
30
0.0
11
8.640224
21
52.006732
31
0.0
0
LINE
8
Filaments
62
5
5
2c9
100
AcDbEntity
100
AcDbLine
10
8.640224
20
52.006732
30
0.0
11
8.935915
21
51.894124
31
0.0
0
LINE
8
Filaments
62
5
5
2ca
100
AcDbEntity
100
AcDbLine
10
8.935915
20
51.894124
30
0.0
11
9.188693
21
51.776985
31
0.0
0
LINE
8
Filaments
62
5
5
2cb
100
AcDbEntity
100
AcDbLine
10
9.188693
20
51.776985
30
0.0
11
9.439467
21
51.615763
31
0.0
0
LINE
8
Filaments
62
5
5
2cc
100
AcDbEntity
100
AcDbLine
10
9.439467
20
51.615763
30
0.0
11
9.729143
21
51.370903
31
0.0
0
LINE
8
Filaments
62
5
5
2cd
100
AcDbEntity
100
AcDbLine
10
9.729143
20
51.370903
30
0.0
11
10.098629
21
51.002849
31
0.0
0
LINE
8
Filaments
62
5
5
2ce
100
AcDbEntity
100
AcDbLine
10
10.098629
20
51.002849
30
0.0
11
10.588832
21
50.472048
31
0.0
0
LINE
8
Filaments
62
5
5
2cf
100
AcDbEntity
100
AcDbLine
10
10.588832
20
50.472048
30
0.0
11
12.095016
21
48.763984
31
0.0
0
LINE
8
Filaments
62
5
5
2d0
100
AcDbEntity
100
AcDbLine
10
12.095016
20
48.763984
30
0.0
11
16.265567
21
48.744233
31
0.0
0
LINE
8
Filaments
62
5
5
2d1
100
AcDbEntity
100
AcDbLine
10
16.265567
20
48.744233
30
0.0
11
16.649740
21
49.191072
31
0.0
0
LINE
8
Filaments
62
5
5
2d2
100
AcDbEntity
100
AcDbLine
10
16.649740
20
49.191072
30
0.0
11
17.164699
21
49.729314
31
0.0
0
LINE
8
Filaments
62
5
5
2d3
100
AcDbEntity
100
AcDbLine
10
17.164699
20
49.729314
30
0.0
11
17.870040
21
49.156955
31
0.0
0
LINE
8
Filaments
62
5
5
2d4
100
AcDbEntity
100
AcDbLine
10
17.870040
20
49.156955
30
0.0
11
18.828986
21
48.433095
31
0.0
0
LINE
8
Filaments
62
5
5
2d5
100
AcDbEntity
100
AcDbLine
10
18.828986
20
48.433095
30
0.0
11
19.385983
21
48.039187
31
0.0
0
LINE
8
Filaments
62
5
5
2d6
100
AcDbEntity
100
AcDbLine
10
19.385983
20
48.039187
30
0.0
11
19.985289
21
47.637204
31
0.0
0
LINE
8
Filaments
62
5
5
2d7
100
AcDbEntity
100
AcDbLine
10
19.985289
20
47.637204
30
0.0
11
20.619873
21
47.237082
31
0.0
0
LINE
8
Filaments
62
5
5
2d8
100
AcDbEntity
100
AcDbLine
10
20.619873
20
47.237082
30
0.0
11
21.282704
21
46.848753
31
0.0
0
LINE
8
Filaments
62
5
5
2d9
100
AcDbEntity
100
AcDbLine
10
21.282704
20
46.848753
30
0.0
11
20.971991
21
47.118454
31
0.0
0
LINE
8
Filaments
62
5
5
2da
100
AcDbEntity
100
AcDbLine
10
20.971991
20
47.118454
30
0.0
11
20.541970
21
47.461106
31
0.0
0
LINE
8
Filaments
62
5
5
2db
100
AcDbEntity
100
AcDbLine
10
20.541970
20
47.461106
30
0.0
11
19.444336
21
48.316359
31
0.0
0
LINE
8
Filaments
62
5
5
2dc
100
AcDbEntity
100
AcDbLine
10
19.444336
20
48.316359
30
0.0
11
18.836886
21
48.804507
31
0.0
0
LINE
8
Filaments
62
5
5
2dd
100
AcDbEntity
100
AcDbLine
10
18.836886
20
48.804507
30
0.0
11
18.230456
21
49.316702
31
0.0
0
LINE
8
Filaments
62
5
5
2de
100
AcDbEntity
100
AcDbLine
10
18.230456
20
49.316702
30
0.0
11
17.655130
21
49.840717
31
0.0
0
LINE
8
Filaments
62
5
5
2df
100
AcDbEntity
100
AcDbLine
10
17.655130
20
49.840717
30
0.0
11
17.140988
21
50.364327
31
0.0
0
LINE
8
Filaments
62
5
5
2e0
100
AcDbEntity
100
AcDbLine
10
17.140988
20
50.364327
30
0.0
11
16.820357
21
50.150643
31
0.0
0
LINE
8
Filaments
62
5
5
2e1
100
AcDbEntity
100
AcDbLine
10
16.820357
20
50.150643
30
0.0
11
16.171798
21
49.711430
31
0.0
0
LINE
8
Filaments
62
5
5
2e2
100
AcDbEntity
100
AcDbLine
10
16.171798
20
49.711430
30
0.0
11
15.720847
21
50.008121
31
0.0
0
LINE
8
Filaments
62
5
5
2e3
100
AcDbEntity
100
AcDbLine
10
15.720847
20
50.008121
30
0.0
11
15.250785
21
50.339421
31
0.0
0
LINE
8
Filaments
62
5
5
2e4
100
AcDbEntity
100
AcDbLine
10
15.250785
20
50.339421
30
0.0
11
14.869383
21
50.609862
31
0.0
0
LINE
8
Filaments
62
5
5
2e5
100
AcDbEntity
100
AcDbLine
10
14.869383
20
50.609862
30
0.0
11
14.684413
21
50.723975
31
0.0
0
LINE
8
Filaments
62
5
5
2e6
100
AcDbEntity
100
AcDbLine
10
14.684413
20
50.723975
30
0.0
11
13.056508
21
50.856134
31
0.0
0
LINE
8
Filaments
62
5
5
2e7
100
AcDbEntity
100
AcDbLine
10
13.056508
20
50.856134
30
0.0
11
12.233399
21
50.117191
31
0.0
0
LINE
8
Filaments
62
5
5
2e8
100
AcDbEntity
100
AcDbLine
10
12.233399
20
50.117191
30
0.0
11
11.926610
21
50.358442
31
0.0
0
LINE
8
Filaments
62
5
5
2e9
100
AcDbEntity
100
AcDbLine
10
11.926610
20
50.358442
30
0.0
11
11.548266
21
50.699893
31
0.0
0
LINE
8
Filaments
62
5
5
2ea
100
AcDbEntity
100
AcDbLine
10
11.548266
20
50.699893
30
0.0
11
11.179540
21
51.043627
31
0.0
0
LINE
8
Filaments
62
5
5
2eb
100
AcDbEntity
100
AcDbLine
10
11.179540
20
51.043627
30
0.0
11
10.901602
21
51.291730
31
0.0
0
LINE
8
Filaments
62
5
5
2ec
100
AcDbEntity
100
AcDbLine
10
10.901602
20
51.291730
30
0.0
11
10.898259
21
51.781292
31
0.0
0
LINE
8
Filaments
62
5
5
2ed
100
AcDbEntity
100
AcDbLine
10
10.898259
20
51.781292
30
0.0
11
10.919835
21
52.345613
31
0.0
0
LINE
8
Filaments
62
5
5
2ee
100
AcDbEntity
100
AcDbLine
10
10.919835
20
52.345613
30
0.0
11
10.977940
21
53.519114
31
0.0
0
LINE
8
Filaments
62
5
5
2ef
100
AcDbEntity
100
AcDbLine
10
10.977940
20
53.519114
30
0.0
11
9.879594
21
53.519447
31
0.0
0
LINE
8
Filaments
62
5
5
2f0
100
AcDbEntity
100
AcDbLine
10
9.879594
20
53.519447
30
0.0
11
10.883548
21
54.622786
31
0.0
0
LINE
8
Filaments
62
5
5
2f1
100
AcDbEntity
100
AcDbLine
10
10.883548
20
54.622786
30
0.0
11
9.871581
21
55.059117
31
0.0
0
LINE
8
Filaments
62
5
5
2f2
100
AcDbEntity
100
AcDbLine
10
9.871581
20
55.059117
30
0.0
11
9.923326
21
55.325933
31
0.0
0
LINE
8
Filaments
62
5
5
2f3
100
AcDbEntity
100
AcDbLine
10
9.923326
20
55.325933
30
0.0
11
9.991475
21
55.599324
31
0.0
0
LINE
8
Filaments
62
5
5
2f4
100
AcDbEntity
100
AcDbLine
10
9.991475
20
55.599324
30
0.0
11
10.164746
21
56.174773
31
0.0
0
LINE
8
Filaments
62
5
5
2f5
100
AcDbEntity
100
AcDbLine
10
10.164746
20
56.174773
30
0.0
11
10.366922
21
56.803342
31
0.0
0
LINE
8
Filaments
62
5
5
2f6
100
AcDbEntity
100
AcDbLine
10
10.366922
20
56.803342
30
0.0
11
10.573529
21
57.502912
31
0.0
0
LINE
8
Filaments
62
5
5
2f7
100
AcDbEntity
100
AcDbLine
10
10.573529
20
57.502912
30
0.0
11
10.496034
21
57.942427
31
0.0
0
LINE
8
Filaments
62
5
5
2f8
100
AcDbEntity
100
AcDbLine
10
10.496034
20
57.942427
30
0.0
11
10.428926
21
58.422520
31
0.0
0
LINE
8
Filaments
62
5
5
2f9
100
AcDbEntity
100
AcDbLine
10
10.428926
20
58.422520
30
0.0
11
10.373497
21
58.977162
31
0.0
0
LINE
8
Filaments
62
5
5
2fa
100
AcDbEntity
100
AcDbLine
10
10.373497
20
58.977162
30
0.0
11
10.331043
21
59.640321
31
0.0
0
LINE
8
Filaments
62
5
5
2fb
100
AcDbEntity
100
AcDbLine
10
10.331043
20
59.640321
30
0.0
11
10.302855
21
60.445965
31
0.0
0
LINE
8
Filaments
62
5
5
2fc
100
AcDbEntity
100
AcDbLine
10
10.302855
20
60.445965
30
0.0
11
10.290227
21
61.428065
31
0.0
0
LINE
8
Filaments
62
5
5
2fd
100
AcDbEntity
100
AcDbLine
10
10.290227
20
61.428065
30
0.0
11
10.294453
21
62.620589
31
0.0
0
LINE
8
Filaments
62
5
5
2fe
100
AcDbEntity
100
AcDbLine
10
10.294453
20
62.620589
30
0.0
11
10.316826
21
64.057506
31
0.0
0
LINE
8
Filaments
62
5
5
2ff
100
AcDbEntity
100
AcDbLine
10
10.316826
20
64.057506
30
0.0
11
10.456608
21
65.516870
31
0.0
0
LINE
8
Filaments
62
5
5
300
100
AcDbEntity
100
AcDbLine
10
10.456608
20
65.516870
30
0.0
11
10.531723
21
66.614893
31
0.0
0
LINE
8
Filaments
62
5
5
301
100
AcDbEntity
100
AcDbLine
10
10.531723
20
66.614893
30
0.0
11
10.531723
21
66.614921
31
0.0
0
LINE
8
Filaments
62
5
5
302
100
AcDbEntity
100
AcDbLine
10
23.638049
20
71.174866
30
0.0
11
22.072501
21
68.575487
31
0.0
0
LINE
8
Filaments
62
5
5
303
100
AcDbEntity
100
AcDbLine
10
22.072501
20
68.575487
30
0.0
11
22.375220
21
68.112819
31
0.0
0
LINE
8
Filaments
62
5
5
304
100
AcDbEntity
100
AcDbLine
10
22.375220
20
68.112819
30
0.0
11
23.438472
21
68.813588
31
0.0
0
LINE
8
Filaments
62
5
5
305
100
AcDbEntity
100
AcDbLine
10
23.438472
20
68.813588
30
0.0
11
24.144363
21
68.230627
31
0.0
0
LINE
8
Filaments
62
5
5
306
100
AcDbEntity
100
AcDbLine
10
24.144363
20
68.230627
30
0.0
11
24.682964
21
68.652420
31
0.0
0
LINE
8
Filaments
62
5
5
307
100
AcDbEntity
100
AcDbLine
10
24.682964
20
68.652420
30
0.0
11
25.226915
21
69.060838
31
0.0
0
LINE
8
Filaments
62
5
5
308
100
AcDbEntity
100
AcDbLine
10
25.226915
20
69.060838
30
0.0
11
25.784029
21
69.436350
31
0.0
0
LINE
8
Filaments
62
5
5
309
100
AcDbEntity
100
AcDbLine
10
25.784029
20
69.436350
30
0.0
11
26.069963
21
69.605664
31
0.0
0
LINE
8
Filaments
62
5
5
30a
100
AcDbEntity
100
AcDbLine
10
26.069963
20
69.605664
30
0.0
11
26.362117
21
69.759427
31
0.0
0
LINE
8
Filaments
62
5
5
30b
100
AcDbEntity
100
AcDbLine
10
26.362117
20
69.759427
30
0.0
11
26.448224
21
69.748375
31
0.0
0
LINE
8
Filaments
62
5
5
30c
100
AcDbEntity
100
AcDbLine
10
26.448224
20
69.748375
30
0.0
11
26.617532
21
69.688700
31
0.0
0
LINE
8
Filaments
62
5
5
30d
100
AcDbEntity
100
AcDbLine
10
26.617532
20
69.688700
30
0.0
11
27.107181
21
69.478247
31
0.0
0
LINE
8
Filaments
62
5
5
30e
100
AcDbEntity
100
AcDbLine
10
27.107181
20
69.478247
30
0.0
11
28.000631
21
69.076330
31
0.0
0
LINE
8
Filaments
62
5
5
30f
100
AcDbEntity
100
AcDbLine
10
28.000631
20
69.076330
30
0.0
11
28.015888
21
69.056808
31
0.0
0
LINE
8
Filaments
62
5
5
310
100
AcDbEntity
100
AcDbLine
10
28.015888
20
69.056808
30
0.0
11
28.007386
21
69.020201
31
0.0
0
LINE
8
Filaments
62
5
5
311
100
AcDbEntity
100
AcDbLine
10
28.007386
20
69.020201
30
0.0
11
27.924916
21
68.899863
31
0.0
0
LINE
8
Filaments
62
5
5
312
100
AcDbEntity
100
AcDbLine
10
27.924916
20
68.899863
30
0.0
11
27.764843
21
68.723571
31
0.0
0
LINE
8
Filaments
62
5
5
313
100
AcDbEntity
100
AcDbLine
10
27.764843
20
68.723571
30
0.0
11
27.538791
21
68.499579
31
0.0
0
LINE
8
Filaments
62
5
5
314
100
AcDbEntity
100
AcDbLine
10
27.538791
20
68.499579
30
0.0
11
26.935242
21
67.941521
31
0.0
0
LINE
8
Filaments
62
5
5
315
100
AcDbEntity
100
AcDbLine
10
26.935242
20
67.941521
30
0.0
11
26.207256
21
67.291732
31
0.0
0
LINE
8
Filaments
62
5
5
316
100
AcDbEntity
100
AcDbLine
10
26.207256
20
67.291732
30
0.0
11
25.447818
21
66.616254
31
0.0
0
LINE
8
Filaments
62
5
5
317
100
AcDbEntity
100
AcDbLine
10
25.447818
20
66.616254
30
0.0
11
24.749915
21
65.981131
31
0.0
0
LINE
8
Filaments
62
5
5
318
100
AcDbEntity
100
AcDbLine
10
24.749915
20
65.981131
30
0.0
11
24.206531
21
65.452404
31
0.0
0
LINE
8
Filaments
62
5
5
319
100
AcDbEntity
100
AcDbLine
10
24.206531
20
65.452404
30
0.0
11
24.021843
21
65.248578
31
0.0
0
LINE
8
Filaments
62
5
5
31a
100
AcDbEntity
100
AcDbLine
10
24.021843
20
65.248578
30
0.0
11
23.910654
21
65.096118
31
0.0
0
LINE
8
Filaments
62
5
5
31b
100
AcDbEntity
100
AcDbLine
10
23.910654
20
65.096118
30
0.0
11
24.305638
21
64.861572
31
0.0
0
LINE
8
Filaments
62
5
5
31c
100
AcDbEntity
100
AcDbLine
10
24.305638
20
64.861572
30
0.0
11
24.811186
21
64.525740
31
0.0
0
LINE
8
Filaments
62
5
5
31d
100
AcDbEntity
100
AcDbLine
10
24.811186
20
64.525740
30
0.0
11
25.432167
21
64.093953
31
0.0
0
LINE
8
Filaments
62
5
5
31e
100
AcDbEntity
100
AcDbLine
10
25.432167
20
64.093953
30
0.0
11
24.909888
21
63.544896
31
0.0
0
LINE
8
Filaments
62
5
5
31f
100
AcDbEntity
100
AcDbLine
10
24.909888
20
63.544896
30
0.0
11
25.649267
21
62.844579
31
0.0
0
LINE
8
Filaments
62
5
5
320
100
AcDbEntity
100
AcDbLine
10
25.649267
20
62.844579
30
0.0
11
25.087569
21
61.961530
31
0.0
0
LINE
8
Filaments
62
5
5
321
100
AcDbEntity
100
AcDbLine
10
25.087569
20
61.961530
30
0.0
11
26.000924
21
61.912976
31
0.0
0
LINE
8
Filaments
62
5
5
322
100
AcDbEntity
100
AcDbLine
10
26.000924
20
61.912976
30
0.0
11
25.731261
21
60.815183
31
0.0
0
LINE
8
Filaments
62
5
5
323
100
AcDbEntity
100
AcDbLine
10
25.731261
20
60.815183
30
0.0
11
28.362188
21
58.228090
31
0.0
0
LINE
8
Filaments
62
5
5
324
100
AcDbEntity
100
AcDbLine
10
28.362188
20
58.228090
30
0.0
11
28.022824
21
57.038232
31
0.0
0
LINE
8
Filaments
62
5
5
325
100
AcDbEntity
100
AcDbLine
10
28.022824
20
57.038232
30
0.0
11
27.738241
21
56.104836
31
0.0
0
LINE
8
Filaments
62
5
5
326
100
AcDbEntity
100
AcDbLine
10
27.738241
20
56.104836
30
0.0
11
27.607948
21
55.715084
31
0.0
0
LINE
8
Filaments
62
5
5
327
100
AcDbEntity
100
AcDbLine
10
27.607948
20
55.715084
30
0.0
11
27.501167
21
55.438176
31
0.0
0
LINE
8
Filaments
62
5
5
328
100
AcDbEntity
100
AcDbLine
10
27.501167
20
55.438176
30
0.0
11
27.374197
21
55.252574
31
0.0
0
LINE
8
Filaments
62
5
5
329
100
AcDbEntity
100
AcDbLine
10
27.374197
20
55.252574
30
0.0
11
27.231176
21
55.102430
31
0.0
0
LINE
8
Filaments
62
5
5
32a
100
AcDbEntity
100
AcDbLine
10
27.231176
20
55.102430
30
0.0
11
27.078005
21
54.977942
31
0.0
0
LINE
8
Filaments
62
5
5
32b
100
AcDbEntity
100
AcDbLine
10
27.078005
20
54.977942
30
0.0
11
26.920585
21
54.869308
31
0.0
0
LINE
8
Filaments
62
5
5
32c
100
AcDbEntity
100
AcDbLine
10
26.920585
20
54.869308
30
0.0
11
26.616605
21
54.660396
31
0.0
0
LINE
8
Filaments
62
5
5
32d
100
AcDbEntity
100
AcDbLine
10
26.616605
20
54.660396
30
0.0
11
26.481849
21
54.540515
31
0.0
0
LINE
8
Filaments
62
5
5
32e
100
AcDbEntity
100
AcDbLine
10
26.481849
20
54.540515
30
0.0
11
26.366451
21
54.397280
31
0.0
0
LINE
8
Filaments
62
5
5
32f
100
AcDbEntity
100
AcDbLine
10
26.366451
20
54.397280
30
0.0
11
26.343989
21
53.868810
31
0.0
0
LINE
8
Filaments
62
5
5
330
100
AcDbEntity
100
AcDbLine
10
26.343989
20
53.868810
30
0.0
11
28.526820
21
55.465946
31
0.0
0
LINE
8
Filaments
62
5
5
331
100
AcDbEntity
100
AcDbLine
10
28.526820
20
55.465946
30
0.0
11
28.905872
21
58.180588
31
0.0
0
LINE
8
Filaments
62
5
5
332
100
AcDbEntity
100
AcDbLine
10
28.905872
20
58.180588
30
0.0
11
27.586958
21
60.684970
31
0.0
0
LINE
8
Filaments
62
5
5
333
100
AcDbEntity
100
AcDbLine
10
27.586958
20
60.684970
30
0.0
11
26.782040
21
61.038951
31
0.0
0
LINE
8
Filaments
62
5
5
334
100
AcDbEntity
100
AcDbLine
10
26.782040
20
61.038951
30
0.0
11
26.753905
21
61.523663
31
0.0
0
LINE
8
Filaments
62
5
5
335
100
AcDbEntity
100
AcDbLine
10
26.753905
20
61.523663
30
0.0
11
26.703232
21
62.070781
31
0.0
0
LINE
8
Filaments
62
5
5
336
100
AcDbEntity
100
AcDbLine
10
26.703232
20
62.070781
30
0.0
11
26.628987
21
62.666301
31
0.0
0
LINE
8
Filaments
62
5
5
337
100
AcDbEntity
100
AcDbLine
10
26.628987
20
62.666301
30
0.0
11
26.530137
21
63.296218
31
0.0
0
LINE
8
Filaments
62
5
5
338
100
AcDbEntity
100
AcDbLine
10
26.530137
20
63.296218
30
0.0
11
26.405651
21
63.946527
31
0.0
0
LINE
8
Filaments
62
5
5
339
100
AcDbEntity
100
AcDbLine
10
26.405651
20
63.946527
30
0.0
11
26.254493
21
64.603226
31
0.0
0
LINE
8
Filaments
62
5
5
33a
100
AcDbEntity
100
AcDbLine
10
26.254493
20
64.603226
30
0.0
11
26.075633
21
65.252308
31
0.0
0
LINE
8
Filaments
62
5
5
33b
100
AcDbEntity
100
AcDbLine
10
26.075633
20
65.252308
30
0.0
11
25.868036
21
65.879770
31
0.0
0
LINE
8
Filaments
62
5
5
33c
100
AcDbEntity
100
AcDbLine
10
25.868036
20
65.879770
30
0.0
11
26.055820
21
65.967451
31
0.0
0
LINE
8
Filaments
62
5
5
33d
100
AcDbEntity
100
AcDbLine
10
26.055820
20
65.967451
30
0.0
11
26.200534
21
66.018936
31
0.0
0
LINE
8
Filaments
62
5
5
33e
100
AcDbEntity
100
AcDbLine
10
26.200534
20
66.018936
30
0.0
11
27.216369
21
66.315957
31
0.0
0
LINE
8
Filaments
62
5
5
33f
100
AcDbEntity
100
AcDbLine
10
27.216369
20
66.315957
30
0.0
11
27.405924
21
66.655698
31
0.0
0
LINE
8
Filaments
62
5
5
340
100
AcDbEntity
100
AcDbLine
10
27.405924
20
66.655698
30
0.0
11
27.629185
21
67.093232
31
0.0
0
LINE
8
Filaments
62
5
5
341
100
AcDbEntity
100
AcDbLine
10
27.629185
20
67.093232
30
0.0
11
28.104558
21
68.090526
31
0.0
0
LINE
8
Filaments
62
5
5
342
100
AcDbEntity
100
AcDbLine
10
28.104558
20
68.090526
30
0.0
11
28.497962
21
68.965530
31
0.0
0
LINE
8
Filaments
62
5
5
343
100
AcDbEntity
100
AcDbLine
10
28.497962
20
68.965530
30
0.0
11
28.664866
21
69.375937
31
0.0
0
LINE
8
Filaments
62
5
5
344
100
AcDbEntity
100
AcDbLine
10
28.664866
20
69.375937
30
0.0
11
28.757563
21
70.458948
31
0.0
0
LINE
8
Filaments
62
5
5
345
100
AcDbEntity
100
AcDbLine
10
28.757563
20
70.458948
30
0.0
11
25.921284
21
70.668842
31
0.0
0
LINE
8
Filaments
62
5
5
346
100
AcDbEntity
100
AcDbLine
10
25.921284
20
70.668842
30
0.0
11
23.638049
21
71.174866
31
0.0
0
LINE
8
Filaments
62
5
5
347
100
AcDbEntity
100
AcDbLine
10
32.319744
20
71.586512
30
0.0
11
32.086363
21
68.852654
31
0.0
0
LINE
8
Filaments
62
5
5
348
100
AcDbEntity
100
AcDbLine
10
32.086363
20
68.852654
30
0.0
11
32.732916
21
68.389450
31
0.0
0
LINE
8
Filaments
62
5
5
349
100
AcDbEntity
100
AcDbLine
10
32.732916
20
68.389450
30
0.0
11
33.398544
21
67.958036
31
0.0
0
LINE
8
Filaments
62
5
5
34a
100
AcDbEntity
100
AcDbLine
10
33.398544
20
67.958036
30
0.0
11
34.083620
21
67.559036
31
0.0
0
LINE
8
Filaments
62
5
5
34b
100
AcDbEntity
100
AcDbLine
10
34.083620
20
67.559036
30
0.0
11
34.788517
21
67.193070
31
0.0
0
LINE
8
Filaments
62
5
5
34c
100
AcDbEntity
100
AcDbLine
10
34.788517
20
67.193070
30
0.0
11
33.278840
21
69.370333
31
0.0
0
LINE
8
Filaments
62
5
5
34d
100
AcDbEntity
100
AcDbLine
10
33.278840
20
69.370333
30
0.0
11
33.245603
21
70.860417
31
0.0
0
LINE
8
Filaments
62
5
5
34e
100
AcDbEntity
100
AcDbLine
10
33.245603
20
70.860417
30
0.0
11
32.319744
21
71.586512
31
0.0
0
LINE
8
Gasses
62
1
5
34f
100
AcDbEntity
100
AcDbLine
10
24.764406
20
55.571036
30
0.0
11
24.905013
21
55.721551
31
0.0
0
LINE
8
Gasses
62
1
5
350
100
AcDbEntity
100
AcDbLine
10
24.905013
20
55.721551
30
0.0
11
25.036929
21
55.900391
31
0.0
0
LINE
8
Gasses
62
1
5
351
100
AcDbEntity
100
AcDbLine
10
25.036929
20
55.900391
30
0.0
11
25.151725
21
56.095541
31
0.0
0
LINE
8
Gasses
62
1
5
352
100
AcDbEntity
100
AcDbLine
10
25.151725
20
56.095541
30
0.0
11
25.240972
21
56.294985
31
0.0
0
LINE
8
Gasses
62
1
5
353
100
AcDbEntity
100
AcDbLine
10
25.240972
20
56.294985
30
0.0
11
25.209767
21
56.381905
31
0.0
0
LINE
8
Gasses
62
1
5
354
100
AcDbEntity
100
AcDbLine
10
25.209767
20
56.381905
30
0.0
11
25.197702
21
56.475444
31
0.0
0
LINE
8
Gasses
62
1
5
355
100
AcDbEntity
100
AcDbLine
10
25.197702
20
56.475444
30
0.0
11
25.204159
21
56.573561
31
0.0
0
LINE
8
Gasses
62
1
5
356
100
AcDbEntity
100
AcDbLine
10
25.204159
20
56.573561
30
0.0
11
25.228521
21
56.674220
31
0.0
0
LINE
8
Gasses
62
1
5
357
100
AcDbEntity
100
AcDbLine
10
25.228521
20
56.674220
30
0.0
11
25.270170
21
56.775380
31
0.0
0
LINE
8
Gasses
62
1
5
358
100
AcDbEntity
100
AcDbLine
10
25.270170
20
56.775380
30
0.0
11
25.328490
21
56.875003
31
0.0
0
LINE
8
Gasses
62
1
5
359
100
AcDbEntity
100
AcDbLine
10
25.328490
20
56.875003
30
0.0
11
25.402863
21
56.971052
31
0.0
0
LINE
8
Gasses
62
1
5
35a
100
AcDbEntity
100
AcDbLine
10
25.402863
20
56.971052
30
0.0
11
25.492672
21
57.061486
31
0.0
0
LINE
8
Gasses
62
1
5
35b
100
AcDbEntity
100
AcDbLine
10
25.492672
20
57.061486
30
0.0
11
25.772982
21
57.075608
31
0.0
0
LINE
8
Gasses
62
1
5
35c
100
AcDbEntity
100
AcDbLine
10
25.772982
20
57.075608
30
0.0
11
26.032253
21
57.070575
31
0.0
0
LINE
8
Gasses
62
1
5
35d
100
AcDbEntity
100
AcDbLine
10
26.032253
20
57.070575
30
0.0
11
26.271507
21
57.256590
31
0.0
0
LINE
8
Gasses
62
1
5
35e
100
AcDbEntity
100
AcDbLine
10
26.271507
20
57.256590
30
0.0
11
26.536963
21
57.429293
31
0.0
0
LINE
8
Gasses
62
1
5
35f
100
AcDbEntity
100
AcDbLine
10
26.536963
20
57.429293
30
0.0
11
26.625955
21
57.207979
31
0.0
0
LINE
8
Gasses
62
1
5
360
100
AcDbEntity
100
AcDbLine
10
26.625955
20
57.207979
30
0.0
11
26.667387
21
57.119036
31
0.0
0
LINE
8
Gasses
62
1
5
361
100
AcDbEntity
100
AcDbLine
10
26.667387
20
57.119036
30
0.0
11
26.722434
21
57.039524
31
0.0
0
LINE
8
Gasses
62
1
5
362
100
AcDbEntity
100
AcDbLine
10
26.722434
20
57.039524
30
0.0
11
26.802843
21
56.965662
31
0.0
0
LINE
8
Gasses
62
1
5
363
100
AcDbEntity
100
AcDbLine
10
26.802843
20
56.965662
30
0.0
11
26.920358
21
56.893665
31
0.0
0
LINE
8
Gasses
62
1
5
364
100
AcDbEntity
100
AcDbLine
10
26.920358
20
56.893665
30
0.0
11
27.086724
21
56.819751
31
0.0
0
LINE
8
Gasses
62
1
5
365
100
AcDbEntity
100
AcDbLine
10
27.086724
20
56.819751
30
0.0
11
27.313684
21
56.740137
31
0.0
0
LINE
8
Gasses
62
1
5
366
100
AcDbEntity
100
AcDbLine
10
27.313684
20
56.740137
30
0.0
11
26.927765
21
55.940599
31
0.0
0
LINE
8
Gasses
62
1
5
367
100
AcDbEntity
100
AcDbLine
10
26.927765
20
55.940599
30
0.0
11
26.765613
21
55.591703
31
0.0
0
LINE
8
Gasses
62
1
5
368
100
AcDbEntity
100
AcDbLine
10
26.765613
20
55.591703
30
0.0
11
26.621873
21
55.236288
31
0.0
0
LINE
8
Gasses
62
1
5
369
100
AcDbEntity
100
AcDbLine
10
26.621873
20
55.236288
30
0.0
11
26.165911
21
54.946678
31
0.0
0
LINE
8
Gasses
62
1
5
36a
100
AcDbEntity
100
AcDbLine
10
26.165911
20
54.946678
30
0.0
11
26.047073
21
54.848450
31
0.0
0
LINE
8
Gasses
62
1
5
36b
100
AcDbEntity
100
AcDbLine
10
26.047073
20
54.848450
30
0.0
11
25.980635
21
54.771162
31
0.0
0
LINE
8
Gasses
62
1
5
36c
100
AcDbEntity
100
AcDbLine
10
25.980635
20
54.771162
30
0.0
11
25.951329
21
54.707231
31
0.0
0
LINE
8
Gasses
62
1
5
36d
100
AcDbEntity
100
AcDbLine
10
25.951329
20
54.707231
30
0.0
11
25.943882
21
54.649073
31
0.0
0
LINE
8
Gasses
62
1
5
36e
100
AcDbEntity
100
AcDbLine
10
25.943882
20
54.649073
30
0.0
11
25.933486
21
54.519746
31
0.0
0
LINE
8
Gasses
62
1
5
36f
100
AcDbEntity
100
AcDbLine
10
25.933486
20
54.519746
30
0.0
11
25.940670
21
54.466218
31
0.0
0
LINE
8
Gasses
62
1
5
370
100
AcDbEntity
100
AcDbLine
10
25.940670
20
54.466218
30
0.0
11
25.916690
21
54.422463
31
0.0
0
LINE
8
Gasses
62
1
5
371
100
AcDbEntity
100
AcDbLine
10
25.916690
20
54.422463
30
0.0
11
25.868038
21
54.387092
31
0.0
0
LINE
8
Gasses
62
1
5
372
100
AcDbEntity
100
AcDbLine
10
25.868038
20
54.387092
30
0.0
11
25.801207
21
54.358714
31
0.0
0
LINE
8
Gasses
62
1
5
373
100
AcDbEntity
100
AcDbLine
10
25.801207
20
54.358714
30
0.0
11
25.638975
21
54.317380
31
0.0
0
LINE
8
Gasses
62
1
5
374
100
AcDbEntity
100
AcDbLine
10
25.638975
20
54.317380
30
0.0
11
25.481932
21
54.287346
31
0.0
0
LINE
8
Gasses
62
1
5
375
100
AcDbEntity
100
AcDbLine
10
25.481932
20
54.287346
30
0.0
11
25.132054
21
54.879699
31
0.0
0
LINE
8
Gasses
62
1
5
376
100
AcDbEntity
100
AcDbLine
10
25.132054
20
54.879699
30
0.0
11
24.764406
21
55.571039
31
0.0
0
LINE
8
Gasses
62
1
5
377
100
AcDbEntity
100
AcDbLine
10
24.764406
20
55.571039
30
0.0
11
24.764406
21
55.571036
31
0.0
0
LINE
8
Gasses
62
1
5
378
100
AcDbEntity
100
AcDbLine
10
3.277223
20
58.008848
30
0.0
11
4.297148
21
58.957461
31
0.0
0
LINE
8
Gasses
62
1
5
379
100
AcDbEntity
100
AcDbLine
10
4.297148
20
58.957461
30
0.0
11
5.576380
21
60.112333
31
0.0
0
LINE
8
Gasses
62
1
5
37a
100
AcDbEntity
100
AcDbLine
10
5.576380
20
60.112333
30
0.0
11
6.806988
21
61.200548
31
0.0
0
LINE
8
Gasses
62
1
5
37b
100
AcDbEntity
100
AcDbLine
10
6.806988
20
61.200548
30
0.0
11
7.681040
21
61.949190
31
0.0
0
LINE
8
Gasses
62
1
5
37c
100
AcDbEntity
100
AcDbLine
10
7.681040
20
61.949190
30
0.0
11
8.303285
21
64.579893
31
0.0
0
LINE
8
Gasses
62
1
5
37d
100
AcDbEntity
100
AcDbLine
10
8.303285
20
64.579893
30
0.0
11
8.595431
21
65.076917
31
0.0
0
LINE
8
Gasses
62
1
5
37e
100
AcDbEntity
100
AcDbLine
10
8.595431
20
65.076917
30
0.0
11
8.869095
21
65.571808
31
0.0
0
LINE
8
Gasses
62
1
5
37f
100
AcDbEntity
100
AcDbLine
10
8.869095
20
65.571808
30
0.0
11
9.166213
21
66.097745
31
0.0
0
LINE
8
Gasses
62
1
5
380
100
AcDbEntity
100
AcDbLine
10
9.166213
20
66.097745
30
0.0
11
9.528717
21
66.687903
31
0.0
0
LINE
8
Gasses
62
1
5
381
100
AcDbEntity
100
AcDbLine
10
9.528717
20
66.687903
30
0.0
11
10.206334
21
65.516403
31
0.0
0
LINE
8
Gasses
62
1
5
382
100
AcDbEntity
100
AcDbLine
10
10.206334
20
65.516403
30
0.0
11
10.883886
21
64.409019
31
0.0
0
LINE
8
Gasses
62
1
5
383
100
AcDbEntity
100
AcDbLine
10
10.883886
20
64.409019
30
0.0
11
11.112009
21
64.199130
31
0.0
0
LINE
8
Gasses
62
1
5
384
100
AcDbEntity
100
AcDbLine
10
11.112009
20
64.199130
30
0.0
11
11.363370
21
63.989357
31
0.0
0
LINE
8
Gasses
62
1
5
385
100
AcDbEntity
100
AcDbLine
10
11.363370
20
63.989357
30
0.0
11
11.925825
21
63.567296
31
0.0
0
LINE
8
Gasses
62
1
5
386
100
AcDbEntity
100
AcDbLine
10
11.925825
20
63.567296
30
0.0
11
12.551294
21
63.137102
31
0.0
0
LINE
8
Gasses
62
1
5
387
100
AcDbEntity
100
AcDbLine
10
12.551294
20
63.137102
30
0.0
11
13.219817
21
62.693043
31
0.0
0
LINE
8
Gasses
62
1
5
388
100
AcDbEntity
100
AcDbLine
10
13.219817
20
62.693043
30
0.0
11
13.425860
21
62.571082
31
0.0
0
LINE
8
Gasses
62
1
5
389
100
AcDbEntity
100
AcDbLine
10
13.425860
20
62.571082
30
0.0
11
13.638743
21
62.425506
31
0.0
0
LINE
8
Gasses
62
1
5
38a
100
AcDbEntity
100
AcDbLine
10
13.638743
20
62.425506
30
0.0
11
14.075710
21
62.092128
31
0.0
0
LINE
8
Gasses
62
1
5
38b
100
AcDbEntity
100
AcDbLine
10
14.075710
20
62.092128
30
0.0
11
14.512089
21
61.750144
31
0.0
0
LINE
8
Gasses
62
1
5
38c
100
AcDbEntity
100
AcDbLine
10
14.512089
20
61.750144
30
0.0
11
14.929250
21
61.456790
31
0.0
0
LINE
8
Gasses
62
1
5
38d
100
AcDbEntity
100
AcDbLine
10
14.929250
20
61.456790
30
0.0
11
15.378912
21
61.497013
31
0.0
0
LINE
8
Gasses
62
1
5
38e
100
AcDbEntity
100
AcDbLine
10
15.378912
20
61.497013
30
0.0
11
15.800659
21
61.555935
31
0.0
0
LINE
8
Gasses
62
1
5
38f
100
AcDbEntity
100
AcDbLine
10
15.800659
20
61.555935
30
0.0
11
16.198077
21
61.628904
31
0.0
0
LINE
8
Gasses
62
1
5
390
100
AcDbEntity
100
AcDbLine
10
16.198077
20
61.628904
30
0.0
11
16.574751
21
61.711270
31
0.0
0
LINE
8
Gasses
62
1
5
391
100
AcDbEntity
100
AcDbLine
10
16.574751
20
61.711270
30
0.0
11
17.204379
21
62.583323
31
0.0
0
LINE
8
Gasses
62
1
5
392
100
AcDbEntity
100
AcDbLine
10
17.204379
20
62.583323
30
0.0
11
17.533527
21
63.092986
31
0.0
0
LINE
8
Gasses
62
1
5
393
100
AcDbEntity
100
AcDbLine
10
17.533527
20
63.092986
30
0.0
11
17.675572
21
63.350262
31
0.0
0
LINE
8
Gasses
62
1
5
394
100
AcDbEntity
100
AcDbLine
10
17.675572
20
63.350262
30
0.0
11
17.792649
21
63.603087
31
0.0
0
LINE
8
Gasses
62
1
5
395
100
AcDbEntity
100
AcDbLine
10
17.792649
20
63.603087
30
0.0
11
17.535041
21
64.028393
31
0.0
0
LINE
8
Gasses
62
1
5
396
100
AcDbEntity
100
AcDbLine
10
17.535041
20
64.028393
30
0.0
11
17.181515
21
64.579174
31
0.0
0
LINE
8
Gasses
62
1
5
397
100
AcDbEntity
100
AcDbLine
10
17.181515
20
64.579174
30
0.0
11
16.794835
21
65.158433
31
0.0
0
LINE
8
Gasses
62
1
5
398
100
AcDbEntity
100
AcDbLine
10
16.794835
20
65.158433
30
0.0
11
16.437764
21
65.669176
31
0.0
0
LINE
8
Gasses
62
1
5
399
100
AcDbEntity
100
AcDbLine
10
16.437764
20
65.669176
30
0.0
11
16.793732
21
66.231002
31
0.0
0
LINE
8
Gasses
62
1
5
39a
100
AcDbEntity
100
AcDbLine
10
16.793732
20
66.231002
30
0.0
11
17.131528
21
66.741409
31
0.0
0
LINE
8
Gasses
62
1
5
39b
100
AcDbEntity
100
AcDbLine
10
17.131528
20
66.741409
30
0.0
11
17.849620
21
67.829651
31
0.0
0
LINE
8
Gasses
62
1
5
39c
100
AcDbEntity
100
AcDbLine
10
17.849620
20
67.829651
30
0.0
11
18.061033
21
68.537755
31
0.0
0
LINE
8
Gasses
62
1
5
39d
100
AcDbEntity
100
AcDbLine
10
18.061033
20
68.537755
30
0.0
11
18.250136
21
69.264802
31
0.0
0
LINE
8
Gasses
62
1
5
39e
100
AcDbEntity
100
AcDbLine
10
18.250136
20
69.264802
30
0.0
11
18.459119
21
70.077004
31
0.0
0
LINE
8
Gasses
62
1
5
39f
100
AcDbEntity
100
AcDbLine
10
18.459119
20
70.077004
30
0.0
11
18.730174
21
71.040571
31
0.0
0
LINE
8
Gasses
62
1
5
3a0
100
AcDbEntity
100
AcDbLine
10
18.730174
20
71.040571
30
0.0
11
19.333412
21
70.697410
31
0.0
0
LINE
8
Gasses
62
1
5
3a1
100
AcDbEntity
100
AcDbLine
10
19.333412
20
70.697410
30
0.0
11
19.885907
21
70.367643
31
0.0
0
LINE
8
Gasses
62
1
5
3a2
100
AcDbEntity
100
AcDbLine
10
19.885907
20
70.367643
30
0.0
11
20.393310
21
70.042470
31
0.0
0
LINE
8
Gasses
62
1
5
3a3
100
AcDbEntity
100
AcDbLine
10
20.393310
20
70.042470
30
0.0
11
20.861269
21
69.713091
31
0.0
0
LINE
8
Gasses
62
1
5
3a4
100
AcDbEntity
100
AcDbLine
10
20.861269
20
69.713091
30
0.0
11
21.472485
21
70.303262
31
0.0
0
LINE
8
Gasses
62
1
5
3a5
100
AcDbEntity
100
AcDbLine
10
21.472485
20
70.303262
30
0.0
11
22.176237
21
70.963570
31
0.0
0
LINE
8
Gasses
62
1
5
3a6
100
AcDbEntity
100
AcDbLine
10
22.176237
20
70.963570
30
0.0
11
22.929327
21
71.642053
31
0.0
0
LINE
8
Gasses
62
1
5
3a7
100
AcDbEntity
100
AcDbLine
10
22.929327
20
71.642053
30
0.0
11
23.688559
21
72.286749
31
0.0
0
LINE
8
Gasses
62
1
5
3a8
100
AcDbEntity
100
AcDbLine
10
23.688559
20
72.286749
30
0.0
11
23.974670
21
71.992917
31
0.0
0
LINE
8
Gasses
62
1
5
3a9
100
AcDbEntity
100
AcDbLine
10
23.974670
20
71.992917
30
0.0
11
24.283700
21
71.697845
31
0.0
0
LINE
8
Gasses
62
1
5
3aa
100
AcDbEntity
100
AcDbLine
10
24.283700
20
71.697845
30
0.0
11
24.840519
21
71.201934
31
0.0
0
LINE
8
Gasses
62
1
5
3ab
100
AcDbEntity
100
AcDbLine
10
24.840519
20
71.201934
30
0.0
11
26.318967
21
71.864196
31
0.0
0
LINE
8
Gasses
62
1
5
3ac
100
AcDbEntity
100
AcDbLine
10
26.318967
20
71.864196
30
0.0
11
27.895930
21
72.566780
31
0.0
0
LINE
8
Gasses
62
1
5
3ad
100
AcDbEntity
100
AcDbLine
10
27.895930
20
72.566780
30
0.0
11
30.329297
21
70.364071
31
0.0
0
LINE
8
Gasses
62
1
5
3ae
100
AcDbEntity
100
AcDbLine
10
30.329297
20
70.364071
30
0.0
11
31.680296
21
69.116463
31
0.0
0
LINE
8
Gasses
62
1
5
3af
100
AcDbEntity
100
AcDbLine
10
31.680296
20
69.116463
30
0.0
11
32.721103
21
68.117124
31
0.0
0
LINE
8
Gasses
62
1
5
3b0
100
AcDbEntity
100
AcDbLine
10
32.721103
20
68.117124
30
0.0
11
32.729103
21
67.282721
31
0.0
0
LINE
8
Gasses
62
1
5
3b1
100
AcDbEntity
100
AcDbLine
10
32.729103
20
67.282721
30
0.0
11
32.755914
21
66.409818
31
0.0
0
LINE
8
Gasses
62
1
5
3b2
100
AcDbEntity
100
AcDbLine
10
32.755914
20
66.409818
30
0.0
11
32.829820
21
64.600510
31
0.0
0
LINE
8
Gasses
62
1
5
3b3
100
AcDbEntity
100
AcDbLine
10
32.829820
20
64.600510
30
0.0
11
32.858841
21
63.690100
31
0.0
0
LINE
8
Gasses
62
1
5
3b4
100
AcDbEntity
100
AcDbLine
10
32.858841
20
63.690100
30
0.0
11
32.870524
21
62.793184
31
0.0
0
LINE
8
Gasses
62
1
5
3b5
100
AcDbEntity
100
AcDbLine
10
32.870524
20
62.793184
30
0.0
11
32.855834
21
61.922758
31
0.0
0
LINE
8
Gasses
62
1
5
3b6
100
AcDbEntity
100
AcDbLine
10
32.855834
20
61.922758
30
0.0
11
32.805733
21
61.091822
31
0.0
0
LINE
8
Gasses
62
1
5
3b7
100
AcDbEntity
100
AcDbLine
10
32.805733
20
61.091822
30
0.0
11
32.596000
21
60.770703
31
0.0
0
LINE
8
Gasses
62
1
5
3b8
100
AcDbEntity
100
AcDbLine
10
32.596000
20
60.770703
30
0.0
11
32.399037
21
60.430749
31
0.0
0
LINE
8
Gasses
62
1
5
3b9
100
AcDbEntity
100
AcDbLine
10
32.399037
20
60.430749
30
0.0
11
32.220787
21
60.085072
31
0.0
0
LINE
8
Gasses
62
1
5
3ba
100
AcDbEntity
100
AcDbLine
10
32.220787
20
60.085072
30
0.0
11
32.067190
21
59.746788
31
0.0
0
LINE
8
Gasses
62
1
5
3bb
100
AcDbEntity
100
AcDbLine
10
32.067190
20
59.746788
30
0.0
11
31.944187
21
59.429010
31
0.0
0
LINE
8
Gasses
62
1
5
3bc
100
AcDbEntity
100
AcDbLine
10
31.944187
20
59.429010
30
0.0
11
31.857720
21
59.144852
31
0.0
0
LINE
8
Gasses
62
1
5
3bd
100
AcDbEntity
100
AcDbLine
10
31.857720
20
59.144852
30
0.0
11
31.813729
21
58.907427
31
0.0
0
LINE
8
Gasses
62
1
5
3be
100
AcDbEntity
100
AcDbLine
10
31.813729
20
58.907427
30
0.0
11
31.818157
21
58.729850
31
0.0
0
LINE
8
Gasses
62
1
5
3bf
100
AcDbEntity
100
AcDbLine
10
31.818157
20
58.729850
30
0.0
11
31.632908
21
58.597303
31
0.0
0
LINE
8
Gasses
62
1
5
3c0
100
AcDbEntity
100
AcDbLine
10
31.632908
20
58.597303
30
0.0
11
31.374112
21
58.437089
31
0.0
0
LINE
8
Gasses
62
1
5
3c1
100
AcDbEntity
100
AcDbLine
10
31.374112
20
58.437089
30
0.0
11
30.721425
21
58.060566
31
0.0
0
LINE
8
Gasses
62
1
5
3c2
100
AcDbEntity
100
AcDbLine
10
30.721425
20
58.060566
30
0.0
11
30.031187
21
57.654102
31
0.0
0
LINE
8
Gasses
62
1
5
3c3
100
AcDbEntity
100
AcDbLine
10
30.031187
20
57.654102
30
0.0
11
29.725452
21
57.456460
31
0.0
0
LINE
8
Gasses
62
1
5
3c4
100
AcDbEntity
100
AcDbLine
10
29.725452
20
57.456460
30
0.0
11
29.474487
21
57.271516
31
0.0
0
LINE
8
Gasses
62
1
5
3c5
100
AcDbEntity
100
AcDbLine
10
29.474487
20
57.271516
30
0.0
11
29.260235
21
56.903155
31
0.0
0
LINE
8
Gasses
62
1
5
3c6
100
AcDbEntity
100
AcDbLine
10
29.260235
20
56.903155
30
0.0
11
29.063103
21
56.526671
31
0.0
0
LINE
8
Gasses
62
1
5
3c7
100
AcDbEntity
100
AcDbLine
10
29.063103
20
56.526671
30
0.0
11
28.862174
21
56.138757
31
0.0
0
LINE
8
Gasses
62
1
5
3c8
100
AcDbEntity
100
AcDbLine
10
28.862174
20
56.138757
30
0.0
11
28.636531
21
55.736108
31
0.0
0
LINE
8
Gasses
62
1
5
3c9
100
AcDbEntity
100
AcDbLine
10
28.636531
20
55.736108
30
0.0
11
28.599530
21
55.039879
31
0.0
0
LINE
8
Gasses
62
1
5
3ca
100
AcDbEntity
100
AcDbLine
10
28.599530
20
55.039879
30
0.0
11
28.559525
21
54.454802
31
0.0
0
LINE
8
Gasses
62
1
5
3cb
100
AcDbEntity
100
AcDbLine
10
28.559525
20
54.454802
30
0.0
11
28.476107
21
53.871860
31
0.0
0
LINE
8
Gasses
62
1
5
3cc
100
AcDbEntity
100
AcDbLine
10
28.476107
20
53.871860
30
0.0
11
28.405491
21
53.547121
31
0.0
0
LINE
8
Gasses
62
1
5
3cd
100
AcDbEntity
100
AcDbLine
10
28.405491
20
53.547121
30
0.0
11
28.308869
21
53.182035
31
0.0
0
LINE
8
Gasses
62
1
5
3ce
100
AcDbEntity
100
AcDbLine
10
28.308869
20
53.182035
30
0.0
11
28.153442
21
53.096820
31
0.0
0
LINE
8
Gasses
62
1
5
3cf
100
AcDbEntity
100
AcDbLine
10
28.153442
20
53.096820
30
0.0
11
27.962286
21
53.016376
31
0.0
0
LINE
8
Gasses
62
1
5
3d0
100
AcDbEntity
100
AcDbLine
10
27.962286
20
53.016376
30
0.0
11
27.522281
21
52.866676
31
0.0
0
LINE
8
Gasses
62
1
5
3d1
100
AcDbEntity
100
AcDbLine
10
27.522281
20
52.866676
30
0.0
11
27.087834
21
52.726698
31
0.0
0
LINE
8
Gasses
62
1
5
3d2
100
AcDbEntity
100
AcDbLine
10
27.087834
20
52.726698
30
0.0
11
26.903626
21
52.658403
31
0.0
0
LINE
8
Gasses
62
1
5
3d3
100
AcDbEntity
100
AcDbLine
10
26.903626
20
52.658403
30
0.0
11
26.757924
21
52.590199
31
0.0
0
LINE
8
Gasses
62
1
5
3d4
100
AcDbEntity
100
AcDbLine
10
26.757924
20
52.590199
30
0.0
11
26.686544
21
52.441686
31
0.0
0
LINE
8
Gasses
62
1
5
3d5
100
AcDbEntity
100
AcDbLine
10
26.686544
20
52.441686
30
0.0
11
26.638378
21
52.279413
31
0.0
0
LINE
8
Gasses
62
1
5
3d6
100
AcDbEntity
100
AcDbLine
10
26.638378
20
52.279413
30
0.0
11
26.585461
21
52.079687
31
0.0
0
LINE
8
Gasses
62
1
5
3d7
100
AcDbEntity
100
AcDbLine
10
26.585461
20
52.079687
30
0.0
11
26.499823
21
51.818811
31
0.0
0
LINE
8
Gasses
62
1
5
3d8
100
AcDbEntity
100
AcDbLine
10
26.499823
20
51.818811
30
0.0
11
26.073844
21
51.987497
31
0.0
0
LINE
8
Gasses
62
1
5
3d9
100
AcDbEntity
100
AcDbLine
10
26.073844
20
51.987497
30
0.0
11
25.837200
21
52.059227
31
0.0
0
LINE
8
Gasses
62
1
5
3da
100
AcDbEntity
100
AcDbLine
10
25.837200
20
52.059227
30
0.0
11
25.593597
21
52.097758
31
0.0
0
LINE
8
Gasses
62
1
5
3db
100
AcDbEntity
100
AcDbLine
10
25.593597
20
52.097758
30
0.0
11
25.557782
21
51.902949
31
0.0
0
LINE
8
Gasses
62
1
5
3dc
100
AcDbEntity
100
AcDbLine
10
25.557782
20
51.902949
30
0.0
11
25.499397
21
51.725158
31
0.0
0
LINE
8
Gasses
62
1
5
3dd
100
AcDbEntity
100
AcDbLine
10
25.499397
20
51.725158
30
0.0
11
25.423503
21
51.565035
31
0.0
0
LINE
8
Gasses
62
1
5
3de
100
AcDbEntity
100
AcDbLine
10
25.423503
20
51.565035
30
0.0
11
25.335161
21
51.423231
31
0.0
0
LINE
8
Gasses
62
1
5
3df
100
AcDbEntity
100
AcDbLine
10
25.335161
20
51.423231
30
0.0
11
25.239431
21
51.300396
31
0.0
0
LINE
8
Gasses
62
1
5
3e0
100
AcDbEntity
100
AcDbLine
10
25.239431
20
51.300396
30
0.0
11
25.141373
21
51.197181
31
0.0
0
LINE
8
Gasses
62
1
5
3e1
100
AcDbEntity
100
AcDbLine
10
25.141373
20
51.197181
30
0.0
11
24.958519
21
51.052213
31
0.0
0
LINE
8
Gasses
62
1
5
3e2
100
AcDbEntity
100
AcDbLine
10
24.958519
20
51.052213
30
0.0
11
24.827084
21
50.993530
31
0.0
0
LINE
8
Gasses
62
1
5
3e3
100
AcDbEntity
100
AcDbLine
10
24.827084
20
50.993530
30
0.0
11
24.793301
21
50.998172
31
0.0
0
LINE
8
Gasses
62
1
5
3e4
100
AcDbEntity
100
AcDbLine
10
24.793301
20
50.998172
30
0.0
11
24.787554
21
51.026337
31
0.0
0
LINE
8
Gasses
62
1
5
3e5
100
AcDbEntity
100
AcDbLine
10
24.787554
20
51.026337
30
0.0
11
24.814905
21
51.078676
31
0.0
0
LINE
8
Gasses
62
1
5
3e6
100
AcDbEntity
100
AcDbLine
10
24.814905
20
51.078676
30
0.0
11
24.880414
21
51.155839
31
0.0
0
LINE
8
Gasses
62
1
5
3e7
100
AcDbEntity
100
AcDbLine
10
24.880414
20
51.155839
30
0.0
11
25.146149
21
51.387239
31
0.0
0
LINE
8
Gasses
62
1
5
3e8
100
AcDbEntity
100
AcDbLine
10
25.146149
20
51.387239
30
0.0
11
24.764628
21
51.241099
31
0.0
0
LINE
8
Gasses
62
1
5
3e9
100
AcDbEntity
100
AcDbLine
10
24.764628
20
51.241099
30
0.0
11
24.294910
21
51.048972
31
0.0
0
LINE
8
Gasses
62
1
5
3ea
100
AcDbEntity
100
AcDbLine
10
24.294910
20
51.048972
30
0.0
11
23.876635
21
50.845290
31
0.0
0
LINE
8
Gasses
62
1
5
3eb
100
AcDbEntity
100
AcDbLine
10
23.876635
20
50.845290
30
0.0
11
23.730426
21
50.749876
31
0.0
0
LINE
8
Gasses
62
1
5
3ec
100
AcDbEntity
100
AcDbLine
10
23.730426
20
50.749876
30
0.0
11
23.649444
21
50.664486
31
0.0
0
LINE
8
Gasses
62
1
5
3ed
100
AcDbEntity
100
AcDbLine
10
23.649444
20
50.664486
30
0.0
11
23.677559
21
50.536528
31
0.0
0
LINE
8
Gasses
62
1
5
3ee
100
AcDbEntity
100
AcDbLine
10
23.677559
20
50.536528
30
0.0
11
23.729443
21
50.412722
31
0.0
0
LINE
8
Gasses
62
1
5
3ef
100
AcDbEntity
100
AcDbLine
10
23.729443
20
50.412722
30
0.0
11
23.800137
21
50.294000
31
0.0
0
LINE
8
Gasses
62
1
5
3f0
100
AcDbEntity
100
AcDbLine
10
23.800137
20
50.294000
30
0.0
11
23.884684
21
50.181293
31
0.0
0
LINE
8
Gasses
62
1
5
3f1
100
AcDbEntity
100
AcDbLine
10
23.884684
20
50.181293
30
0.0
11
24.075497
21
49.977655
31
0.0
0
LINE
8
Gasses
62
1
5
3f2
100
AcDbEntity
100
AcDbLine
10
24.075497
20
49.977655
30
0.0
11
24.262210
21
49.809265
31
0.0
0
LINE
8
Gasses
62
1
5
3f3
100
AcDbEntity
100
AcDbLine
10
24.262210
20
49.809265
30
0.0
11
23.874364
21
49.531950
31
0.0
0
LINE
8
Gasses
62
1
5
3f4
100
AcDbEntity
100
AcDbLine
10
23.874364
20
49.531950
30
0.0
11
23.501467
21
49.228206
31
0.0
0
LINE
8
Gasses
62
1
5
3f5
100
AcDbEntity
100
AcDbLine
10
23.501467
20
49.228206
30
0.0
11
23.149194
21
48.899955
31
0.0
0
LINE
8
Gasses
62
1
5
3f6
100
AcDbEntity
100
AcDbLine
10
23.149194
20
48.899955
30
0.0
11
22.823218
21
48.549121
31
0.0
0
LINE
8
Gasses
62
1
5
3f7
100
AcDbEntity
100
AcDbLine
10
22.823218
20
48.549121
30
0.0
11
22.529216
21
48.177627
31
0.0
0
LINE
8
Gasses
62
1
5
3f8
100
AcDbEntity
100
AcDbLine
10
22.529216
20
48.177627
30
0.0
11
22.272862
21
47.787396
31
0.0
0
LINE
8
Gasses
62
1
5
3f9
100
AcDbEntity
100
AcDbLine
10
22.272862
20
47.787396
30
0.0
11
22.059831
21
47.380350
31
0.0
0
LINE
8
Gasses
62
1
5
3fa
100
AcDbEntity
100
AcDbLine
10
22.059831
20
47.380350
30
0.0
11
21.895798
21
46.958412
31
0.0
0
LINE
8
Gasses
62
1
5
3fb
100
AcDbEntity
100
AcDbLine
10
21.895798
20
46.958412
30
0.0
11
21.291573
21
46.834833
31
0.0
0
LINE
8
Gasses
62
1
5
3fc
100
AcDbEntity
100
AcDbLine
10
21.291573
20
46.834833
30
0.0
11
21.031713
21
46.763471
31
0.0
0
LINE
8
Gasses
62
1
5
3fd
100
AcDbEntity
100
AcDbLine
10
21.031713
20
46.763471
30
0.0
11
20.784754
21
46.673841
31
0.0
0
LINE
8
Gasses
62
1
5
3fe
100
AcDbEntity
100
AcDbLine
10
20.784754
20
46.673841
30
0.0
11
20.539243
21
46.557030
31
0.0
0
LINE
8
Gasses
62
1
5
3ff
100
AcDbEntity
100
AcDbLine
10
20.539243
20
46.557030
30
0.0
11
20.283728
21
46.404123
31
0.0
0
LINE
8
Gasses
62
1
5
400
100
AcDbEntity
100
AcDbLine
10
20.283728
20
46.404123
30
0.0
11
20.006757
21
46.206207
31
0.0
0
LINE
8
Gasses
62
1
5
401
100
AcDbEntity
100
AcDbLine
10
20.006757
20
46.206207
30
0.0
11
19.696879
21
45.954367
31
0.0
0
LINE
8
Gasses
62
1
5
402
100
AcDbEntity
100
AcDbLine
10
19.696879
20
45.954367
30
0.0
11
18.694890
21
46.049682
31
0.0
0
LINE
8
Gasses
62
1
5
403
100
AcDbEntity
100
AcDbLine
10
18.694890
20
46.049682
30
0.0
11
17.747863
21
46.180147
31
0.0
0
LINE
8
Gasses
62
1
5
404
100
AcDbEntity
100
AcDbLine
10
17.747863
20
46.180147
30
0.0
11
17.197066
21
46.346017
31
0.0
0
LINE
8
Gasses
62
1
5
405
100
AcDbEntity
100
AcDbLine
10
17.197066
20
46.346017
30
0.0
11
16.535991
21
46.577429
31
0.0
0
LINE
8
Gasses
62
1
5
406
100
AcDbEntity
100
AcDbLine
10
16.535991
20
46.577429
30
0.0
11
15.235806
21
47.074034
31
0.0
0
LINE
8
Gasses
62
1
5
407
100
AcDbEntity
100
AcDbLine
10
15.235806
20
47.074034
30
0.0
11
13.511171
21
47.085900
31
0.0
0
LINE
8
Gasses
62
1
5
408
100
AcDbEntity
100
AcDbLine
10
13.511171
20
47.085900
30
0.0
11
12.604026
21
47.116546
31
0.0
0
LINE
8
Gasses
62
1
5
409
100
AcDbEntity
100
AcDbLine
10
12.604026
20
47.116546
30
0.0
11
11.671556
21
47.175699
31
0.0
0
LINE
8
Gasses
62
1
5
40a
100
AcDbEntity
100
AcDbLine
10
11.671556
20
47.175699
30
0.0
11
11.128275
21
47.819780
31
0.0
0
LINE
8
Gasses
62
1
5
40b
100
AcDbEntity
100
AcDbLine
10
11.128275
20
47.819780
30
0.0
11
10.876308
21
48.102691
31
0.0
0
LINE
8
Gasses
62
1
5
40c
100
AcDbEntity
100
AcDbLine
10
10.876308
20
48.102691
30
0.0
11
10.584655
21
48.383210
31
0.0
0
LINE
8
Gasses
62
1
5
40d
100
AcDbEntity
100
AcDbLine
10
10.584655
20
48.383210
30
0.0
11
10.213712
21
48.679108
31
0.0
0
LINE
8
Gasses
62
1
5
40e
100
AcDbEntity
100
AcDbLine
10
10.213712
20
48.679108
30
0.0
11
9.723879
21
49.008155
31
0.0
0
LINE
8
Gasses
62
1
5
40f
100
AcDbEntity
100
AcDbLine
10
9.723879
20
49.008155
30
0.0
11
9.075551
21
49.388121
31
0.0
0
LINE
8
Gasses
62
1
5
410
100
AcDbEntity
100
AcDbLine
10
9.075551
20
49.388121
30
0.0
11
8.229127
21
49.836778
31
0.0
0
LINE
8
Gasses
62
1
5
411
100
AcDbEntity
100
AcDbLine
10
8.229127
20
49.836778
30
0.0
11
8.043553
21
50.710923
31
0.0
0
LINE
8
Gasses
62
1
5
412
100
AcDbEntity
100
AcDbLine
10
8.043553
20
50.710923
30
0.0
11
7.863225
21
51.782957
31
0.0
0
LINE
8
Gasses
62
1
5
413
100
AcDbEntity
100
AcDbLine
10
7.863225
20
51.782957
30
0.0
11
7.710013
21
52.903914
31
0.0
0
LINE
8
Gasses
62
1
5
414
100
AcDbEntity
100
AcDbLine
10
7.710013
20
52.903914
30
0.0
11
7.605787
21
53.924827
31
0.0
0
LINE
8
Gasses
62
1
5
415
100
AcDbEntity
100
AcDbLine
10
7.605787
20
53.924827
30
0.0
11
7.114984
21
53.980943
31
0.0
0
LINE
8
Gasses
62
1
5
416
100
AcDbEntity
100
AcDbLine
10
7.114984
20
53.980943
30
0.0
11
6.675885
21
54.016180
31
0.0
0
LINE
8
Gasses
62
1
5
417
100
AcDbEntity
100
AcDbLine
10
6.675885
20
54.016180
30
0.0
11
6.223326
21
54.065325
31
0.0
0
LINE
8
Gasses
62
1
5
418
100
AcDbEntity
100
AcDbLine
10
6.223326
20
54.065325
30
0.0
11
5.692146
21
54.163167
31
0.0
0
LINE
8
Gasses
62
1
5
419
100
AcDbEntity
100
AcDbLine
10
5.692146
20
54.163167
30
0.0
11
5.031988
21
54.324728
31
0.0
0
LINE
8
Gasses
62
1
5
41a
100
AcDbEntity
100
AcDbLine
10
5.031988
20
54.324728
30
0.0
11
4.413715
21
54.509007
31
0.0
0
LINE
8
Gasses
62
1
5
41b
100
AcDbEntity
100
AcDbLine
10
4.413715
20
54.509007
30
0.0
11
3.052472
21
54.964505
31
0.0
0
LINE
8
Gasses
62
1
5
41c
100
AcDbEntity
100
AcDbLine
10
3.052472
20
54.964505
30
0.0
11
3.085982
21
55.651636
31
0.0
0
LINE
8
Gasses
62
1
5
41d
100
AcDbEntity
100
AcDbLine
10
3.085982
20
55.651636
30
0.0
11
3.139490
21
56.393430
31
0.0
0
LINE
8
Gasses
62
1
5
41e
100
AcDbEntity
100
AcDbLine
10
3.139490
20
56.393430
30
0.0
11
3.277223
21
58.008848
31
0.0
0
LINE
8
Gasses
62
1
5
41f
100
AcDbEntity
100
AcDbLine
10
3.277223
20
58.008848
30
0.0
11
3.277223
21
58.008848
31
0.0
  0
ENDSEC
  0
SECTION
  2
OBJECTS
  0
DICTIONARY
  5
C
330
0
100
AcDbDictionary
  3
ACAD_GROUP
350
D
  3
ACAD_MLINESTYLE
350
17
  0
DICTIONARY
  5
D
330
C
100
AcDbDictionary
  0
DICTIONARY
  5
1A
330
C
100
AcDbDictionary
  0
DICTIONARY
  5
17
330
C
100
AcDbDictionary
  3
STANDARD
350
18
  0
DICTIONARY
  5
19
330
C
100
AcDbDictionary
  0
ENDSEC
  0
EOF
